<?xml version="1.0" encoding="UTF-8" standalone="no"?>
<!-- Created with Inkscape (http://www.inkscape.org/) -->

<svg
   xmlns:dc="http://purl.org/dc/elements/1.1/"
   xmlns:cc="http://creativecommons.org/ns#"
   xmlns:rdf="http://www.w3.org/1999/02/22-rdf-syntax-ns#"
   xmlns:svg="http://www.w3.org/2000/svg"
   xmlns="http://www.w3.org/2000/svg"
   xmlns:sodipodi="http://sodipodi.sourceforge.net/DTD/sodipodi-0.dtd"
   xmlns:inkscape="http://www.inkscape.org/namespaces/inkscape"
   width="1000"
   height="1000"
   id="svg3004"
   version="1.1"
   inkscape:version="0.48.3.1 r9886"
   sodipodi:docname="ilu.svg">
  <defs
     id="defs5498" />
  <sodipodi:namedview
     inkscape:window-height="722"
     inkscape:window-width="1366"
     inkscape:pageshadow="2"
     inkscape:pageopacity="0.0"
     borderopacity="1.0"
     bordercolor="#666666"
     pagecolor="#ffffff"
     id="base"
     showgrid="false"
     showguides="true"
     inkscape:guide-bbox="true"
     inkscape:zoom="0.32102648"
     inkscape:cx="304.93926"
     inkscape:cy="574.37497"
     inkscape:window-x="0"
     inkscape:window-y="24"
     inkscape:current-layer="g3253"
     inkscape:window-maximized="1">
    <sodipodi:guide
       orientation="horizontal"
       position="854.62555,442.73128"
       id="guide5596" />
    <sodipodi:guide
       orientation="0,1"
       position="854.62555,865.63877"
       id="guide3067" />
    <sodipodi:guide
       orientation="-0.70710678,0.70710678"
       position="-814.97797,1143.1718"
       id="guide3247" />
    <sodipodi:guide
       orientation="1,0"
       position="151.98238,832.59912"
       id="guide3249" />
    <sodipodi:guide
       orientation="1,0"
       position="764.31718,731.27753"
       id="guide3251" />
    <sodipodi:guide
       orientation="0,1"
       position="-70.484581,647.57709"
       id="guide3460" />
  </sodipodi:namedview>
  <metadata
     id="metadata5594">
    <rdf:RDF>
      <cc:Work
         rdf:about="">
        <dc:format>image/svg+xml</dc:format>
        <dc:type
           rdf:resource="http://purl.org/dc/dcmitype/StillImage" />
        <dc:title></dc:title>
      </cc:Work>
    </rdf:RDF>
  </metadata>
  <g
     inkscape:label="Layer 1"
     inkscape:groupmode="layer"
     id="layer1">
    <g
       id="g3631"
       transform="matrix(0.78138664,0,0,0.96429713,145.75357,23.895527)">
      <g
         id="g3253"
         transform="matrix(0.97908453,0.01330834,-0.02069819,0.99985934,-147.93123,-197.17586)">
        <path
           style="fill:#000000;fill-opacity:1;fill-rule:nonzero;stroke:none"
           id="path7169"
           d="M 19.150464,542.35376 C 8.5017613,533.17619 8.8591314,519.63802 9.7457838,506.73683 14.377931,480.04073 26.961225,455.97325 40.253254,432.70748 53.67991,411.85516 68.862513,391.85129 87.68913,375.53016 c 11.977886,-10.38385 15.78288,-12.08066 29.03625,-20.41205 17.56808,-9.67605 36.37905,-17.45166 56.29625,-20.57766 19.77607,-3.10384 56.42474,-1.14184 67.35737,-1.12092 13.05726,2.82679 24.3947,7.06192 30.16677,20.1043 1.01853,2.30144 1.52252,4.79771 2.28379,7.19657 4.66791,20.9431 0.3864,42.10524 -5.32992,62.35419 -8.67435,26.76787 -23.44503,49.39432 -40.87928,71.15358 -16.56394,19.14708 -35.23927,36.34941 -54.75751,52.42635 -7.07272,5.81207 -14.77922,10.77614 -22.04395,16.33075 -4.18988,3.20358 -8.06679,6.70582 -12.37205,9.75564 -13.33178,8.12836 -6.164,3.61587 -39.730517,-3.24544 -1.039324,-0.21244 1.894489,-0.95887 2.871897,-1.37118 2.20276,-0.92922 6.59681,-2.4374 8.70018,-3.18034 31.13794,-12.22775 64.20924,-8.46748 97.15936,-8.47626 33.72235,0.77372 67.35528,2.94009 100.99558,5.27434 20.08027,1.5771 40.22993,1.81208 60.36021,1.92442 6.75749,0.0377 27.03037,0.0152 20.27277,0.0247 -40.31528,0.0566 -73.8991,-0.21434 37.09351,0.32916 29.97631,0.84771 3.92396,0.0841 31.99056,0.97743 4.71382,0.15004 18.85717,0.33046 14.14204,0.43123 -11.36634,0.24293 -45.47553,-0.0792 -34.10683,-0.005 73.65816,0.48372 35.89672,-0.36496 67.34631,0.40246 11.72065,0.14715 23.3852,1.84699 35.09546,2.00916 -80.88466,11.57057 -43.11859,-1.77155 -31.67962,-0.0537 12.26294,1.84155 24.49282,3.89693 36.73923,5.84539 0,0 -37.88528,-5.84007 -37.88528,-5.84007 l 0,0 c 13.1165,1.91249 26.25608,3.67286 39.34949,5.73748 1.19408,0.18828 -2.38822,0.45362 -3.59703,0.46129 -14.28287,0.0906 -28.56629,0.0399 -42.84943,0.0599 -13.21358,-0.52152 -26.42958,-1.13192 -39.65397,-1.24572 -3.6294,-0.0276 -14.51766,-0.0648 -10.8882,-0.0828 11.34389,-0.0562 45.37604,-0.0768 34.03209,-0.0318 -36.09587,0.14331 -72.15492,0.20516 -108.235,-0.7869 10.70271,-0.0597 42.811,-0.16255 32.10813,-0.17912 -50.05302,-0.0775 -100.28113,1.40646 -150.25461,-2.33882 -31.97756,-2.4618 -63.96647,-4.63915 -96.02527,-5.74435 76.64698,-0.76782 30.57548,-0.57626 21.82142,0.0577 -10.96888,0.79437 -21.89057,3.01398 -32.33626,6.41512 -22.37311,6.85862 -18.35928,3.40392 -54.28269,0.53961 -0.144089,-0.0115 0.289088,0.002 0.433631,0.003 0.388357,-0.49549 0.776713,-0.99097 1.165069,-1.48645 3.3717,-3.16459 6.26504,-6.73095 9.54538,-9.97783 6.0532,-5.99145 13.05725,-10.87915 19.47115,-16.45496 18.48666,-16.35721 36.51991,-33.25822 52.96947,-51.69453 17.02103,-21.09864 31.73348,-43.76138 41.11316,-69.3772 6.53456,-19.14052 12.79286,-39.13124 9.65318,-59.58637 -0.7052,-2.04529 -1.12963,-4.21016 -2.11561,-6.13588 -6.09748,-11.90897 -20.24909,-14.42571 -32.26121,-15.57274 11.50413,-0.096 23.01145,-0.57569 34.51238,-0.28798 3.69703,0.0925 -7.39678,0.36737 -11.06,0.87466 -18.87469,2.61384 -36.49115,10.11472 -53.08721,19.21224 -13.07972,8.06858 -16.22943,9.31122 -28.03247,19.46775 -18.7053,16.09595 -33.76166,35.83155 -48.019427,55.81707 -14.669592,22.60807 -29.816668,45.54515 -36.850639,71.8835 -2.371179,11.22368 -3.748367,22.44377 4.67642,31.5197 0,0 -38.96319,3.50069 -38.96319,3.50069 z"
           inkscape:connector-curvature="0"
           transform="matrix(1.3067474,-0.01739309,0.02191998,1.0368789,-35.770233,172.89597)" />
        <path
           style="fill:#000000;fill-opacity:1;fill-rule:nonzero;stroke:none"
           id="path7217"
           d="m 570.49766,367.09635 c 2.94259,16.03579 3.30069,32.28962 3.27621,48.54984 -0.69322,36.16412 -4.47078,72.14375 -5.14666,108.30725 -0.56069,37.66979 -0.74051,75.30668 -3.11363,112.91788 -2.01431,22.36398 -5.34064,44.97486 -12.46656,66.36319 -3.56272,10.69344 -5.90962,14.6755 -10.77887,24.61315 -11.52844,19.89854 -27.71663,32.32642 -48.15323,41.9732 -6.84449,2.44643 -10.5079,4.13975 -17.66891,5.24231 -2.7109,0.41739 -5.46674,0.64753 -8.20857,0.57287 -16.71221,-0.45504 -33.50337,-0.21914 -50.10864,-2.16072 -3.68309,-0.43065 -12.50956,-9.21511 -14.61437,-11.12065 -19.27436,-19.9216 -32.42022,-44.68399 -44.75939,-69.24737 -12.80084,-27.05017 -21.18401,-55.96977 -24.94105,-85.66465 -0.86685,-6.85138 -1.24699,-13.75558 -1.87048,-20.63338 -2.348,-31.08006 -1.33197,-62.41133 2.86049,-93.30148 2.77538,-20.4491 5.2595,-29.85595 9.67076,-50.03439 10.39284,-42.57716 27.0875,-83.30461 49.06422,-121.19609 4.3809,-7.55338 9.15847,-14.86963 13.73771,-22.30445 23.60098,-35.22126 51.2696,-68.45085 84.59547,-94.96028 6.74981,-5.36921 13.9842,-10.0993 20.9763,-15.14895 27.34638,-18.32175 56.96863,-33.02734 88.14453,-43.60183 17.86118,-6.05829 23.26572,-6.88202 41.30226,-11.11176 6.36069,-0.88965 12.68926,-2.05097 19.08205,-2.66896 5.92824,-0.57308 11.88903,-0.91021 17.8449,-0.90077 33.76276,0.0535 53.07516,-3.08168 81.02824,4.16989 13.82215,3.58573 16.3755,5.32432 29.28359,11.01515 19.30147,9.96014 35.10524,24.48922 47.09718,42.56838 7.1635,10.79976 10.52047,18.77419 16.18012,30.46408 11.74203,28.53762 17.42141,58.95577 18.66781,89.71431 0.27024,6.66889 0.15785,13.34779 0.23677,20.02168 -0.43864,35.75641 -9.60459,70.54803 -24.04166,103.12086 -2.9639,6.68713 -6.40201,13.15387 -9.60301,19.7308 -13.60445,25.66753 -28.48323,50.81514 -46.33164,73.8024 -9.70903,12.50442 -16.52356,19.47797 -27.15812,31.08642 -11.94834,12.87496 -25.33096,24.04634 -39.23871,34.68241 0,0 -48.21409,-4.32666 -48.21409,-4.32666 l 0,0 c 12.59991,-10.62986 24.66234,-21.7743 35.57312,-34.18194 10.36335,-11.56654 16.68954,-18.20332 26.21716,-30.57127 17.55939,-22.79408 32.12169,-47.74443 45.93871,-72.91954 7.68924,-15.55579 11.87202,-23.0939 18.07301,-39.34152 9.90494,-25.95256 15.89838,-53.30062 16.91268,-81.08472 0.21071,-16.11079 0.68303,-22.73842 -0.6087,-38.70869 -1.91567,-23.6844 -7.40127,-46.84433 -16.44187,-68.82855 -2.35077,-5.17832 -4.43311,-10.48712 -7.05232,-15.53498 -12.5465,-24.18024 -29.9292,-42.03618 -54.49721,-53.99485 -12.22655,-4.842 -16.49028,-7.10094 -29.45418,-9.92105 -5.20672,-1.13264 -21.01825,-1.44116 -15.79195,-2.47975 10.68187,-2.12274 21.77145,-0.68583 32.6606,-0.87244 11.63547,-0.19941 -48.4997,0.98861 -34.79042,2.90555 -6.33516,1.50777 -12.72489,2.80232 -19.00547,4.52331 -37.71174,10.33368 -73.47936,27.17141 -106.12809,48.58775 -6.98963,4.8794 -14.20164,9.45478 -20.96889,14.63819 -33.41789,25.5966 -61.25187,58.16655 -84.17135,93.27667 -4.63825,7.31195 -9.54986,14.45751 -13.91476,21.93586 -21.81625,37.37768 -38.12313,77.87257 -49.21589,119.65206 -1.90334,8.25801 -4.00758,16.47227 -5.71,24.77402 -7.8741,38.39743 -11.96782,77.73258 -10.46076,116.93252 0.98261,16.54942 0.9975,23.30715 3.45508,39.57237 3.40889,22.56134 10.58403,44.21244 20.12238,64.90189 11.04408,23.70095 22.06145,47.9971 39.55722,67.76289 2.1399,1.88988 4.06018,4.0623 6.41968,5.66963 2.11254,1.43911 9.40051,2.97218 6.87866,3.38946 -11.56114,1.91301 -23.42911,0.67445 -35.13151,1.28551 -2.53994,0.13262 5.09549,0.37805 7.62869,0.15058 6.37094,-0.57209 10.5826,-2.39881 16.62879,-4.42215 19.6551,-8.50345 35.49133,-19.61686 45.91648,-38.91221 1.64782,-3.71855 3.5448,-7.3364 4.94346,-11.15565 9.11007,-24.87654 11.35669,-51.96462 14.26338,-78.04929 1.51999,-37.5629 1.92831,-75.15439 2.06276,-112.74571 0.26491,-16.5453 0.0771,-22.67552 1.4871,-39.18492 1.98096,-23.19496 6.02772,-46.17764 8.22941,-69.35062 1.36346,-10.11992 2.029,-14.0561 2.87934,-23.82673 0.60613,-6.96463 0.47776,-14.02197 1.12106,-20.97067 0.12726,-1.37466 0.47721,-2.71952 0.71582,-4.07929 0,0 39.02776,0.6446 39.02776,0.6446 z"
           inkscape:connector-curvature="0"
           transform="matrix(1.3067474,-0.01739309,0.02191998,1.0368789,-35.770233,172.89597)" />
      </g>
    </g>
  </g>
</svg>
