<?xml version="1.0" encoding="UTF-8" standalone="no"?>
<!-- Created with Inkscape (http://www.inkscape.org/) -->

<svg
   xmlns:dc="http://purl.org/dc/elements/1.1/"
   xmlns:cc="http://creativecommons.org/ns#"
   xmlns:rdf="http://www.w3.org/1999/02/22-rdf-syntax-ns#"
   xmlns:svg="http://www.w3.org/2000/svg"
   xmlns="http://www.w3.org/2000/svg"
   xmlns:sodipodi="http://sodipodi.sourceforge.net/DTD/sodipodi-0.dtd"
   xmlns:inkscape="http://www.inkscape.org/namespaces/inkscape"
   width="1000"
   height="1000"
   id="svg3004"
   version="1.1"
   inkscape:version="0.48.3.1 r9886"
   sodipodi:docname="9.svg">
  <defs
     id="defs5498" />
  <sodipodi:namedview
     inkscape:window-height="722"
     inkscape:window-width="1366"
     inkscape:pageshadow="2"
     inkscape:pageopacity="0.0"
     borderopacity="1.0"
     bordercolor="#666666"
     pagecolor="#ffffff"
     id="base"
     showgrid="false"
     showguides="true"
     inkscape:guide-bbox="true"
     inkscape:zoom="0.32102648"
     inkscape:cx="55.738635"
     inkscape:cy="679.93764"
     inkscape:window-x="0"
     inkscape:window-y="24"
     inkscape:current-layer="g3253"
     inkscape:window-maximized="1">
    <sodipodi:guide
       orientation="horizontal"
       position="854.62555,442.73128"
       id="guide5596" />
    <sodipodi:guide
       orientation="0,1"
       position="854.62555,865.63877"
       id="guide3067" />
    <sodipodi:guide
       orientation="-0.70710678,0.70710678"
       position="-814.97797,1143.1718"
       id="guide3247" />
    <sodipodi:guide
       orientation="1,0"
       position="151.98238,832.59912"
       id="guide3249" />
    <sodipodi:guide
       orientation="1,0"
       position="764.31718,731.27753"
       id="guide3251" />
    <sodipodi:guide
       orientation="0,1"
       position="-70.484581,647.57709"
       id="guide3460" />
  </sodipodi:namedview>
  <metadata
     id="metadata5594">
    <rdf:RDF>
      <cc:Work
         rdf:about="">
        <dc:format>image/svg+xml</dc:format>
        <dc:type
           rdf:resource="http://purl.org/dc/dcmitype/StillImage" />
        <dc:title></dc:title>
      </cc:Work>
    </rdf:RDF>
  </metadata>
  <g
     inkscape:label="Layer 1"
     inkscape:groupmode="layer"
     id="layer1">
    <g
       id="g3631"
       transform="matrix(0.78138664,0,0,0.96429713,145.75357,23.895527)">
      <g
         id="g3253"
         transform="matrix(0.97908453,0.01330834,-0.02069819,0.99985934,-147.93123,-197.17586)">
        <path
           style="fill:#000000;fill-opacity:1;fill-rule:nonzero;stroke:none"
           id="path7869"
           d="m 293.85412,539.93356 c 4.7954,-9.79068 13.09215,-18.45728 23.57919,-23.86843 32.65682,-9.86992 62.70333,-10.39193 80.88683,13.00235 2.04925,2.63648 3.60724,5.54017 5.41085,8.31027 12.99858,21.99359 18.59963,46.08325 21.29985,70.48461 2.48422,25.06884 -0.36226,50.44384 -9.59773,74.33029 -2.03028,5.25103 -4.73352,10.28233 -7.1003,15.42351 -13.30626,24.1221 -31.85677,46.2502 -58.29876,60.43973 -4.75792,2.55326 -9.89188,4.52876 -14.83782,6.79314 -5.08133,1.55831 -10.01169,3.55788 -15.24402,4.67488 -5.12614,1.09431 -10.40123,1.83733 -15.68037,1.9268 -36.18262,0.61318 -62.4142,6.6421 -92.3984,-4.90036 -14.52111,-5.58992 -16.88455,-8.42522 -29.3394,-17.11688 -24.34356,-22.51526 -37.74467,-50.67415 -43.10009,-81.05978 -1.26135,-7.15677 -1.63922,-14.40908 -2.45883,-21.6136 -0.0203,-43.90119 12.4184,-86.86804 31.8471,-127.10441 4.45574,-9.22777 9.58602,-18.19329 14.37903,-27.28994 21.74956,-35.99194 46.79485,-70.84657 78.16539,-101.0812 19.05362,-18.36367 25.99703,-22.47476 47.29058,-38.21958 19.16063,-11.60139 27.46732,-17.77176 48.5452,-26.19168 43.1365,-17.23158 88.02938,-14.35588 135.44749,-13.47905 6.80818,0.12588 13.36769,2.31522 20.05151,3.47281 6.20704,1.97606 12.71583,3.33567 18.62109,5.92815 25.75673,11.30742 43.7713,33.9068 55.78572,56.03786 3.78906,6.97963 6.70254,14.29609 10.05384,21.44413 22.60332,53.26248 26.00973,107.3715 26.9743,163.43475 -0.71323,49.09198 -3.9599,98.13734 -8.02108,147.08707 -3.08981,15.10137 -2.53278,46.31452 -14.72975,58.41272 -17.7995,-0.78371 -35.82055,0.25651 -53.39851,-2.35111 -2.19517,-0.32563 -0.99631,-3.80992 -1.20554,-5.74913 -1.61986,-15.01387 0.41081,-30.58755 1.53562,-45.54405 2.59108,-47.52784 13.45192,-94.13349 25.6271,-140.33799 15.47641,-52.80728 37.77699,-104.1744 69.34535,-151.25458 6.00084,-8.94949 12.73553,-17.50504 19.1033,-26.25757 29.73719,-36.54401 64.74623,-70.89985 109.37133,-93.92611 7.35343,-3.79433 15.22905,-6.75776 22.84358,-10.13664 7.41252,-2.28774 14.63873,-5.09879 22.23751,-6.8632 6.98478,-1.62184 14.13655,-3.01522 21.36257,-3.26051 33.69672,-1.14385 69.40345,-7.72296 101.14584,4.50503 13.41979,5.16964 16.01114,8.49622 26.71694,16.85126 3.20759,3.78332 6.8965,7.28865 9.62284,11.34996 12.65491,18.8518 14.16551,42.29893 10.71141,63.40226 -1.06888,6.53071 -2.98768,12.93072 -4.48146,19.3961 -10.73842,34.47341 -32.38697,64.98355 -60.09593,90.9675 -5.57155,5.22469 -11.64555,10.02099 -17.46832,15.0315 -28.50542,22.72689 -60.99433,41.09489 -95.59036,55.85069 -17.94904,5.90392 -76.87481,25.82077 -71.82625,1.05828 0.94961,-4.65768 2.42614,-4.76536 6.29346,-7.8025 37.84717,-18.64818 86.35281,-11.955 127.03711,-11.72646 21.87795,2.82239 43.5757,8.91321 62.73192,18.79274 11.92066,6.14791 17.30238,10.69769 27.96662,18.43594 20.41178,18.11176 38.0364,39.99497 41.19113,65.98319 0.5663,4.66624 0.07,9.38174 0.1037,14.07261 -4.44042,26.72025 -22.3059,47.83574 -47.19122,63.21962 -5.96773,3.68924 -12.46698,6.67373 -18.7005,10.01061 -37.247,17.02176 -78.35983,27.71212 -120.32707,30.88974 -8.4885,0.64272 -17.02824,0.61909 -25.54239,0.92862 -52.48081,1.82343 -103.20053,3.9122 -151.63817,-14.47481 -5.10598,-1.93825 -9.9786,-4.31917 -14.9679,-6.47877 0,0 62.81577,-7.10097 62.81577,-7.10097 l 0,0 c 18.31377,6.55477 36.26415,11.91626 55.84839,14.89529 7.63411,1.16127 30.54044,0.99004 23.04251,2.66432 -14.18567,3.16756 -29.25928,1.32705 -43.88893,1.99059 8.4228,-0.13141 16.86388,0.0912 25.26841,-0.39425 42.40265,-2.44909 84.04272,-12.98508 122.52682,-28.31621 6.65787,-3.04309 13.54885,-5.72534 19.97357,-9.12923 19.95253,-10.57107 39.54135,-25.55626 47.33701,-45.39403 1.58365,-4.02996 2.18987,-8.30747 3.28485,-12.46123 -0.19771,-4.32094 0.12683,-8.68308 -0.59295,-12.96288 -4.14275,-24.63182 -22.01921,-45.37496 -41.82514,-62.27982 -4.41946,-3.14568 -8.63607,-6.52354 -13.2584,-9.43704 -21.93125,-13.82358 -48.21127,-21.52174 -74.74011,-24.78517 93.26676,-3.61407 38.98406,-2.64901 18.89727,0.114 -10.35214,1.42396 -20.3406,3.90668 -30.11371,7.18074 -0.13709,0.0521 -7.46772,3.60534 -9.52267,2.45203 -0.60882,-0.3417 0.974,-1.87237 0.25182,-1.88235 -72.64474,-1.004 -61.2104,7.17816 -39.83536,-2.94384 30.39431,-16.34078 60.10034,-33.88815 86.55801,-54.92531 14.01796,-12.00055 20.90754,-17.27747 33.50134,-30.59926 20.13937,-21.30357 35.8729,-45.57697 45.2612,-72.03843 1.97795,-6.23256 4.35751,-12.37694 5.93383,-18.69765 4.78966,-19.2053 5.74602,-41.87114 -7.0141,-59.13293 -2.74791,-3.7173 -6.51887,-6.7735 -9.77829,-10.16025 -11.53137,-7.63592 -13.60205,-10.27544 -27.80507,-14.36387 -5.75443,-1.65645 -23.65221,-2.34497 -17.73653,-3.4451 14.85365,-2.76231 30.34648,-2.0973 45.53747,-1.72499 6.68956,0.16394 -13.38461,0.98221 -19.88491,2.35368 -7.0771,1.49316 -13.76853,4.13279 -20.65281,6.19918 -7.1004,3.15927 -14.46973,5.89476 -21.3012,9.47782 -42.62324,22.35559 -75.30895,56.21675 -103.14941,91.58641 -5.95032,8.62307 -12.18921,17.09806 -17.85095,25.86917 -30.46895,47.20204 -52.72249,97.99701 -71.3243,149.61707 -15.0622,45.97594 -29.33225,92.17384 -37.95746,139.49066 -2.60626,12.51394 -4.94677,25.10593 -7.91067,37.56003 -0.58713,2.4671 -1.30165,4.90932 -1.95217,7.36405 -0.37544,1.41685 0.52215,4.05738 -1.12571,4.25069 -17.08395,2.0042 -34.45184,1.29597 -51.67777,1.94395 -1.21837,-18.35026 0.58288,-36.86365 -0.36596,-55.26951 0.25687,-48.88817 -0.72501,-97.78501 0.7272,-146.66751 -1.07638,-54.25343 -3.66391,-109.01425 -21.8905,-161.37003 -12.23442,-30.31208 -24.13048,-59.16191 -60.87108,-72.61679 -6.10305,-2.23503 -12.675,-3.31287 -19.01251,-4.96929 -6.84486,-0.79421 -27.34353,-1.41456 -20.53459,-2.38258 14.79782,-2.10377 30.0678,-2.57083 44.97757,-1.09245 7.48835,0.74252 -14.98667,1.65576 -22.26234,3.34481 -25.40309,5.89732 -47.43171,18.35096 -68.10263,32.09728 -20.23409,15.54857 -26.37459,19.34509 -44.6433,37.26581 -30.68197,30.0975 -55.57453,64.3237 -77.9414,99.46814 -5.06702,8.95545 -10.42096,17.79029 -15.20106,26.86636 -20.61354,39.13927 -35.7619,80.88842 -38.26593,124.19792 0.41379,6.99236 0.39907,14.01302 1.24136,20.97707 3.50203,28.95656 15.2282,56.24171 38.95796,77.15427 11.4509,7.66711 14.28115,10.75605 27.80206,15.21434 4.823,1.59033 19.99743,2.57602 14.94859,3.44345 -15.08622,2.59191 -30.72455,1.34358 -46.09272,1.90735 -5.13282,0.1883 10.32752,-0.004 15.38527,-0.78086 5.06756,-0.77864 9.85843,-2.57019 14.78766,-3.8553 12.15964,-5.25321 17.14861,-6.7481 28.02646,-14.19533 18.94923,-12.97304 32.3191,-30.65004 43.07851,-49.22758 2.44092,-4.92994 5.19082,-9.75061 7.32271,-14.78981 9.81182,-23.19257 13.9729,-47.61138 11.80533,-72.30125 -1.92837,-23.48948 -6.67096,-46.7024 -17.40772,-68.48385 -3.5262,-6.25892 -3.87902,-8.03534 -9.00548,-13.08879 -1.40082,-1.38084 -2.91857,-2.71414 -4.68102,-3.72904 -1.40198,-0.80731 -6.33479,-1.53148 -4.66524,-1.65286 14.89441,-1.08285 67.83054,-2.4259 44.81769,-1.35063 -11.51007,3.87164 -16.52938,13.13087 -24.75604,20.64666 0,0 -53.3632,-1.45517 -53.3632,-1.45517 z"
           inkscape:connector-curvature="0" />
      </g>
    </g>
  </g>
</svg>
