<?xml version="1.0" encoding="UTF-8" standalone="no"?>
<!-- Created with Inkscape (http://www.inkscape.org/) -->

<svg
   xmlns:dc="http://purl.org/dc/elements/1.1/"
   xmlns:cc="http://creativecommons.org/ns#"
   xmlns:rdf="http://www.w3.org/1999/02/22-rdf-syntax-ns#"
   xmlns:svg="http://www.w3.org/2000/svg"
   xmlns="http://www.w3.org/2000/svg"
   xmlns:sodipodi="http://sodipodi.sourceforge.net/DTD/sodipodi-0.dtd"
   xmlns:inkscape="http://www.inkscape.org/namespaces/inkscape"
   width="1000"
   height="1000"
   id="svg3004"
   version="1.1"
   inkscape:version="0.48.3.1 r9886"
   sodipodi:docname="10.svg">
  <defs
     id="defs5498" />
  <sodipodi:namedview
     inkscape:window-height="722"
     inkscape:window-width="1366"
     inkscape:pageshadow="2"
     inkscape:pageopacity="0.0"
     borderopacity="1.0"
     bordercolor="#666666"
     pagecolor="#ffffff"
     id="base"
     showgrid="false"
     showguides="true"
     inkscape:guide-bbox="true"
     inkscape:zoom="0.32102648"
     inkscape:cx="55.738635"
     inkscape:cy="679.93764"
     inkscape:window-x="0"
     inkscape:window-y="24"
     inkscape:current-layer="g3253"
     inkscape:window-maximized="1">
    <sodipodi:guide
       orientation="horizontal"
       position="854.62555,442.73128"
       id="guide5596" />
    <sodipodi:guide
       orientation="0,1"
       position="854.62555,865.63877"
       id="guide3067" />
    <sodipodi:guide
       orientation="-0.70710678,0.70710678"
       position="-814.97797,1143.1718"
       id="guide3247" />
    <sodipodi:guide
       orientation="1,0"
       position="151.98238,832.59912"
       id="guide3249" />
    <sodipodi:guide
       orientation="1,0"
       position="764.31718,731.27753"
       id="guide3251" />
    <sodipodi:guide
       orientation="0,1"
       position="-70.484581,647.57709"
       id="guide3460" />
  </sodipodi:namedview>
  <metadata
     id="metadata5594">
    <rdf:RDF>
      <cc:Work
         rdf:about="">
        <dc:format>image/svg+xml</dc:format>
        <dc:type
           rdf:resource="http://purl.org/dc/dcmitype/StillImage" />
        <dc:title></dc:title>
      </cc:Work>
    </rdf:RDF>
  </metadata>
  <g
     inkscape:label="Layer 1"
     inkscape:groupmode="layer"
     id="layer1">
    <g
       id="g3631"
       transform="matrix(0.78138664,0,0,0.96429713,145.75357,23.895527)">
      <g
         id="g3253"
         transform="matrix(0.97908453,0.01330834,-0.02069819,0.99985934,-147.93123,-197.17586)">
        <path
           style="fill:#000000;fill-opacity:1;fill-rule:nonzero;stroke:none"
           id="path7898"
           d="m 475.76029,583.90433 c 4.6493,-18.89123 27.61892,-29.2108 47.11955,-37.86114 52.93929,-20.79601 103.67933,-15.05505 162.31987,-14.67106 23.20732,4.40731 36.43539,13.25889 36.05927,33.37423 -0.069,3.69257 -1.11526,7.33274 -1.67289,10.99912 -10.06296,34.80536 -44.7243,58.59416 -78.01211,80.32185 -54.1507,34.19833 -117.63517,56.35669 -181.89551,75.58543 -52.0441,15.33175 -105.23954,28.04591 -160.34124,33.85023 -31.85831,1.57289 -42.28106,2.323 -86.31356,0.84285 -8.05796,-0.27086 -7.98261,-9.01804 -6.14512,-12.80549 1.0279,-2.1189 2.99964,-3.86714 4.49955,-5.8007 2.8224,-1.9066 5.41517,-4.05079 8.46721,-5.71981 26.08543,-14.26471 63.91161,-19.44415 94.25405,-24.56218 66.69137,-10.68595 134.70313,-13.46594 202.53296,-14.9458 97.09688,-5.09465 193.66997,2.30317 290.25167,8.55681 49.17332,2.57577 97.85112,9.05091 146.87989,12.61645 21.92442,1.83523 70.68432,1.03569 -31.57808,1.66852 -1.50649,0.01 2.99979,-0.23251 4.50439,-0.29369 0.46159,-0.0187 1.42179,0.41987 1.38499,0.0542 -0.066,-0.65737 -1.0242,-1.03875 -1.53629,-1.55813 -11.94394,-14.8031 -24.1231,-29.40314 -35.06488,-44.70197 C 865.68554,640.27936 847.34798,598.95901 829.34574,557.8074 813.98739,519.79742 804.9035,480.62723 804.23395,440.686 c -0.38708,-23.08801 1.07235,-31.73021 3.26611,-54.40675 5.31466,-33.55272 10.21125,-67.61354 26.10203,-99.23076 0,0 62.75273,0.66905 62.75273,0.66905 l 0,0 c -7.47467,32.30731 -7.52073,65.27886 -10.66403,97.94953 -0.74015,21.2702 -1.56719,32.16925 -0.43282,53.681 2.06519,39.16358 10.29648,77.8573 23.55117,115.60456 14.11526,40.76237 28.4873,81.61832 49.13653,120.66766 8.31376,15.47646 18.73592,30.28813 25.6329,46.17114 0.1294,1.6715 0.87889,6.1743 -0.2804,8.056 -5.28068,8.57132 -71.44195,2.48625 -95.75126,2.54614 -52.85273,-2.88769 -105.45653,-8.33199 -158.32947,-11.11588 -46.3962,-2.90453 -92.753,-6.09451 -139.25775,-7.7371 -12.07526,-0.4265 -47.58733,2.27476 -36.23858,-1.02602 13.56995,-3.94679 28.89249,-0.6927 43.3387,-1.03903 -70.17861,1.18703 -140.44804,3.86521 -209.78642,13.15522 -39.47383,5.47712 -80.25242,10.62257 -115.88002,25.98935 -2.23532,1.21542 -4.56068,2.33256 -6.70581,3.6463 -0.7129,0.43657 -2.16323,0.91641 -1.82692,1.57923 0.88401,1.74196 11.00483,2.44951 10.5818,2.46932 -13.43916,0.62915 -79.08791,2.11947 -40.38342,0.44138 50.46913,-6.38546 98.83079,-19.63677 146.568,-33.86061 65.27697,-19.46694 130.28916,-40.93647 187.31822,-73.34703 35.45967,-20.48437 72.66118,-42.22964 88.81021,-75.93626 2.20806,-7.14428 4.59228,-10.74888 2.39711,-18.0031 -4.06517,-13.43374 -23.57316,-15.86835 -37.9107,-17.74821 16.43653,-0.57856 32.88701,-0.94641 49.30962,-1.73564 5.40435,-0.25972 -10.83656,-0.10256 -16.24172,0.14648 -22.53036,1.03783 -44.77729,5.2441 -65.3237,12.65229 -20.59849,7.82896 -43.56939,16.67587 -54.81754,33.33189 0,0 -57.40823,-0.35189 -57.40823,-0.35189 z"
           inkscape:connector-curvature="0" />
      </g>
    </g>
  </g>
</svg>
