<?xml version="1.0" encoding="UTF-8" standalone="no"?>
<!-- Created with Inkscape (http://www.inkscape.org/) -->

<svg
   xmlns:dc="http://purl.org/dc/elements/1.1/"
   xmlns:cc="http://creativecommons.org/ns#"
   xmlns:rdf="http://www.w3.org/1999/02/22-rdf-syntax-ns#"
   xmlns:svg="http://www.w3.org/2000/svg"
   xmlns="http://www.w3.org/2000/svg"
   xmlns:sodipodi="http://sodipodi.sourceforge.net/DTD/sodipodi-0.dtd"
   xmlns:inkscape="http://www.inkscape.org/namespaces/inkscape"
   width="1000"
   height="1000"
   id="svg3004"
   version="1.1"
   inkscape:version="0.48.3.1 r9886"
   sodipodi:docname="11.svg">
  <defs
     id="defs5498" />
  <sodipodi:namedview
     inkscape:window-height="722"
     inkscape:window-width="1366"
     inkscape:pageshadow="2"
     inkscape:pageopacity="0.0"
     borderopacity="1.0"
     bordercolor="#666666"
     pagecolor="#ffffff"
     id="base"
     showgrid="false"
     showguides="true"
     inkscape:guide-bbox="true"
     inkscape:zoom="0.32102648"
     inkscape:cx="55.738635"
     inkscape:cy="679.93764"
     inkscape:window-x="0"
     inkscape:window-y="24"
     inkscape:current-layer="g3253"
     inkscape:window-maximized="1">
    <sodipodi:guide
       orientation="horizontal"
       position="854.62555,442.73128"
       id="guide5596" />
    <sodipodi:guide
       orientation="0,1"
       position="854.62555,865.63877"
       id="guide3067" />
    <sodipodi:guide
       orientation="-0.70710678,0.70710678"
       position="-814.97797,1143.1718"
       id="guide3247" />
    <sodipodi:guide
       orientation="1,0"
       position="151.98238,832.59912"
       id="guide3249" />
    <sodipodi:guide
       orientation="1,0"
       position="764.31718,731.27753"
       id="guide3251" />
    <sodipodi:guide
       orientation="0,1"
       position="-70.484581,647.57709"
       id="guide3460" />
  </sodipodi:namedview>
  <metadata
     id="metadata5594">
    <rdf:RDF>
      <cc:Work
         rdf:about="">
        <dc:format>image/svg+xml</dc:format>
        <dc:type
           rdf:resource="http://purl.org/dc/dcmitype/StillImage" />
        <dc:title></dc:title>
      </cc:Work>
    </rdf:RDF>
  </metadata>
  <g
     inkscape:label="Layer 1"
     inkscape:groupmode="layer"
     id="layer1">
    <g
       id="g3631"
       transform="matrix(0.78138664,0,0,0.96429713,145.75357,23.895527)">
      <g
         id="g3253"
         transform="matrix(0.97908453,0.01330834,-0.02069819,0.99985934,-147.93123,-197.17586)">
        <path
           style="fill:#000000;fill-opacity:1;fill-rule:nonzero;stroke:none"
           id="path7999"
           d="m 237.49042,588.57342 c 15.57997,-12.12388 34.54477,-21.39774 53.48745,-30.12906 30.52139,-13.30754 64.07334,-21.08791 98.54748,-25.47534 35.83801,-2.20779 36.48371,-2.57605 91.8664,-1.08419 6.80828,0.1834 16.62048,3.53734 22.02602,6.68146 7.06221,4.10774 7.42434,6.33228 11.23614,12.17395 5.7252,23.85225 -14.42854,42.20794 -33.07118,59.47366 -24.14046,21.04123 -51.51958,39.92463 -81.37865,56.14923 -20.94452,11.3807 -36.18485,17.98165 -58.24062,28.1693 -57.41502,26.01945 -118.44288,46.68861 -180.84378,64.56633 -24.09424,6.34275 -48.4508,12.70214 -73.820781,15.30564 -23.169256,2.37766 -46.744842,0.574 -70.11845,0.53893 -0.663091,-1.03117 -1.851561,-1.94921 -1.989138,-3.09352 -1.428185,-11.8792 26.505738,-20.90393 36.880992,-25.22985 43.294088,-18.71086 89.360467,-30.24466 137.182117,-39.96947 88.71594,-16.46044 176.88459,-15.72316 267.67251,-16.82893 62.29252,-0.33269 123.90012,5.94689 184.72601,15.60668 37.09044,7.20718 74.40286,15.12227 107.5843,30.00535 7.07147,3.58885 14.12238,7.37148 20.05441,12.05368 1.93429,1.52677 3.63542,3.30014 1.86748,3.48372 -17.60561,1.8281 -35.3522,2.74032 -53.0283,4.11047 -17.72737,-5.73886 -31.80767,-16.62367 -45.371,-26.73613 -15.88609,-13.65986 -31.90273,-27.44071 -44.24975,-43.17488 -9.74495,-12.41815 -11.42173,-16.50012 -19.18819,-29.94946 -17.33558,-33.1662 -25.01856,-68.59948 -22.38568,-104.286 0.60711,-8.22942 2.13274,-16.40527 3.19923,-24.6079 9.17807,-44.28281 31.88456,-86.23684 67.93265,-121.80563 7.37238,-7.27432 15.74481,-13.92508 23.61729,-20.88761 34.61071,-27.57338 76.1715,-48.53318 123.15305,-61.67295 31.16612,-8.71651 41.49089,-9.36406 73.95986,-14.44467 66.81066,-5.48148 57.88141,-5.67507 155.54991,-4.46416 21.333,0.26448 51.5709,4.69945 71.8596,9.82437 27.0145,6.82387 34.4773,11.63178 58.3913,22.66107 7.8451,5.11007 16.2371,9.76806 23.535,15.3302 30.0165,22.8769 50.1285,53.38332 60.0632,84.67316 2.6627,8.38614 3.9103,16.99908 5.8655,25.49863 4.9254,35.81316 -0.2918,71.73334 -15.7056,105.8238 -9.4252,20.84501 -15.7542,28.06427 -29.2778,47.40572 -29.7801,35.76241 -68.5108,67.77908 -116.5308,89.5982 -8.292,3.76771 -17.1059,6.82075 -25.659,10.23112 -22.8176,7.72305 -46.7041,12.7433 -71.806,12.51567 -36.95172,-0.3351 -71.28697,7.2598 -101.24664,-8.39221 -4.94629,-2.58412 -8.87582,-6.1499 -13.31375,-9.22485 -16.56445,-15.99479 -24.15016,-35.24147 -20.07482,-55.64726 2.88027,-14.42176 7.9828,-20.67211 15.74583,-34.04204 25.39848,-33.32674 61.59743,-60.94877 103.09269,-82.72941 8.56211,-4.49421 17.56815,-8.47404 26.35229,-12.71106 31.902,-14.33846 66.6673,-24.27479 103.4217,-28.00129 29.8505,-3.02654 86.9231,-1.43923 103.9324,-1.46278 15.5317,1.38543 28.7917,6.69088 42.2062,12.33097 0,0 -60.773,5.86443 -60.773,5.86443 l 0,0 c -14.3144,-5.10243 -28.3426,-9.63991 -44.4921,-10.02328 15.2692,-0.46065 30.5287,-1.20422 45.8076,-1.38193 6.48,-0.0753 -12.9618,0.45651 -19.3928,1.07469 -34.8453,3.34961 -67.6566,12.78983 -97.8758,26.35101 -21.8725,10.42328 -30.7706,14.03777 -51.166,26.30452 -31.39353,18.88156 -59.53856,41.00109 -82.50381,65.97884 -9.01309,12.35486 -14.98498,18.23526 -18.91726,31.98184 -3.93822,13.76739 -1.75775,28.58738 7.53831,40.84643 2.81635,3.71406 6.80523,6.83167 10.20784,10.24751 4.5899,2.61152 8.73398,5.75533 13.76967,7.83456 5.42875,2.24152 23.11889,3.37512 17.32018,5.00233 -14.25679,4.0007 -30.34545,1.34871 -45.39885,2.87701 -6.84151,0.69459 13.84342,0.25325 20.69672,-0.36915 19.98473,-1.81481 27.15119,-4.85839 46.18881,-10.22794 21.22549,-8.78621 28.60729,-11.07769 48.34999,-22.55196 35.1701,-20.44028 65.158,-46.01714 89.2317,-74.20828 14.1725,-19.86418 19.0097,-24.6667 28.6962,-46.15093 14.9773,-33.21903 20.1937,-68.33106 16.6037,-103.27337 -4.5393,-21.0215 -4.7635,-28.35013 -14.4277,-48.3649 -14.3817,-29.78421 -39.0586,-54.56862 -73.7344,-72.17664 -9.5244,-3.91919 -18.6876,-8.39797 -28.5729,-11.75758 -21.9231,-7.45081 -44.26,-12.05186 -67.99247,-14.72792 -12.45603,-1.40452 -42.24176,6.47198 -37.63667,-2.47915 4.81686,-9.36269 38.21498,-11.13316 39.49226,-1.1276 1.27498,9.98779 -26.2056,1.71191 -39.30839,2.56785 -12.66145,1.75663 -25.44919,3.04488 -37.98436,5.26988 -36.42328,6.46515 -72.40492,16.81765 -104.18308,32.03559 -24.54329,11.75331 -34.93267,20.10604 -56.41786,34.7799 -7.90102,6.75043 -16.2909,13.18534 -23.70305,20.25127 -36.28677,34.5917 -59.35306,75.58186 -70.41942,118.90146 -1.39185,8.0446 -3.21714,16.05282 -4.17554,24.13379 -4.10159,34.57836 1.20797,69.37296 16.0268,102.18332 2.65134,5.14606 4.98593,10.39411 7.95373,15.43821 12.17803,20.69721 30.68894,38.72718 49.26898,56.23566 10.66646,9.10581 21.62139,19.56743 36.18258,25.104 -16.5478,1.57342 -33.08515,3.2131 -49.64341,4.72029 -0.53394,0.0487 -1.11576,0.10387 -1.61121,-0.0548 -10.23115,-3.28 -18.59144,-9.8138 -29.194,-12.61132 -37.55921,-12.82456 -77.28195,-21.21495 -117.55631,-27.51664 -62.04287,-8.68358 -124.73456,-14.48762 -187.95488,-14.05846 13.60397,-0.26792 27.2195,-1.28963 40.81163,-0.80386 10.85773,0.38805 -21.73224,0.56444 -32.58093,1.09802 -43.71922,2.15027 -87.33005,6.48673 -130.26419,13.15195 -50.73813,9.36332 -99.94889,20.52778 -147.03908,38.07323 -13.12295,4.50264 -26.205442,8.99051 -38.979694,14.05111 -2.012145,0.79709 -3.943863,1.714 -5.992838,2.45422 -0.437462,0.15801 -1.842368,0.0428 -1.421437,0.22421 0.863464,0.3721 1.949076,0.28212 2.923614,0.42317 -16.614495,0.31503 -33.226237,0.7474 -49.843616,0.94518 -2.374506,0.0285 4.755195,-0.15542 7.101604,-0.43644 21.693442,-2.59826 42.218593,-9.29305 62.513242,-15.35059 59.954965,-18.70927 118.865625,-39.48838 175.129495,-64.07175 17.77389,-7.87229 43.18729,-18.89233 60.48413,-27.47983 32.02886,-15.90161 62.22144,-34.02372 89.23795,-54.66741 15.77049,-11.89035 41.98331,-28.85609 42.94236,-47.421 0.10615,-2.05382 -0.64208,-4.08065 -0.96305,-6.12098 -1.56491,-1.73747 -2.71711,-3.74042 -4.69473,-5.21241 -4.79312,-3.56772 -12.41665,-6.0005 -18.68218,-7.2247 -4.32729,-0.84548 -17.672,-1.22587 -13.23287,-1.61979 10.26565,-0.91098 75.71153,-2.16667 30.98804,-0.67899 -34.49087,3.92281 -68.11791,11.605 -99.31097,23.66782 -21.20542,8.81127 -41.61527,18.63405 -61.76798,28.77885 0,0 -53.36738,-2.86318 -53.36738,-2.86318 z"
           inkscape:connector-curvature="0" />
      </g>
    </g>
  </g>
</svg>
