<?xml version="1.0" encoding="UTF-8" standalone="no"?>
<!-- Created with Inkscape (http://www.inkscape.org/) -->

<svg
   xmlns:dc="http://purl.org/dc/elements/1.1/"
   xmlns:cc="http://creativecommons.org/ns#"
   xmlns:rdf="http://www.w3.org/1999/02/22-rdf-syntax-ns#"
   xmlns:svg="http://www.w3.org/2000/svg"
   xmlns="http://www.w3.org/2000/svg"
   xmlns:sodipodi="http://sodipodi.sourceforge.net/DTD/sodipodi-0.dtd"
   xmlns:inkscape="http://www.inkscape.org/namespaces/inkscape"
   width="1000"
   height="1000"
   id="svg3004"
   version="1.1"
   inkscape:version="0.48.3.1 r9886"
   sodipodi:docname="12.svg">
  <defs
     id="defs5498" />
  <sodipodi:namedview
     inkscape:window-height="722"
     inkscape:window-width="1366"
     inkscape:pageshadow="2"
     inkscape:pageopacity="0.0"
     borderopacity="1.0"
     bordercolor="#666666"
     pagecolor="#ffffff"
     id="base"
     showgrid="false"
     showguides="true"
     inkscape:guide-bbox="true"
     inkscape:zoom="0.32102648"
     inkscape:cx="55.738635"
     inkscape:cy="679.93764"
     inkscape:window-x="0"
     inkscape:window-y="24"
     inkscape:current-layer="g3253"
     inkscape:window-maximized="1">
    <sodipodi:guide
       orientation="horizontal"
       position="854.62555,442.73128"
       id="guide5596" />
    <sodipodi:guide
       orientation="0,1"
       position="854.62555,865.63877"
       id="guide3067" />
    <sodipodi:guide
       orientation="-0.70710678,0.70710678"
       position="-814.97797,1143.1718"
       id="guide3247" />
    <sodipodi:guide
       orientation="1,0"
       position="151.98238,832.59912"
       id="guide3249" />
    <sodipodi:guide
       orientation="1,0"
       position="764.31718,731.27753"
       id="guide3251" />
    <sodipodi:guide
       orientation="0,1"
       position="-70.484581,647.57709"
       id="guide3460" />
  </sodipodi:namedview>
  <metadata
     id="metadata5594">
    <rdf:RDF>
      <cc:Work
         rdf:about="">
        <dc:format>image/svg+xml</dc:format>
        <dc:type
           rdf:resource="http://purl.org/dc/dcmitype/StillImage" />
        <dc:title></dc:title>
      </cc:Work>
    </rdf:RDF>
  </metadata>
  <g
     inkscape:label="Layer 1"
     inkscape:groupmode="layer"
     id="layer1">
    <g
       id="g3631"
       transform="matrix(0.78138664,0,0,0.96429713,145.75357,23.895527)">
      <g
         id="g3253"
         transform="matrix(0.97908453,0.01330834,-0.02069819,0.99985934,-147.93123,-197.17586)">
        <path
           style="fill:#000000;fill-opacity:1;fill-rule:nonzero;stroke:none"
           id="path8150"
           d="m 358.80895,555.67865 c -8.00592,-13.06945 1.03922,-25.10615 10.67463,-35.68509 12.2844,-11.90813 27.9819,-20.72084 46.0208,-26.18987 23.26383,-3.42915 19.84481,-3.27469 63.54815,0.19148 2.31892,0.18393 3.53374,2.43393 5.03957,3.84537 6.65036,6.23369 9.94477,13.70676 13.65791,21.18899 9.29906,19.1729 11.35243,39.73866 7.53649,59.99689 -0.87872,4.66436 -2.2906,9.25559 -3.43583,13.88338 -7.24668,22.80741 -16.20103,46.13826 -32.76274,65.95274 -3.14957,3.76826 -6.93375,7.17726 -10.40056,10.76589 -17.24277,15.39764 -39.2988,28.63402 -65.62848,31.85836 -4.47235,0.5477 -9.03534,0.41877 -13.55301,0.62815 -23.27264,-0.59247 -46.64461,0.027 -69.81804,-1.77742 -4.22685,-0.32914 -7.7894,-2.74695 -11.38159,-4.54512 -19.90244,-9.96283 -32.84842,-25.97323 -45.35723,-41.26904 -20.80496,-29.5613 -33.72192,-62.23484 -34.12612,-96.28051 -0.092,-7.75221 0.92715,-15.48763 1.39086,-23.23146 5.77772,-41.65466 23.50828,-81.39627 49.52341,-117.74578 4.94895,-6.91489 10.50176,-13.54649 15.75265,-20.31975 19.43479,-22.45293 42.3107,-43.31019 70.41512,-59.19394 13.73368,-7.76189 19.21301,-9.47316 33.74829,-15.33945 4.9956,-1.35086 9.86409,-3.04476 14.98667,-4.05258 22.83665,-4.49299 81.71577,-1.1362 84.69674,-0.93377 6.10777,0.41473 21.51225,9.50972 25.39229,12.33549 4.39155,3.19826 8.04736,6.97938 12.0711,10.46907 32.53295,34.7008 46.31401,75.9423 57.98764,117.45112 11.81143,48.1384 10.61792,97.23249 12.29738,146.00172 0.23361,31.1887 6.05898,62.07079 8.91487,93.10192 -0.32245,24.80711 -7.28769,17.45488 -54.60991,14.32873 -1.9447,-0.12846 -6.50852,-7.97641 -8.22258,-10.63078 -11.02167,-16.85858 -18.49992,-35.38181 -22.87998,-54.05067 -3.54526,-15.11028 -4.06546,-25.35374 -5.63464,-40.74279 -2.20397,-40.18559 -1.23892,-81.18497 11.42181,-120.39092 2.68732,-8.32172 6.39798,-16.41399 9.59697,-24.62099 17.56104,-38.5969 44.09109,-74.62885 79.32259,-104.80616 6.07,-5.19917 12.76813,-9.91334 19.15212,-14.87002 15.04359,-9.32372 20.921,-14.08639 37.96031,-20.51607 10.82907,-4.0863 23.67559,-7.24281 35.82337,-7.39849 75.88205,-0.97246 53.89777,-6.77791 90.50154,5.79782 4.6645,2.56758 9.68957,4.76532 13.9935,7.70274 30.78924,21.0135 44.61183,53.31842 57.94175,82.57473 14.6904,38.9876 21.72023,79.74617 22.52035,120.40886 0.15427,7.85402 -0.20434,15.70909 -0.3065,23.56365 -3.12059,36.41819 -14.13998,72.45533 -35.98688,104.76173 -4.0344,5.96592 -8.77462,11.61394 -13.16193,17.4209 -25.30378,29.39485 -61.6294,49.91179 -102.97544,63.07635 -9.28128,2.95517 -18.87576,5.24879 -28.31363,7.87319 -65.54637,14.83147 -133.12125,23.15216 -200.15809,32.55013 -45.37666,6.66988 -90.98687,12.82219 -135.64537,22.18948 -27.92985,5.85836 -31.75516,7.31574 -58.58877,14.61926 -32.86181,11.073 -75.18913,22.05097 -97.92887,45.46684 -3.03928,3.1296 -5.07519,6.79879 -7.61272,10.19819 -6.61553,13.12205 -5.81202,25.52648 5.61659,36.7295 2.66208,2.60956 5.53455,5.14847 8.90677,7.17622 3.96534,2.38442 8.60732,3.96196 12.91105,5.94294 5.39666,1.55061 10.65562,3.44466 16.18997,4.65183 6.15693,1.343 12.44826,2.35334 18.78501,2.97714 6.87536,0.67681 27.67141,0.63909 20.75215,0.91494 -97.93436,3.90434 -29.22889,-0.86997 -19.38742,-2.28911 7.76217,-1.1193 15.35338,-2.88686 23.03001,-4.33028 36.27781,-7.66046 68.82929,-22.56172 101.3731,-36.90452 44.0182,-19.39983 16.71809,-7.42772 62.71064,-27.52224 59.50503,-25.63249 119.05879,-51.43912 181.01938,-73.21226 11.90928,-4.18496 24.01698,-8.00501 36.0254,-12.00752 41.54769,-12.55146 83.84902,-24.85576 128.29529,-28.95716 33.32183,-3.07487 98.06142,-0.87057 117.92192,-0.72743 23.95273,3.7125 48.35824,10.35263 62.15185,27.58076 7.20782,9.00252 7.04503,13.42188 9.55952,23.6297 -0.0511,4.14924 0.49504,8.3303 -0.15323,12.44774 -4.37876,27.81107 -28.86508,45.22806 -54.06087,62.33728 -32.37882,19.08102 -68.93902,33.95968 -107.98327,42.32404 -7.62456,1.63339 -15.41993,2.71538 -23.1299,4.07307 -51.24608,4.19394 -115.94069,11.2434 -162.47945,-12.23231 -4.87009,-2.45663 -9.14582,-5.58632 -13.71872,-8.37948 -9.29919,-8.16686 -14.88362,-11.82908 -20.79654,-22.03985 -7.0179,-12.11878 -8.96277,-27.28628 -5.65819,-40.32933 1.15446,-4.55649 3.63691,-8.83602 5.4553,-13.25403 13.11505,-21.27664 35.97591,-36.74355 65.07718,-42.7755 5.73363,-1.18841 11.68098,-1.59142 17.52135,-2.38712 0,0 61.33502,6.27236 61.33502,6.27236 l 0,0 c -5.91981,0.50126 -11.91618,0.59916 -17.75943,1.50379 -28.98315,4.48701 -50.88629,17.97005 -65.01679,38.25352 -1.82497,4.03269 -4.27584,7.92021 -5.47463,12.09806 -4.87822,17.0006 0.82887,34.63283 14.64657,48.04642 3.48678,3.38462 7.8165,6.16222 11.72469,9.24334 4.7949,2.49253 9.34062,5.31662 14.38459,7.4776 10.6864,4.57837 23.82451,8.21487 35.68237,10.12126 6.75889,1.08663 27.26997,1.00434 20.51666,2.11254 -13.89847,2.28071 -28.34317,1.53348 -42.53567,1.50073 -7.24705,-0.0167 14.43564,-1.0326 21.65345,-1.54891 7.55455,-1.21496 15.1857,-2.16121 22.66362,-3.6449 39.0505,-7.74793 75.15291,-22.29312 108.19722,-40.31075 24.61868,-14.79936 54.57207,-31.60825 59.9321,-57.80449 0.76983,-3.76234 0.14836,-7.6223 0.22254,-11.43346 -2.59728,-9.63042 -2.06477,-12.91894 -9.96677,-20.99406 -16.00135,-16.35196 -43.44455,-20.21444 -67.52727,-23.21402 14.1504,-0.66147 28.31248,-1.18074 42.45118,-1.98441 8.45194,-0.48042 -16.96288,0.30066 -25.38858,1.01455 -42.25185,3.57975 -82.06204,15.91116 -121.28184,28.1693 -74.07677,25.48319 -145.8776,54.70029 -217.19759,84.69446 -84.18199,34.0814 12.57901,-5.18203 -66.62619,27.22132 -27.03457,11.05997 -54.21327,22.75929 -82.74067,31.29154 -8.19672,2.45155 -16.65741,4.30664 -24.98618,6.45996 -7.9918,1.6033 -15.88811,3.54333 -23.97538,4.80988 -33.90099,5.30922 -78.98899,3.99328 -108.52477,3.83509 -11.57777,-0.062 -26.42856,-2.49178 -37.32696,-5.7224 -5.16133,-1.52995 -9.92169,-3.80442 -14.88254,-5.70662 -3.92422,-2.38666 -8.16517,-4.47702 -11.77253,-7.15997 -13.07916,-9.72729 -20.96786,-23.97353 -19.32655,-38.30084 0.43786,-3.82211 2.0326,-7.50437 3.0489,-11.25656 5.51135,-10.10786 6.40804,-13.97184 16.2507,-22.42047 21.14962,-18.15436 51.71759,-27.86009 79.42573,-37.69488 24.62773,-7.40209 30.24763,-9.53115 55.97941,-15.42165 43.89369,-10.04809 89.03758,-16.11098 133.86989,-22.79076 68.16414,-9.40782 136.64654,-18.10614 203.82845,-31.3388 20.63586,-5.2228 36.95925,-8.77158 56.629,-16.02922 31.1794,-11.50436 58.2432,-28.40729 77.96275,-50.83685 4.26294,-5.63125 8.91397,-11.08864 12.78881,-16.89377 21.05091,-31.53761 30.90706,-66.93323 33.17058,-102.36667 -0.65653,-47.8714 -5.34858,-95.89011 -21.48549,-142.23399 -9.64709,-26.2131 -20.98811,-61.29635 -48.67764,-79.70075 -4.00775,-2.66382 -8.81635,-4.46057 -13.22452,-6.69087 -28.13203,-7.29206 -21.12947,-3.90521 29.75791,-5.95119 5.36033,-0.21553 -10.80072,0.14452 -16.0483,1.03861 -19.93455,3.39646 -35.96809,13.33969 -50.69281,23.941 -5.80041,4.82455 -11.86035,9.46077 -17.40138,14.47366 -33.22908,30.06219 -59.14587,65.20199 -76.45666,102.69525 -3.20068,8.02789 -6.85428,15.95082 -9.60218,24.0837 -13.0683,38.67988 -15.59207,79.09295 -15.59518,118.9311 0.52797,12.74476 0.82135,27.35798 2.52962,40.10149 2.42055,18.05613 7.37516,35.94933 12.87768,53.54405 0.62773,2.00586 1.15331,4.03363 1.88345,6.01757 0.4091,1.11156 2.96973,3.07129 1.52886,3.25522 -50.5707,6.4556 -46.03205,13.07551 -53.20303,-9.1902 -11.14644,-30.49565 -18.39879,-61.79217 -20.66248,-93.54299 -3.58139,-48.42079 -4.56586,-97.08502 -14.62534,-145.04931 -9.52646,-39.68649 -19.77619,-80.50606 -47.24211,-115.21305 -8.74798,-8.04305 -10.22562,-10.97133 -21.90601,-15.98018 -3.83732,-1.64557 -16.463,-3.0055 -12.20301,-3.749 14.67144,-2.56054 29.99209,-1.41247 44.99739,-1.97451 4.26514,-0.15976 -8.58779,0.0969 -12.77324,0.76753 -4.53979,0.7274 -8.81227,2.26464 -13.21828,3.39696 -16.72048,7.33337 -32.54459,15.20814 -46.72986,25.51226 -18.76295,13.62917 -34.1358,29.90888 -48.12473,46.66265 -4.91749,6.66554 -10.07793,13.22193 -14.75261,19.99661 -24.82261,35.97399 -43.29088,74.71527 -50.96943,115.39157 -1.77671,18.73722 -3.45881,25.78091 -1.28795,44.43528 2.93114,25.1867 13.59781,49.37868 27.23026,72.06556 8.37063,11.63009 16.37583,23.6946 29.13947,32.79257 3.2087,2.2872 6.69757,4.37344 10.4678,6.03599 3.53049,1.55682 15.21151,2.87335 11.26257,3.54644 -14.80776,2.52393 -30.23122,1.50877 -45.34683,2.26316 4.23701,0.0615 8.4887,0.47119 12.71102,0.18451 25.27418,-1.7161 46.87892,-14.28181 63.40991,-28.66834 3.33761,-3.37492 6.9735,-6.5769 10.01296,-10.12475 16.5422,-19.30917 24.02793,-42.35896 32.38222,-64.40794 6.92787,-24.51452 10.08454,-46.9222 0.79363,-71.44124 -1.89613,-5.2506 -3.07538,-9.5714 -6.14496,-14.42894 -1.02442,-1.62127 -2.14285,-3.25031 -3.68711,-4.58749 -1.15173,-0.99732 -5.93134,-2.12907 -4.23632,-2.2736 26.8819,-2.29229 65.43478,-0.7073 42.23622,-1.59218 -16.76912,5.05727 -31.58702,13.53795 -43.75466,23.95796 -9.62674,9.02232 -19.48931,18.52584 -15.08415,31.06771 0,0 -51.47345,2.34133 -51.47345,2.34133 z"
           inkscape:connector-curvature="0" />
      </g>
    </g>
  </g>
</svg>
