<?xml version="1.0" encoding="UTF-8" standalone="no"?>
<!-- Created with Inkscape (http://www.inkscape.org/) -->

<svg
   xmlns:dc="http://purl.org/dc/elements/1.1/"
   xmlns:cc="http://creativecommons.org/ns#"
   xmlns:rdf="http://www.w3.org/1999/02/22-rdf-syntax-ns#"
   xmlns:svg="http://www.w3.org/2000/svg"
   xmlns="http://www.w3.org/2000/svg"
   xmlns:sodipodi="http://sodipodi.sourceforge.net/DTD/sodipodi-0.dtd"
   xmlns:inkscape="http://www.inkscape.org/namespaces/inkscape"
   width="1000"
   height="1000"
   id="svg3004"
   version="1.1"
   inkscape:version="0.48.3.1 r9886"
   sodipodi:docname="13.svg">
  <defs
     id="defs5498" />
  <sodipodi:namedview
     inkscape:window-height="722"
     inkscape:window-width="1366"
     inkscape:pageshadow="2"
     inkscape:pageopacity="0.0"
     borderopacity="1.0"
     bordercolor="#666666"
     pagecolor="#ffffff"
     id="base"
     showgrid="false"
     showguides="true"
     inkscape:guide-bbox="true"
     inkscape:zoom="0.32102648"
     inkscape:cx="55.738635"
     inkscape:cy="679.93764"
     inkscape:window-x="0"
     inkscape:window-y="24"
     inkscape:current-layer="g3253"
     inkscape:window-maximized="1">
    <sodipodi:guide
       orientation="horizontal"
       position="854.62555,442.73128"
       id="guide5596" />
    <sodipodi:guide
       orientation="0,1"
       position="854.62555,865.63877"
       id="guide3067" />
    <sodipodi:guide
       orientation="-0.70710678,0.70710678"
       position="-814.97797,1143.1718"
       id="guide3247" />
    <sodipodi:guide
       orientation="1,0"
       position="151.98238,832.59912"
       id="guide3249" />
    <sodipodi:guide
       orientation="1,0"
       position="764.31718,731.27753"
       id="guide3251" />
    <sodipodi:guide
       orientation="0,1"
       position="-70.484581,647.57709"
       id="guide3460" />
  </sodipodi:namedview>
  <metadata
     id="metadata5594">
    <rdf:RDF>
      <cc:Work
         rdf:about="">
        <dc:format>image/svg+xml</dc:format>
        <dc:type
           rdf:resource="http://purl.org/dc/dcmitype/StillImage" />
        <dc:title></dc:title>
      </cc:Work>
    </rdf:RDF>
  </metadata>
  <g
     inkscape:label="Layer 1"
     inkscape:groupmode="layer"
     id="layer1">
    <g
       id="g3631"
       transform="matrix(0.78138664,0,0,0.96429713,145.75357,23.895527)">
      <g
         id="g3253"
         transform="matrix(0.97908453,0.01330834,-0.02069819,0.99985934,-147.93123,-197.17586)">
        <path
           style="fill:#000000;fill-opacity:1;fill-rule:nonzero;stroke:none"
           id="path8309"
           d="M 78.308345,748.99944 C 63.61858,738.19201 53.04319,724.98398 43.87534,710.99869 29.00982,684.9952 22.53135,656.5587 16.899068,628.53464 c -6.43064,-32.94447 -6.662163,-66.53225 -0.02986,-99.47526 1.526784,-7.58313 3.680488,-15.07834 5.520732,-22.61752 11.288945,-39.01309 31.28089,-76.03806 60.394925,-108.7921 5.65192,-6.35857 11.95804,-12.33475 17.936995,-18.50213 28.02228,-24.59208 58.89939,-48.9264 97.84575,-62.35892 6.58756,-2.27204 13.53569,-3.81901 20.30354,-5.72851 6.87637,-1.1546 13.67137,-2.67365 20.62912,-3.46378 6.87377,-0.7806 13.8295,-1.17938 20.77291,-1.23793 32.39028,-0.2731 70.47074,-3.98701 103.5441,3.71352 18.33092,4.26802 21.98307,6.95463 38.47896,14.44865 45.94486,25.4713 66.00685,59.10432 87.03991,98.90193 18.84538,40.94223 27.14756,84.38544 26.53392,127.91263 -0.11727,8.31802 -0.95306,16.61989 -1.42958,24.92985 -4.14964,34.992 -13.11312,70.44025 -35.81784,101.09908 -3.69535,4.98993 -8.12552,9.61348 -12.18828,14.42023 -10.54137,10.86318 -22.60357,21.0283 -38.34405,27.17077 -3.79318,1.48022 -7.7188,3.15223 -11.93406,3.40295 -64.1772,3.81705 -48.02808,7.62935 -78.98586,-2.40551 -25.02841,-12.30643 -40.59995,-32.26936 -50.58956,-53.83879 -2.67353,-5.77263 -4.63547,-11.73736 -6.9532,-17.60604 -10.33931,-37.07063 -12.14819,-75.64078 -6.34743,-113.32961 1.35575,-8.80855 3.57568,-17.51975 5.36351,-26.27962 11.83904,-42.76617 34.31652,-83.28001 68.20504,-117.96604 6.0233,-6.16506 12.73762,-11.88481 19.10642,-17.82722 29.27273,-23.69682 62.57854,-46.3349 102.68442,-57.51686 6.56977,-1.83171 13.44551,-2.88085 20.16827,-4.32128 38.50417,-2.95443 80.88324,-9.78166 116.67139,4.29144 20.75183,8.1603 30.15981,18.51803 43.59251,32.74255 31.14896,40.25342 38.02353,87.33669 42.94195,133.42533 4.06687,49.95229 2.36361,100.04686 7.02316,149.96366 4.97586,34.23834 11.67151,68.73953 25.12073,101.60375 3.26843,5.48606 7.25163,13.53826 16.36452,14.41903 1.89115,0.18279 7.54032,-0.68162 5.63704,-0.74848 -48.17418,-1.69235 -58.71898,8.08284 -42.43852,-4.35544 15.57511,-18.27134 23.52452,-39.48847 30.85554,-60.52126 8.77513,-31.96062 16.14793,-64.17285 26.08218,-95.92495 7.71831,-19.73361 11.63158,-40.04192 15.66853,-60.37116 6.97608,-21.50953 18.68352,-14.44145 58.06671,-11.75012 0.64902,0.0444 2.41625,6.27612 3.4422,9.64384 4.94046,22.56113 14.01242,44.31885 23.00293,66.01945 9.61033,25.70383 20.08752,51.34136 36.95342,74.72426 3.37746,4.68254 7.2092,9.14933 10.8138,13.72399 19.19216,22.94177 46.13382,40.40289 78.1577,51.05179 6.51767,2.16732 13.33934,3.70675 20.00904,5.56014 -14.72026,3.71778 55.2021,4.20235 41.3076,4.89623 -14.2384,0.71106 -28.7344,1.69318 -42.7991,-0.20483 -6.71479,-0.90616 13.5351,-1.45733 20.1141,-2.85649 17.6229,-3.74791 22.2606,-6.80188 38.2282,-13.79134 35.2688,-18.55459 60.6181,-45.44348 79.2161,-75.27629 4.0382,-6.47768 7.4667,-13.18363 11.2001,-19.77544 14.213,-28.83775 23.5243,-59.28152 23.3008,-90.40466 -0.1439,-20.03278 -2.7587,-28.86842 -6.5368,-48.57542 -9.8233,-37.44773 -32.4281,-72.00784 -64.0535,-100.85297 -6.1305,-5.59153 -12.988,-10.65375 -19.4821,-15.98062 -27.0727,-19.2311 -58.7208,-34.06865 -92.50967,-44.60356 -18.66693,-5.82013 -25.63041,-6.79655 -44.66593,-10.73012 16.16473,-2.77192 -56.63826,-2.88128 -42.43835,-2.95916 14.45956,-0.0793 29.0618,-1.29468 43.37894,0.313 6.17468,0.69335 -12.36005,1.39997 -18.4451,2.48681 -14.30986,2.55639 -16.97482,3.96709 -30.02522,8.34824 -3.88288,1.76378 -7.76576,3.52756 -11.64866,5.29134 0,0 -58.26315,-3.94954 -58.26315,-3.94954 l 0,0 c 3.53354,-1.98827 7.06707,-3.97655 10.60061,-5.96483 11.12642,-4.62726 15.21649,-6.84951 27.57289,-9.75585 32.33403,-7.60528 67.20508,-4.92136 100.23946,-5.31015 7.22537,-0.0851 14.46564,0.28389 21.64771,0.91608 7.51987,0.66192 14.92617,1.97344 22.38927,2.96017 7.6785,1.582 15.4439,2.91894 23.0354,4.74599 43.9293,10.57237 84.6642,28.31545 118.2945,53.20152 6.4692,5.50752 13.2504,10.79433 19.4077,16.52255 24.9646,23.22485 46.4425,50.67812 58.6531,79.75223 3.273,7.79336 5.2079,15.90121 7.8119,23.85181 4.2438,21.94977 6.4396,27.42838 6.1902,49.76724 -0.3564,31.93408 -10.1966,63.03899 -25.4619,92.44175 -3.9014,6.72082 -7.5064,13.55504 -11.7041,20.16248 -19.642,30.91741 -46.0113,59.01234 -82.979,78.06004 -15.4916,6.98473 -22.5693,11.07824 -39.5403,15.28866 -6.6204,1.64249 -13.3935,3.23169 -20.3167,3.57178 -44.6095,2.19134 -83.70144,5.0955 -125.49118,-4.62642 -6.63297,-2.05778 -13.42308,-3.82352 -19.90013,-6.17334 -32.27516,-11.70919 -58.88824,-30.27637 -78.18877,-53.85043 -3.56107,-4.69944 -7.32056,-9.30775 -10.68323,-14.09835 -16.65001,-23.72022 -27.94465,-49.43337 -36.09765,-75.73687 -7.02356,-21.97643 -15.14549,-44.21777 -13.68917,-67.12572 0.13228,-1.51702 0.3533,-3.0308 0.39684,-4.55105 0.01,-0.35052 -0.6774,-1.00809 -0.23683,-1.03492 58.90016,-3.58727 48.61635,-13.57006 46.5234,6.35234 -0.12287,7.87839 0.32274,15.76102 -0.30842,23.63249 -1.01128,12.6163 -3.9793,25.0187 -7.18074,37.38238 -8.30481,32.2034 -14.83499,64.76568 -26.99548,96.26428 -9.08586,22.12672 -19.48597,44.43326 -38.62299,62.48059 -18.76357,16.36091 -4.5086,6.23597 -64.45787,8.8677 -4.75008,0.20852 -10.50489,-1.98032 -14.11983,-4.06227 -8.29861,-4.7794 -9.18927,-7.25547 -15.1462,-14.20534 -2.35917,-3.78146 -4.99677,-7.46138 -7.07753,-11.34439 -15.54091,-29.00168 -21.46032,-60.64064 -27.64735,-91.51878 -6.33596,-49.87269 -8.63989,-99.89337 -10.8254,-149.97461 -3.45281,-44.5277 -5.78499,-90.83033 -33.76125,-130.732 -12.34435,-13.64935 -20.5325,-23.17861 -40.91683,-29.85051 -5.53373,-1.8112 -22.98264,-2.57131 -17.25432,-3.94992 13.8527,-3.33385 28.88456,-1.56389 43.32858,-2.32524 6.04178,-0.31845 -12.08121,0.66441 -18.1218,0.9966 -6.3828,1.20102 -12.92469,1.95828 -19.14837,3.60305 -38.46303,10.16489 -69.28697,32.95516 -97.07503,55.35896 -16.14157,15.60319 -21.25039,19.52825 -34.90146,36.94416 -23.11992,29.49612 -38.51176,62.37492 -49.0644,95.96616 -2.09209,8.61772 -4.55016,17.18455 -6.2763,25.85316 -7.32341,36.77802 -8.28177,74.6738 -0.57268,111.43488 1.70603,5.70762 3.03352,11.49494 5.11813,17.12285 6.11,16.49551 16.51403,33.87186 33.64987,45.02929 3.13222,2.03944 6.84598,3.4405 10.26897,5.16076 21.55631,4.70253 29.85348,5.59665 -34.89228,3.71456 -3.56769,-0.10371 7.04032,-1.20519 10.26914,-2.41383 14.17622,-5.30653 23.95008,-15.50573 32.7772,-25.31808 3.62009,-4.61219 7.63165,-9.04487 10.86025,-13.83657 20.45578,-30.35929 27.885,-64.81354 29.80598,-98.8357 0.15055,-8.18789 0.59929,-16.37575 0.45163,-24.56368 -0.7689,-42.63821 -7.51691,-85.36505 -24.18187,-126.01224 -18.51046,-39.10623 -35.22377,-71.46529 -80.5982,-95.66055 -16.36108,-6.88092 -19.66913,-9.26644 -37.71758,-12.91831 -6.54898,-1.3251 -26.53265,-1.45274 -19.97623,-2.75446 13.86282,-2.75235 28.55541,-1.00116 42.81191,-1.77937 13.65761,-0.74551 -54.93189,1.13142 -40.84957,3.36917 -6.60247,1.67016 -13.39698,2.92173 -19.80741,5.01047 -37.44728,12.20165 -65.95885,36.89593 -92.25622,60.32443 -5.89017,6.01354 -12.11615,11.82911 -17.67052,18.04062 -28.73812,32.13878 -48.10398,68.76535 -60.730625,106.73429 -2.080855,7.42303 -4.43258,14.8015 -6.242575,22.26909 -7.833575,32.31801 -9.88312,65.31777 -5.37352,98.0527 4.1842,27.38394 9.72018,55.00713 20.88819,81.19224 7.56615,13.71582 17.12041,24.9027 28.35579,36.82688 0,0 -51.631425,3.91669 -51.631425,3.91669 z"
           inkscape:connector-curvature="0" />
      </g>
    </g>
  </g>
</svg>
