<?xml version="1.0" encoding="UTF-8" standalone="no"?>
<!-- Created with Inkscape (http://www.inkscape.org/) -->

<svg
   xmlns:dc="http://purl.org/dc/elements/1.1/"
   xmlns:cc="http://creativecommons.org/ns#"
   xmlns:rdf="http://www.w3.org/1999/02/22-rdf-syntax-ns#"
   xmlns:svg="http://www.w3.org/2000/svg"
   xmlns="http://www.w3.org/2000/svg"
   xmlns:sodipodi="http://sodipodi.sourceforge.net/DTD/sodipodi-0.dtd"
   xmlns:inkscape="http://www.inkscape.org/namespaces/inkscape"
   width="1000"
   height="1000"
   id="svg3004"
   version="1.1"
   inkscape:version="0.48.3.1 r9886"
   sodipodi:docname="14.svg">
  <defs
     id="defs5498" />
  <sodipodi:namedview
     inkscape:window-height="722"
     inkscape:window-width="1366"
     inkscape:pageshadow="2"
     inkscape:pageopacity="0.0"
     borderopacity="1.0"
     bordercolor="#666666"
     pagecolor="#ffffff"
     id="base"
     showgrid="false"
     showguides="true"
     inkscape:guide-bbox="true"
     inkscape:zoom="0.32102648"
     inkscape:cx="55.738635"
     inkscape:cy="679.93764"
     inkscape:window-x="0"
     inkscape:window-y="24"
     inkscape:current-layer="g3253"
     inkscape:window-maximized="1">
    <sodipodi:guide
       orientation="horizontal"
       position="854.62555,442.73128"
       id="guide5596" />
    <sodipodi:guide
       orientation="0,1"
       position="854.62555,865.63877"
       id="guide3067" />
    <sodipodi:guide
       orientation="-0.70710678,0.70710678"
       position="-814.97797,1143.1718"
       id="guide3247" />
    <sodipodi:guide
       orientation="1,0"
       position="151.98238,832.59912"
       id="guide3249" />
    <sodipodi:guide
       orientation="1,0"
       position="764.31718,731.27753"
       id="guide3251" />
    <sodipodi:guide
       orientation="0,1"
       position="-70.484581,647.57709"
       id="guide3460" />
  </sodipodi:namedview>
  <metadata
     id="metadata5594">
    <rdf:RDF>
      <cc:Work
         rdf:about="">
        <dc:format>image/svg+xml</dc:format>
        <dc:type
           rdf:resource="http://purl.org/dc/dcmitype/StillImage" />
        <dc:title></dc:title>
      </cc:Work>
    </rdf:RDF>
  </metadata>
  <g
     inkscape:label="Layer 1"
     inkscape:groupmode="layer"
     id="layer1">
    <g
       id="g3631"
       transform="matrix(0.78138664,0,0,0.96429713,145.75357,23.895527)">
      <g
         id="g3253"
         transform="matrix(0.97908453,0.01330834,-0.02069819,0.99985934,-147.93123,-197.17586)">
        <path
           style="fill:#000000;fill-opacity:1;fill-rule:nonzero;stroke:none"
           id="path8480"
           d="m 231.42649,536.91234 c 10.25698,-2.35955 20.77616,-4.20625 31.51599,-4.21648 69.48876,-0.0662 46.69132,-5.19389 78.89281,3.52045 19.84018,7.53139 35.19408,20.12637 45.61916,35.42539 2.36082,3.46452 4.18722,7.14209 6.28077,10.71314 10.44052,21.48291 12.39502,44.66168 4.53103,66.91484 -1.70015,4.81098 -4.12801,9.44101 -6.19202,14.16153 -12.75943,25.78194 -32.91944,48.91336 -59.41599,67.03501 -5.20548,3.56023 -10.87204,6.67269 -16.30799,10.00903 -19.84542,10.60322 -42.71024,17.999 -66.97351,18.20573 -74.50103,0.63479 -51.62855,5.01503 -89.13077,-4.19986 -29.51436,-9.48903 -52.79232,-27.0662 -68.761996,-48.81207 -3.577963,-4.87209 -6.348648,-10.09026 -9.522972,-15.13539 -11.503899,-21.88074 -20.28407,-44.78972 -23.59131,-68.4264 -2.060647,-14.72707 -1.642872,-24.58181 -1.773814,-39.46289 1.248463,-38.83387 11.838524,-76.97346 30.382304,-112.8969 3.860746,-7.47908 8.392313,-14.72891 12.588404,-22.09336 17.670624,-27.42654 38.998134,-53.5637 64.688194,-76.73024 15.11464,-13.63006 20.70486,-16.92169 37.4634,-28.84812 26.47507,-17.49312 56.96675,-32.37753 91.38954,-37.26641 5.59712,-0.79493 11.30755,-0.96009 16.9614,-1.44013 23.33213,0.0184 64.50463,-4.07756 93.03364,2.78166 16.2687,3.9115 31.76839,11.56232 44.1302,20.73944 4.55887,3.38443 8.42663,7.31108 12.64002,10.96661 31.04177,30.22336 46.67679,67.56102 60.493,104.38726 16.2034,47.10262 18.49646,95.90485 17.72296,144.41917 -1.03765,37.94262 -1.85734,75.91268 -5.84184,113.74561 -1.59173,10.40929 -3.64181,20.77831 -6.70223,30.98342 -1.1562,3.8552 -1.93224,8.04117 -5.41499,11.00525 -16.95565,-0.16144 -34.01535,1.0127 -50.86695,-0.48432 -1.8063,-0.16046 -1.07838,-2.75784 -1.47413,-4.16541 -3.31157,-11.77843 -3.76588,-24.13649 -4.91012,-36.11876 -3.61583,-34.01688 0.23267,-68.06249 6.46338,-101.71917 8.24019,-37.62968 20.62541,-74.75687 38.42216,-110.27909 3.78841,-7.56169 8.05922,-14.96556 12.08877,-22.44833 18.30611,-31.52889 41.53047,-61.67432 71.03467,-87.45792 4.49294,-3.92635 9.38408,-7.55379 14.07607,-11.33068 20.17782,-14.406 43.42069,-27.28448 70.46131,-31.82423 4.92452,-0.82676 9.98159,-1.03865 14.9724,-1.55797 24.45056,0.11093 48.95159,-0.91805 73.35169,0.33277 4.84856,0.24856 9.2566,2.42516 13.61718,4.12552 21.59059,8.41902 37.42465,23.29464 52.69264,37.52042 33.71369,34.77783 43.18665,71.28871 51.339,113.59914 4.4632,30.87781 5.02876,62.04476 -1.15356,92.80177 -3.65936,18.20536 -6.57786,25.11714 -12.50631,42.7727 -9.93194,23.56174 -21.01032,47.18749 -37.53149,68.43144 -8.36897,10.76135 -11.95004,13.58688 -21.78252,23.04218 -8.68582,6.37962 -12.1611,9.84065 -22.4911,14.16591 -6.75503,2.82838 -14.013,4.52921 -21.69817,4.46639 -67.6189,-0.55268 -47.58967,6.61418 -76.89864,-6.28346 -30.26785,-17.74295 -40.69367,-42.50359 -50.10104,-70.23835 -11.60151,-40.42603 -5.69098,-79.68499 3.75095,-119.86315 10.9711,-38.26331 29.6697,-75.06217 55.82491,-108.41368 5.18064,-6.60603 11.01571,-12.87441 16.52356,-19.31163 28.76063,-30.92356 66.03506,-55.79541 109.20993,-73.20338 8.14694,-3.28482 16.66576,-5.95336 24.99864,-8.93004 31.08453,-10.157 63.97123,-16.22026 97.68015,-16.3215 88.74664,-0.26653 60.39834,-3.90568 109.03694,4.40598 37.6494,9.05694 69.5394,28.27319 93.2811,53.03534 5.4455,5.67953 10.07,11.82638 15.105,17.73958 27.3143,36.59643 41.0876,78.11096 46.2402,120.22387 1.1058,9.03738 1.4302,18.12424 2.1452,27.18637 1.0753,45.94998 -5.5598,92.02276 -20.9072,136.38115 -3.0989,8.95672 -6.9097,17.74871 -10.3646,26.62306 -16.9292,38.87324 -38.0348,77.80133 -70.4299,110.34105 -5.084,5.1067 -10.8578,9.75613 -16.2867,14.6342 -13.723,11.36185 -29.1303,21.48844 -46.4587,29.2277 -4.4194,1.97381 -9.1345,3.49828 -13.7018,5.24741 0,0 -58.93911,-4.4809 -58.93911,-4.4809 l 0,0 c 20.21035,-8.3872 38.44441,-18.72662 53.05401,-32.87145 4.7471,-4.71928 9.8289,-9.2383 14.2413,-14.15783 29.3919,-32.77027 47.6673,-71.15457 64.2325,-108.81617 8.8338,-22.69998 12.2807,-29.84853 18.6662,-53.12538 9.7069,-35.38418 14.311,-71.56267 13.1941,-107.77372 -1.5047,-21.3726 -1.596,-32.03116 -5.6977,-53.18457 -6.1629,-31.78394 -17.5221,-63.13751 -36.8762,-91.48979 -4.6481,-5.718 -8.8517,-11.6795 -13.9442,-17.154 -23.3578,-25.11003 -52.7729,-41.82164 -90.82602,-49.73242 -39.12361,-5.50543 -22.79122,-1.82016 20.56302,-5.07636 7.708,-0.57892 -15.49844,0.0732 -23.21609,0.56358 -17.6422,1.12101 -30.03983,3.08653 -47.06091,7.17251 -8.29919,1.99226 -16.36189,4.55892 -24.54284,6.83838 -8.10242,2.82339 -16.38397,5.34309 -24.30729,8.47018 -42.39572,16.73229 -79.6628,40.61467 -108.08528,70.70696 -5.39826,6.29112 -11.12828,12.41084 -16.19476,18.87335 -25.83008,32.94725 -44.55096,69.20736 -57.12213,106.6315 -10.64562,39.17235 -17.76432,77.63413 -8.76828,117.59211 7.21145,24.86229 14.77196,51.11895 42.76403,66.59445 24.15287,8.82477 11.16091,2.59107 -35.82216,5.82079 -3.43538,0.23615 6.92465,0.54605 10.34219,0.1817 12.34109,-1.31571 20.83508,-8.57332 29.17996,-15.14424 9.08029,-9.98581 10.61859,-11.09932 18.49015,-22.32779 14.79959,-21.11101 24.30668,-44.18994 33.04369,-67.23611 4.82656,-15.67771 8.47725,-25.96008 11.43239,-42.02108 5.566,-30.25071 4.23524,-61.06338 1.13426,-91.42334 -6.14529,-39.64152 -14.68018,-77.75035 -44.66217,-110.99909 -13.42011,-13.52397 -27.71059,-28.37541 -48.50253,-35.1422 -4.34382,-1.41371 -18.16132,-2.32246 -13.55411,-3.03955 14.55607,-2.26557 29.62968,-1.17892 44.44452,-1.76838 -4.83897,0.28055 -9.72445,0.24097 -14.51692,0.84162 -26.02491,3.26175 -48.82669,14.86732 -67.23545,29.33188 -4.12631,3.67036 -8.44662,7.20902 -12.37895,11.01111 -26.80073,25.91316 -47.04429,55.77631 -64.42168,86.17467 -22.51138,42.60783 -43.41789,85.87114 -54.4898,131.41583 -8.17836,33.28939 -13.40719,66.87652 -13.46984,100.85039 -0.69061,10.12501 -1.36264,20.23213 -2.57319,30.32762 -0.21713,1.81117 -0.45323,3.62096 -0.70518,5.42928 -0.12077,0.86592 0.67746,2.49095 -0.413,2.59297 -16.24746,1.5201 -32.67539,1.35421 -49.01322,2.03132 -1.66516,-1.02765 -0.94063,-8.98567 -0.9423,-9.67027 -0.0245,-10.19726 0.31883,-20.3908 0.24062,-30.58845 -0.54864,-37.81783 -1.35768,-75.62991 -1.63791,-113.45113 -1.3215,-47.9249 -3.33346,-96.07422 -17.13316,-142.98314 -11.16935,-35.88901 -23.90673,-72.53294 -52.86197,-102.26801 -4.03255,-3.41198 -7.75034,-7.07668 -12.0978,-10.23594 -12.27814,-8.92261 -26.84379,-15.30109 -43.01665,-18.49401 -5.30563,-1.04747 -21.56763,-1.42086 -16.17742,-2.14767 14.42107,-1.94453 29.22545,-1.05472 43.83804,-1.58208 -5.42154,0.25882 -10.88875,0.16297 -16.26488,0.77646 -32.69208,3.73046 -61.33658,18.2735 -85.80391,35.08089 -15.60828,11.58594 -21.08622,15.04466 -35.26886,28.13182 -24.78936,22.87463 -45.4371,48.56412 -62.71671,75.37653 -4.08627,7.24775 -8.42706,14.40851 -12.25896,21.74324 -18.49143,35.39494 -31.2881,72.64086 -34.25,110.99528 -0.75854,15.41956 -1.81122,23.36785 -0.0489,38.614 2.6638,23.04584 10.98235,45.549 21.97389,66.88731 3.01332,4.83031 5.63386,9.82781 9.03983,14.49093 14.9304,20.44111 36.34273,37.6217 64.66945,45.69515 28.6563,5.67713 20.25552,2.82301 -29.96536,4.69249 -5.06201,0.18844 10.15229,-0.19487 15.17526,-0.72703 17.55458,-1.85995 33.58825,-6.9081 48.10831,-14.96003 13.76049,-8.29884 18.7303,-10.67193 30.94895,-20.60793 19.08056,-15.51583 34.51993,-33.87413 45.79304,-53.5717 2.21227,-4.51474 4.77707,-8.93048 6.63681,-13.54424 8.47041,-21.01399 7.12213,-43.08074 -1.83502,-63.81952 -1.87717,-3.37083 -3.45704,-6.85606 -5.63125,-10.1125 -9.73177,-14.57511 -24.28598,-26.13748 -43.70591,-32.26447 -26.10662,-5.35437 -12.1939,-1.60539 34.15692,-3.73857 3.78526,-0.17421 -7.58905,-0.21978 -11.37498,-0.053 -2.18176,0.0961 -16.66308,1.66421 -19.41788,2.02045 -2.16037,0.27938 -4.29852,0.65815 -6.44778,0.98722 0,0 -50.62317,-4.9981 -50.62317,-4.9981 z"
           inkscape:connector-curvature="0" />
      </g>
    </g>
  </g>
</svg>
