<?xml version="1.0" encoding="UTF-8" standalone="no"?>
<!-- Created with Inkscape (http://www.inkscape.org/) -->

<svg
   xmlns:dc="http://purl.org/dc/elements/1.1/"
   xmlns:cc="http://creativecommons.org/ns#"
   xmlns:rdf="http://www.w3.org/1999/02/22-rdf-syntax-ns#"
   xmlns:svg="http://www.w3.org/2000/svg"
   xmlns="http://www.w3.org/2000/svg"
   xmlns:sodipodi="http://sodipodi.sourceforge.net/DTD/sodipodi-0.dtd"
   xmlns:inkscape="http://www.inkscape.org/namespaces/inkscape"
   width="1000"
   height="1000"
   id="svg3004"
   version="1.1"
   inkscape:version="0.48.3.1 r9886"
   sodipodi:docname="15.svg">
  <defs
     id="defs5498" />
  <sodipodi:namedview
     inkscape:window-height="722"
     inkscape:window-width="1366"
     inkscape:pageshadow="2"
     inkscape:pageopacity="0.0"
     borderopacity="1.0"
     bordercolor="#666666"
     pagecolor="#ffffff"
     id="base"
     showgrid="false"
     showguides="true"
     inkscape:guide-bbox="true"
     inkscape:zoom="0.32102648"
     inkscape:cx="55.738635"
     inkscape:cy="679.93764"
     inkscape:window-x="0"
     inkscape:window-y="24"
     inkscape:current-layer="g3253"
     inkscape:window-maximized="1">
    <sodipodi:guide
       orientation="horizontal"
       position="854.62555,442.73128"
       id="guide5596" />
    <sodipodi:guide
       orientation="0,1"
       position="854.62555,865.63877"
       id="guide3067" />
    <sodipodi:guide
       orientation="-0.70710678,0.70710678"
       position="-814.97797,1143.1718"
       id="guide3247" />
    <sodipodi:guide
       orientation="1,0"
       position="151.98238,832.59912"
       id="guide3249" />
    <sodipodi:guide
       orientation="1,0"
       position="764.31718,731.27753"
       id="guide3251" />
    <sodipodi:guide
       orientation="0,1"
       position="-70.484581,647.57709"
       id="guide3460" />
  </sodipodi:namedview>
  <metadata
     id="metadata5594">
    <rdf:RDF>
      <cc:Work
         rdf:about="">
        <dc:format>image/svg+xml</dc:format>
        <dc:type
           rdf:resource="http://purl.org/dc/dcmitype/StillImage" />
        <dc:title></dc:title>
      </cc:Work>
    </rdf:RDF>
  </metadata>
  <g
     inkscape:label="Layer 1"
     inkscape:groupmode="layer"
     id="layer1">
    <g
       id="g3631"
       transform="matrix(0.78138664,0,0,0.96429713,145.75357,23.895527)">
      <g
         id="g3253"
         transform="matrix(0.97908453,0.01330834,-0.02069819,0.99985934,-147.93123,-197.17586)">
        <path
           style="fill:#000000;fill-opacity:1;fill-rule:nonzero;stroke:none"
           id="path8547"
           d="m 706.99754,396.07694 c -0.93915,-2.09686 -1.9519,-4.17384 -2.81741,-6.29056 -2.92864,-7.16223 -3.15089,-9.54488 -6.99775,-16.72805 -5.49944,-10.26898 -12.86609,-19.28624 -21.0166,-28.30798 -19.26923,-17.44689 -44.33372,-30.05487 -72.63817,-36.1155 -6.47939,-1.38739 -13.15736,-2.10574 -19.73604,-3.15861 -54.78478,-1.37426 18.35721,-1.6529 27.45036,-0.80102 6.81994,0.63892 -13.62719,1.4044 -20.37814,2.40328 -22.33061,3.30404 -35.172,7.48944 -55.22208,15.47413 -22.31038,11.60703 -41.10675,28.37339 -48.40913,49.16518 -1.25288,3.56748 -1.70565,7.28218 -2.55847,10.92327 -1.08125,29.72469 23.97407,45.28262 51.11122,62.01318 24.18878,13.2448 50.24945,24.06221 75.53491,35.86677 8.56144,3.99692 33.33748,16.23047 41.65536,20.31947 34.49908,17.47546 69.09644,36.26173 95.39192,61.53271 5.05699,4.86 9.44304,10.1361 14.16456,15.2041 15.07371,19.7645 27.34676,41.733 28.07265,65.2499 0.42683,13.8272 -2.27345,19.2401 -6.16538,32.5568 -12.06632,27.4179 -36.70604,49.3631 -69.24901,62.7332 -6.81806,2.8012 -14.13623,4.7582 -21.20435,7.1373 -47.70798,11.3411 -94.27365,9.0602 -144.83153,8.3966 -8.89187,-0.1167 -17.7345,-1.2913 -26.48466,-2.5514 -23.12269,-3.3299 -29.89378,-6.0856 -51.97287,-12.3822 -42.19491,-15.3097 -75.98566,-40.4348 -98.31187,-72.6972 -3.89386,-5.6267 -6.92578,-11.6029 -10.38875,-17.4042 -9.77007,-22.0853 -16.69867,-47.1476 -7.72766,-70.2688 1.07654,-2.7744 2.85914,-5.3443 4.28871,-8.0165 4.46031,-6.7817 10.30702,-9.5321 19.02056,-11.7802 0,0 58.35268,5.7927 58.35268,5.7927 l 0,0 c -7.97591,0.094 -12.1558,0.7851 -16.09893,6.9195 -0.82485,2.343 -2.00995,4.6243 -2.47467,7.0288 -4.40308,22.7823 5.35193,46.1008 16.04321,66.7964 3.83572,5.5731 7.30737,11.314 11.50686,16.7194 23.7326,30.5489 56.96473,54.7088 98.76145,68.8239 22.34498,5.9365 27.90016,8.24 51.21425,11.1544 8.56778,1.071 34.36553,0.5879 25.89124,2.0541 -14.98468,2.5928 -30.64591,1.7932 -45.97544,1.4211 -16.46296,-0.3998 63.70451,-2.4886 48.85726,-5.8577 7.19635,-2.0779 14.6147,-3.7238 21.58902,-6.2333 25.35934,-9.1251 48.646,-24.3555 62.37059,-43.7843 3.25271,-4.6047 5.40037,-9.6486 8.10056,-14.4729 4.02918,-12.657 6.77013,-17.3272 6.01519,-30.5326 -1.30393,-22.8083 -14.70269,-43.6154 -30.18394,-62.2604 -12.40148,-12.3914 -16.65735,-17.5032 -31.19334,-28.5283 -23.61551,-17.91157 -51.46377,-32.08994 -78.7316,-46.13989 -37.90079,-19.02739 -77.15349,-36.42771 -113.59999,-57.20433 -28.52252,-19.45668 -48.54998,-36.11482 -47.86317,-67.74259 0.8543,-3.90542 1.37896,-7.86546 2.56321,-11.7163 6.6708,-21.69222 22.94652,-40.03512 45.4849,-53.20918 14.73213,-6.70652 18.26546,-9.08009 34.67537,-13.38842 47.47996,-12.46566 99.67181,-10.87734 148.71794,-6.83144 6.46067,1.30924 13.04471,2.28207 19.38201,3.92771 27.91709,7.24936 51.62649,21.29124 69.52536,39.6213 13.36781,16.22398 24.59402,33.90568 23.5716,53.84536 0,0 -57.082,1.32331 -57.082,1.32331 z"
           inkscape:connector-curvature="0" />
      </g>
    </g>
  </g>
</svg>
