<?xml version="1.0" encoding="UTF-8" standalone="no"?>
<!-- Created with Inkscape (http://www.inkscape.org/) -->

<svg
   xmlns:dc="http://purl.org/dc/elements/1.1/"
   xmlns:cc="http://creativecommons.org/ns#"
   xmlns:rdf="http://www.w3.org/1999/02/22-rdf-syntax-ns#"
   xmlns:svg="http://www.w3.org/2000/svg"
   xmlns="http://www.w3.org/2000/svg"
   xmlns:sodipodi="http://sodipodi.sourceforge.net/DTD/sodipodi-0.dtd"
   xmlns:inkscape="http://www.inkscape.org/namespaces/inkscape"
   width="1000"
   height="1000"
   id="svg3004"
   version="1.1"
   inkscape:version="0.48.3.1 r9886"
   sodipodi:docname="16.svg">
  <defs
     id="defs5498" />
  <sodipodi:namedview
     inkscape:window-height="722"
     inkscape:window-width="1366"
     inkscape:pageshadow="2"
     inkscape:pageopacity="0.0"
     borderopacity="1.0"
     bordercolor="#666666"
     pagecolor="#ffffff"
     id="base"
     showgrid="false"
     showguides="true"
     inkscape:guide-bbox="true"
     inkscape:zoom="0.32102648"
     inkscape:cx="55.738635"
     inkscape:cy="679.93764"
     inkscape:window-x="0"
     inkscape:window-y="24"
     inkscape:current-layer="g3253"
     inkscape:window-maximized="1">
    <sodipodi:guide
       orientation="horizontal"
       position="854.62555,442.73128"
       id="guide5596" />
    <sodipodi:guide
       orientation="0,1"
       position="854.62555,865.63877"
       id="guide3067" />
    <sodipodi:guide
       orientation="-0.70710678,0.70710678"
       position="-814.97797,1143.1718"
       id="guide3247" />
    <sodipodi:guide
       orientation="1,0"
       position="151.98238,832.59912"
       id="guide3249" />
    <sodipodi:guide
       orientation="1,0"
       position="764.31718,731.27753"
       id="guide3251" />
    <sodipodi:guide
       orientation="0,1"
       position="-70.484581,647.57709"
       id="guide3460" />
  </sodipodi:namedview>
  <metadata
     id="metadata5594">
    <rdf:RDF>
      <cc:Work
         rdf:about="">
        <dc:format>image/svg+xml</dc:format>
        <dc:type
           rdf:resource="http://purl.org/dc/dcmitype/StillImage" />
        <dc:title></dc:title>
      </cc:Work>
    </rdf:RDF>
  </metadata>
  <g
     inkscape:label="Layer 1"
     inkscape:groupmode="layer"
     id="layer1">
    <g
       id="g3631"
       transform="matrix(0.78138664,0,0,0.96429713,145.75357,23.895527)">
      <g
         id="g3253"
         transform="matrix(0.97908453,0.01330834,-0.02069819,0.99985934,-147.93123,-197.17586)">
        <path
           style="fill:#000000;fill-opacity:1;fill-rule:nonzero;stroke:none"
           id="path8574"
           d="m -855.3599,-180.53201 c -1.48271,0.2536 -2.96541,0.50721 -4.44812,0.76082 0,0 -40.93176,-6.08968 -40.93176,-6.08968 l 0,0 c 2.15959,-0.0893 4.31918,-0.17857 6.47877,-0.26786 0,0 38.90111,5.59672 38.90111,5.59672 z"
           inkscape:connector-curvature="0"
           transform="matrix(1.3067474,-0.01739309,0.02191998,1.0368789,-35.770233,172.89597)" />
        <path
           style="fill:#000000;fill-opacity:1;fill-rule:nonzero;stroke:none"
           id="path8602"
           d="m 537.33331,288.41491 c -28.92101,0.1254 -79.28344,-3.22426 50.05303,-0.41947 4.32036,0.0937 -8.57186,0.91494 -12.8133,1.57392 -13.23107,2.05566 -14.54311,2.81589 -27.66748,6.35155 -42.65375,14.97604 -75.84785,41.60171 -107.84079,67.74412 -31.76862,25.61097 -61.57442,53.00536 -81.50708,85.57215 -13.18619,21.54412 -15.62735,30.95513 -24.53153,53.83994 -10.77057,36.66127 -16.13755,74.77653 -5.73484,111.95912 6.2448,22.32083 11.50076,28.19568 23.69494,48.67046 31.00938,39.66113 79.50725,65.82402 135.11987,79.87908 11.52943,2.91386 23.45484,4.72923 35.18228,7.09383 -22.60352,3.51141 96.81819,4.54397 72.57473,4.05197 -21.15458,-0.42934 -43.29616,3.97255 -63.4694,-1.09885 -12.27307,-3.08537 25.50378,-2.97593 38.04245,-5.29331 32.84672,-6.07068 43.79885,-10.63024 75.17656,-20.54606 59.08728,-21.71949 108.67756,-56.62151 139.77386,-102.3668 6.08013,-8.94439 10.69367,-18.46919 16.04049,-27.70379 24.22448,-49.27945 30.7913,-98.96245 14.08614,-150.53992 -3.20824,-9.90546 -7.97675,-19.45079 -11.9651,-29.17618 -12.27474,-20.25203 -19.17574,-34.72069 -37.21748,-52.33403 -23.42964,-22.87326 -56.4753,-40.30259 -90.49247,-51.61791 -12.16041,-4.04498 -24.99322,-6.67612 -37.48985,-10.01418 -38.08415,-6.258 -40.30041,-7.78432 -79.55677,-9.4984 -13.58824,-0.59332 -54.43107,-0.4452 -40.82229,-0.45824 109.69625,-0.10499 66.49154,-1.08532 26.94479,3.74665 -11.64651,1.42299 -23.11084,3.66361 -34.66625,5.49543 0,0 -100.16473,-9.60622 -100.16473,-9.60622 l 0,0 c 11.07704,-2.12793 22.03378,-4.69828 33.2311,-6.38381 56.57382,-8.51598 127.71903,-6.7627 178.47021,-7.36189 40.53533,-0.4786 80.98001,3.71034 119.88916,12.72412 31.71731,9.74585 41.78922,11.32795 70.36972,26.05947 45.98838,23.70427 75.21619,55.38625 95.59653,95.42697 10.50892,26.17354 15.34248,34.00797 19.59312,61.46728 6.57544,42.47791 -2.79276,84.61042 -21.78798,124.381 -5.53903,9.56098 -10.41564,19.38156 -16.61712,28.68294 -31.07517,46.60864 -78.96072,84.20224 -138.40616,107.71666 -31.64548,10.33087 -43.76749,15.32719 -76.83847,22.05731 -61.63798,12.54367 -106.61251,8.96828 -178.74497,9.89104 -12.22944,0.15636 -24.47905,-0.49396 -36.64452,-1.49752 -12.01414,-0.99109 -23.86301,-2.98545 -35.79455,-4.47819 -11.57022,-2.69958 -23.34807,-4.89167 -34.71067,-8.09875 C 329.1133,738.3381 281.32157,709.93763 251.13696,668.36434 238.77473,647.04464 233.388,640.5254 226.50033,617.47428 c -11.45434,-38.33458 -7.59719,-77.65618 3.96448,-115.62692 3.76129,-9.49367 6.91464,-19.15268 11.28387,-28.48101 20.77876,-44.36254 55.24507,-82.81447 99.05969,-114.72144 36.22261,-27.04262 73.89274,-53.47787 119.44716,-70.26131 49.50362,-13.38989 102.93843,-17.1267 154.98357,-9.77585 0,0 -77.90579,9.80716 -77.90579,9.80716 z"
           inkscape:connector-curvature="0" />
      </g>
    </g>
  </g>
</svg>
