<?xml version="1.0" encoding="UTF-8" standalone="no"?>
<!-- Created with Inkscape (http://www.inkscape.org/) -->

<svg
   xmlns:dc="http://purl.org/dc/elements/1.1/"
   xmlns:cc="http://creativecommons.org/ns#"
   xmlns:rdf="http://www.w3.org/1999/02/22-rdf-syntax-ns#"
   xmlns:svg="http://www.w3.org/2000/svg"
   xmlns="http://www.w3.org/2000/svg"
   xmlns:sodipodi="http://sodipodi.sourceforge.net/DTD/sodipodi-0.dtd"
   xmlns:inkscape="http://www.inkscape.org/namespaces/inkscape"
   width="1000"
   height="1000"
   id="svg3004"
   version="1.1"
   inkscape:version="0.48.3.1 r9886"
   sodipodi:docname="1.svg">
  <defs
     id="defs5498" />
  <sodipodi:namedview
     inkscape:window-height="722"
     inkscape:window-width="1366"
     inkscape:pageshadow="2"
     inkscape:pageopacity="0.0"
     borderopacity="1.0"
     bordercolor="#666666"
     pagecolor="#ffffff"
     id="base"
     showgrid="false"
     showguides="true"
     inkscape:guide-bbox="true"
     inkscape:zoom="0.32102648"
     inkscape:cx="304.93926"
     inkscape:cy="574.37497"
     inkscape:window-x="0"
     inkscape:window-y="24"
     inkscape:current-layer="g3253"
     inkscape:window-maximized="1">
    <sodipodi:guide
       orientation="horizontal"
       position="854.62555,442.73128"
       id="guide5596" />
    <sodipodi:guide
       orientation="0,1"
       position="854.62555,865.63877"
       id="guide3067" />
    <sodipodi:guide
       orientation="-0.70710678,0.70710678"
       position="-814.97797,1143.1718"
       id="guide3247" />
    <sodipodi:guide
       orientation="1,0"
       position="151.98238,832.59912"
       id="guide3249" />
    <sodipodi:guide
       orientation="1,0"
       position="764.31718,731.27753"
       id="guide3251" />
    <sodipodi:guide
       orientation="0,1"
       position="-70.484581,647.57709"
       id="guide3460" />
  </sodipodi:namedview>
  <metadata
     id="metadata5594">
    <rdf:RDF>
      <cc:Work
         rdf:about="">
        <dc:format>image/svg+xml</dc:format>
        <dc:type
           rdf:resource="http://purl.org/dc/dcmitype/StillImage" />
        <dc:title></dc:title>
      </cc:Work>
    </rdf:RDF>
  </metadata>
  <g
     inkscape:label="Layer 1"
     inkscape:groupmode="layer"
     id="layer1">
    <g
       id="g3631"
       transform="matrix(0.78138664,0,0,0.96429713,145.75357,23.895527)">
      <g
         id="g3253"
         transform="matrix(0.97908453,0.01330834,-0.02069819,0.99985934,-147.93123,-197.17586)">
        <path
           style="fill:#000000;fill-opacity:1;fill-rule:nonzero;stroke:none"
           id="path7169"
           d="M 19.150464,542.35376 C 8.5017613,533.17619 8.8591314,519.63802 9.7457838,506.73683 14.377931,480.04073 26.961225,455.97325 40.253254,432.70748 53.67991,411.85516 68.862513,391.85129 87.68913,375.53016 c 11.977886,-10.38385 15.78288,-12.08066 29.03625,-20.41205 17.56808,-9.67605 36.37905,-17.45166 56.29625,-20.57766 19.77607,-3.10384 56.42474,-1.14184 67.35737,-1.12092 13.05726,2.82679 24.3947,7.06192 30.16677,20.1043 1.01853,2.30144 1.52252,4.79771 2.28379,7.19657 4.66791,20.9431 0.3864,42.10524 -5.32992,62.35419 -8.67435,26.76787 -23.44503,49.39432 -40.87928,71.15358 -16.56394,19.14708 -35.23927,36.34941 -54.75751,52.42635 -7.07272,5.81207 -14.77922,10.77614 -22.04395,16.33075 -4.18988,3.20358 -8.06679,6.70582 -12.37205,9.75564 -13.33178,8.12836 -6.164,3.61587 -39.730517,-3.24544 -1.039324,-0.21244 1.894489,-0.95887 2.871897,-1.37118 2.20276,-0.92922 6.59681,-2.4374 8.70018,-3.18034 31.13794,-12.22775 64.20924,-8.46748 97.15936,-8.47626 33.72235,0.77372 67.35528,2.94009 100.99558,5.27434 20.08027,1.5771 40.22993,1.81208 60.36021,1.92442 6.75749,0.0377 27.03037,0.0152 20.27277,0.0247 -40.31528,0.0566 -73.8991,-0.21434 37.09351,0.32916 29.97631,0.84771 3.92396,0.0841 31.99056,0.97743 4.71382,0.15004 18.85717,0.33046 14.14204,0.43123 -11.36634,0.24293 -45.47553,-0.0792 -34.10683,-0.005 73.65816,0.48372 35.89672,-0.36496 67.34631,0.40246 11.72065,0.14715 23.3852,1.84699 35.09546,2.00916 -80.88466,11.57057 -43.11859,-1.77155 -31.67962,-0.0537 12.26294,1.84155 24.49282,3.89693 36.73923,5.84539 0,0 -37.88528,-5.84007 -37.88528,-5.84007 l 0,0 c 13.1165,1.91249 26.25608,3.67286 39.34949,5.73748 1.19408,0.18828 -2.38822,0.45362 -3.59703,0.46129 -14.28287,0.0906 -28.56629,0.0399 -42.84943,0.0599 -13.21358,-0.52152 -26.42958,-1.13192 -39.65397,-1.24572 -3.6294,-0.0276 -14.51766,-0.0648 -10.8882,-0.0828 11.34389,-0.0562 45.37604,-0.0768 34.03209,-0.0318 -36.09587,0.14331 -72.15492,0.20516 -108.235,-0.7869 10.70271,-0.0597 42.811,-0.16255 32.10813,-0.17912 -50.05302,-0.0775 -100.28113,1.40646 -150.25461,-2.33882 -31.97756,-2.4618 -63.96647,-4.63915 -96.02527,-5.74435 76.64698,-0.76782 30.57548,-0.57626 21.82142,0.0577 -10.96888,0.79437 -21.89057,3.01398 -32.33626,6.41512 -22.37311,6.85862 -18.35928,3.40392 -54.28269,0.53961 -0.144089,-0.0115 0.289088,0.002 0.433631,0.003 0.388357,-0.49549 0.776713,-0.99097 1.165069,-1.48645 3.3717,-3.16459 6.26504,-6.73095 9.54538,-9.97783 6.0532,-5.99145 13.05725,-10.87915 19.47115,-16.45496 18.48666,-16.35721 36.51991,-33.25822 52.96947,-51.69453 17.02103,-21.09864 31.73348,-43.76138 41.11316,-69.3772 6.53456,-19.14052 12.79286,-39.13124 9.65318,-59.58637 -0.7052,-2.04529 -1.12963,-4.21016 -2.11561,-6.13588 -6.09748,-11.90897 -20.24909,-14.42571 -32.26121,-15.57274 11.50413,-0.096 23.01145,-0.57569 34.51238,-0.28798 3.69703,0.0925 -7.39678,0.36737 -11.06,0.87466 -18.87469,2.61384 -36.49115,10.11472 -53.08721,19.21224 -13.07972,8.06858 -16.22943,9.31122 -28.03247,19.46775 -18.7053,16.09595 -33.76166,35.83155 -48.019427,55.81707 -14.669592,22.60807 -29.816668,45.54515 -36.850639,71.8835 -2.371179,11.22368 -3.748367,22.44377 4.67642,31.5197 0,0 -38.96319,3.50069 -38.96319,3.50069 z"
           inkscape:connector-curvature="0"
           transform="matrix(1.3067474,-0.01739309,0.02191998,1.0368789,-35.770233,172.89597)" />
        <path
           style="fill:#000000;fill-opacity:1;fill-rule:nonzero;stroke:none"
           id="path7290"
           d="m 561.2876,354.96546 c 0.38178,13.96661 0.0472,27.9797 -0.28803,41.9534 -1.58962,16.99852 -0.28157,34.00794 0.008,51.02267 0.42259,19.28884 0.55403,38.56127 -0.92353,57.80562 -2.20422,21.18209 -4.42091,42.35189 -6.85589,63.50817 -2.90156,21.22488 -3.20566,42.65271 -5.06646,63.96446 -2.76007,21.85595 -9.81337,42.69713 -16.76469,63.48053 -3.55623,11.24714 -7.19221,22.7155 -13.34215,32.87621 -2.53649,4.19069 -5.92591,8.44217 -8.88926,12.33809 -7.96162,10.06471 -17.84312,17.73191 -30.12171,21.52092 -26.51588,4.79513 -46.87569,6.99477 -66.03411,-8.94095 -11.70614,-10.38497 -22.19473,-22.0101 -32.41278,-33.83136 -8.49804,-10.49918 -16.38745,-21.5866 -21.95658,-33.95863 -2.56623,-5.701 -6.60141,-17.39508 -8.64757,-23.12576 -9.71673,-28.96901 -15.98974,-58.90538 -19.70886,-89.19253 -2.10367,-28.84779 -1.7905,-58.00993 2.51774,-86.66359 0.9873,-6.56642 2.41998,-13.05811 3.62997,-19.58717 7.44787,-41.66142 25.72157,-79.7414 46.62098,-116.12117 18.62428,-31.12482 40.46984,-60.71419 66.20726,-86.37973 5.67417,-5.65832 11.72913,-10.92148 17.5937,-16.38221 32.34692,-28.38128 67.65332,-53.52441 105.25868,-74.48832 7.4991,-4.18053 15.20427,-7.98021 22.80641,-11.97032 32.90495,-16.29379 67.81324,-29.11091 104.07909,-35.44592 5.71671,-0.99861 11.49806,-1.5833 17.24708,-2.37495 31.54673,-1.94659 31.97085,-2.33514 78.81783,-0.67206 6.07529,0.21567 18.92461,3.62773 24.67516,6.05227 9.33417,3.93548 10.92221,6.0189 18.51125,12.09531 11.4712,12.65534 17.09667,28.99 14.97199,46.10101 -0.43686,3.51829 -1.4864,6.93308 -2.22961,10.39961 -1.28244,3.55869 -2.33872,7.2072 -3.84734,10.67606 -2.89019,6.64556 -8.0458,15.26431 -11.70473,21.44635 -7.14918,12.07908 -14.91721,23.46636 -23.13074,34.84195 -17.95663,23.74955 -37.51575,44.89666 -60.81894,63.43687 -18.07126,14.15708 -36.81952,27.63205 -58.06422,36.55989 -1.05218,0.43348 -16.50781,6.27218 -17.23722,5.67989 -0.60968,-0.49506 0.36665,-2.21485 -0.41167,-2.31984 -12.03746,-1.62376 -24.22921,-1.7588 -36.34382,-2.63819 10.55427,-3.03851 21.51759,-4.72484 32.35444,-6.5115 2.86426,-0.33414 5.72851,-0.66828 8.59277,-1.00242 2.98463,-0.30694 5.97291,-0.58025 8.95389,-0.92081 7.72526,-0.88255 11.43754,-1.61433 19.2588,-2.10724 17.58038,-1.10796 64.43605,0.74049 64.51705,0.74206 22.25573,4.03884 41.13951,14.10515 59.60225,26.70678 12.74958,9.88791 24.54207,21.23482 34.19242,34.21661 6.15905,8.28525 7.76948,11.76908 12.81324,20.68243 8.00091,18.88055 8.53774,39.26095 2.57306,58.83044 -1.19361,3.91611 -2.87133,7.66799 -4.30699,11.50198 -11.95137,26.21083 -28.02527,39.09799 -52.64424,52.61979 -23.55179,12.06782 -48.3142,16.59054 -74.41743,18.60034 -30.51892,-1.55134 -69.1777,5.22145 -98.96304,-9.39582 -2.51719,-1.23532 -4.83216,-2.84591 -7.24825,-4.26886 -6.47576,-4.50194 -11.32461,-10.05033 -13.90902,-17.47137 0,0 40.22808,-1.89561 40.22808,-1.89561 l 0,0 c 4.47162,6.27231 10.06052,11.13917 17.00887,14.62457 12.60374,5.78414 24.74214,8.90865 38.59428,10.30473 3.92346,0.39543 15.74564,0.53208 11.80736,0.73152 -11.2375,0.56908 -22.50237,0.25323 -33.75356,0.37985 25.8727,-1.63757 50.86295,-5.21397 74.49992,-16.59875 23.97021,-12.64138 40.42799,-24.22752 52.68538,-49.33623 1.45928,-3.63495 3.16139,-7.18158 4.37784,-10.90483 6.07168,-18.58379 5.8233,-37.4783 -2.53497,-55.29447 -4.91101,-8.20041 -7.05205,-12.28575 -12.862,-19.92872 -9.59343,-12.62013 -21.36702,-23.44295 -34.01805,-32.92088 -18.00972,-12.24681 -36.17637,-21.83569 -58.14464,-24.5548 11.32566,-0.26096 22.65395,-0.42553 33.97697,-0.7829 3.31276,-0.10456 -6.63117,-0.10107 -9.94321,0.0243 -9.72818,0.36839 -19.34463,1.98811 -29.03203,2.84447 -2.96185,0.26183 -5.92824,0.46941 -8.89236,0.70412 -12.33773,1.83085 -24.71698,4.03887 -37.10271,5.14268 -13.13333,-0.52729 -26.32788,-0.20992 -39.4,-1.58187 -3.56614,-0.37428 0.57064,-3.52418 0.64843,-3.57017 3.58632,-2.12038 7.82432,-3.33169 11.47658,-5.30079 19.58626,-9.38792 37.10222,-22.33776 54.07035,-35.79693 22.42184,-18.29876 41.90993,-39.66276 59.89492,-62.31408 15.73583,-20.28595 31.2527,-41.39533 41.75957,-64.92205 0.82943,-3.18453 1.97293,-6.30342 2.48828,-9.55358 2.55806,-16.13289 -3.15068,-30.90156 -15.24213,-41.62945 -7.98756,-5.07772 -10.42037,-7.27826 -19.70441,-10.36017 -15.42536,-5.12058 -61.74414,-6.37847 7.15334,-4.99347 5.16272,0.10379 -10.31697,0.46682 -15.47545,0.70023 -5.34729,0.72323 -10.72907,1.22592 -16.04187,2.1697 -34.50492,6.12956 -67.54935,19.00696 -98.77029,34.62292 -7.43518,3.91617 -14.96678,7.65448 -22.30552,11.74851 -37.67854,21.01958 -73.47863,45.64239 -106.63679,73.21786 -15.10925,13.35317 -21.00249,17.92522 -34.74691,32.56618 -19.53191,20.80598 -36.74285,43.90693 -51.41823,68.35174 -20.63933,35.95171 -38.60619,73.563 -47.20131,114.40489 -7.31504,34.38698 -12.64243,69.39756 -9.01091,104.63317 3.68623,29.81782 9.47067,59.30204 17.30831,88.3177 2.17655,7.30157 4.37151,15.42601 7.32458,22.50019 5.02039,12.02651 12.34588,22.98719 20.62131,32.98805 9.37091,11.49792 18.87313,22.96943 29.62729,33.21541 3.7909,2.91976 7.19945,5.39557 11.94588,6.5131 1.37238,0.32311 5.59105,0.58906 4.18187,0.63421 -59.68982,1.91249 -45.06201,1.00448 -31.67893,0.10309 11.65847,-2.27967 20.56079,-9.94454 28.03426,-18.89853 2.45155,-3.27685 6.21482,-8.1129 8.27512,-11.65336 5.76895,-9.91344 8.85087,-21.21574 12.07997,-32.11944 5.69627,-20.7456 12.44711,-41.28756 15.68636,-62.62319 2.42996,-21.30752 2.83597,-42.74162 5.21237,-64.05547 2.68738,-21.10668 4.89751,-42.25441 7.48214,-63.36752 2.01766,-19.0678 1.61062,-38.20281 1.86888,-57.35436 -0.0553,-17.06088 -1.20998,-34.14625 0.28958,-51.17811 0.38263,-14.17511 0.82929,-28.6345 4.49585,-42.40016 0,0 39.29769,0.55766 39.29769,0.55766 z"
           inkscape:connector-curvature="0"
           transform="matrix(1.3067474,-0.01739309,0.02191998,1.0368789,-35.770233,172.89597)" />
      </g>
    </g>
  </g>
</svg>
