<?xml version="1.0" encoding="UTF-8" standalone="no"?>
<!-- Created with Inkscape (http://www.inkscape.org/) -->

<svg
   xmlns:dc="http://purl.org/dc/elements/1.1/"
   xmlns:cc="http://creativecommons.org/ns#"
   xmlns:rdf="http://www.w3.org/1999/02/22-rdf-syntax-ns#"
   xmlns:svg="http://www.w3.org/2000/svg"
   xmlns="http://www.w3.org/2000/svg"
   xmlns:sodipodi="http://sodipodi.sourceforge.net/DTD/sodipodi-0.dtd"
   xmlns:inkscape="http://www.inkscape.org/namespaces/inkscape"
   width="1000"
   height="1000"
   id="svg3004"
   version="1.1"
   inkscape:version="0.48.3.1 r9886"
   sodipodi:docname="2.svg">
  <defs
     id="defs5498" />
  <sodipodi:namedview
     inkscape:window-height="722"
     inkscape:window-width="1366"
     inkscape:pageshadow="2"
     inkscape:pageopacity="0.0"
     borderopacity="1.0"
     bordercolor="#666666"
     pagecolor="#ffffff"
     id="base"
     showgrid="false"
     showguides="true"
     inkscape:guide-bbox="true"
     inkscape:zoom="0.32102648"
     inkscape:cx="304.93926"
     inkscape:cy="574.37497"
     inkscape:window-x="0"
     inkscape:window-y="24"
     inkscape:current-layer="g3253"
     inkscape:window-maximized="1">
    <sodipodi:guide
       orientation="horizontal"
       position="854.62555,442.73128"
       id="guide5596" />
    <sodipodi:guide
       orientation="0,1"
       position="854.62555,865.63877"
       id="guide3067" />
    <sodipodi:guide
       orientation="-0.70710678,0.70710678"
       position="-814.97797,1143.1718"
       id="guide3247" />
    <sodipodi:guide
       orientation="1,0"
       position="151.98238,832.59912"
       id="guide3249" />
    <sodipodi:guide
       orientation="1,0"
       position="764.31718,731.27753"
       id="guide3251" />
    <sodipodi:guide
       orientation="0,1"
       position="-70.484581,647.57709"
       id="guide3460" />
  </sodipodi:namedview>
  <metadata
     id="metadata5594">
    <rdf:RDF>
      <cc:Work
         rdf:about="">
        <dc:format>image/svg+xml</dc:format>
        <dc:type
           rdf:resource="http://purl.org/dc/dcmitype/StillImage" />
        <dc:title></dc:title>
      </cc:Work>
    </rdf:RDF>
  </metadata>
  <g
     inkscape:label="Layer 1"
     inkscape:groupmode="layer"
     id="layer1">
    <g
       id="g3631"
       transform="matrix(0.78138664,0,0,0.96429713,145.75357,23.895527)">
      <g
         id="g3253"
         transform="matrix(0.97908453,0.01330834,-0.02069819,0.99985934,-147.93123,-197.17586)">
        <g
           id="g7339"
           transform="matrix(0.54979463,0.00317415,0.00504145,0.78820261,603.13222,149.78222)">
          <path
             transform="matrix(1.3067474,-0.01739309,0.02191998,1.0368789,-35.770233,172.89597)"
             inkscape:connector-curvature="0"
             d="m -734.91443,386.31432 c 2.89489,-8.58481 9.25032,-14.90614 16.31902,-20.21538 22.67444,-11.4076 48.07748,-8.72768 67.90624,5.05701 11.1367,9.88674 19.33448,22.58954 23.65349,36.89045 1.12497,3.72493 1.76457,7.5795 2.64686,11.36925 3.15079,17.90243 3.5571,36.31897 0.87932,54.32441 -1.64824,11.08286 -3.59081,16.87776 -6.55047,27.63294 -6.84532,20.06146 -18.15373,38.77167 -35.19638,51.80509 -3.06107,2.34096 -6.44833,4.22137 -9.6725,6.33206 -13.91448,7.29212 -29.29135,11.4945 -45.07265,11.47952 -58.33657,-0.0554 -40.1448,3.28858 -70.57353,-3.86792 -23.1393,-7.45755 -40.97778,-24.25623 -52.90986,-45.19838 -2.90733,-5.10267 -5.19941,-10.53211 -7.79912,-15.79817 -13.74906,-36.88669 -15.34217,-76.67811 -8.09799,-115.21176 1.74255,-9.26908 4.43336,-18.33453 6.65005,-27.50179 15.07972,-49.71615 38.54812,-96.6372 67.01169,-140.02065 5.83588,-8.8949 12.16464,-17.45648 18.24696,-26.18473 23.21399,-32.11287 49.30071,-62.79008 80.8801,-87.04871 19.95929,-15.332314 24.87578,-16.83424 46.87663,-28.657819 22.11698,-9.196819 27.07541,-12.167022 50.23209,-18.206081 15.47145,-4.034822 33.13381,-7.228336 49.19947,-7.629192 70.36466,-1.755675 54.31001,-2.910234 96.35187,2.396677 32.74511,7.100289 54.75443,21.169334 75.18927,47.723095 4.1364,5.37498 7.71086,11.15991 11.5663,16.73987 19.67959,33.00408 29.58028,70.11897 30.82707,108.42883 0.26945,8.27919 -0.17912,16.56617 -0.26868,24.84925 -2.09123,34.47423 -8.77992,68.72338 -20.32799,101.30298 -7.07645,19.96416 -11.28593,27.77348 -20.20706,46.84473 -16.7484,32.41655 -37.05349,63.3129 -62.08155,89.98811 -4.05394,4.32073 -8.39443,8.36337 -12.59165,12.54506 -17.72823,16.36238 -37.48683,31.08775 -59.89718,40.34542 -1.55225,0.42375 -3.10449,0.84749 -4.65674,1.27124 0,0 -39.86145,-5.18227 -39.86145,-5.18227 l 0,0 c 0.92376,-0.28281 1.84752,-0.56563 2.77128,-0.84844 19.158,-10.32597 36.3659,-24.18368 51.80591,-39.43003 3.82276,-4.09269 7.80492,-8.04213 11.4683,-12.27809 23.1473,-26.76522 41.87581,-57.1437 57.46974,-88.81647 8.89943,-19.53232 12.26557,-25.81792 19.49616,-46.17095 11.42085,-32.14799 18.37601,-65.69763 21.27843,-99.67649 0.22244,-8.12553 0.78261,-16.24884 0.66731,-24.37659 -0.52753,-37.1864 -9.01429,-73.36509 -27.63383,-105.74025 -8.38409,-12.95263 -11.25427,-18.97141 -22.13714,-29.786702 -17.76189,-17.651596 -40.52939,-26.299048 -64.92833,-30.047432 -7.10695,-0.608395 -28.30708,-0.385896 -21.32086,-1.825185 10.14781,-2.09063 20.93947,-2.300902 31.0822,-0.185828 7.54426,1.57321 -15.41588,0.768924 -23.04452,1.861933 -25.48777,3.651814 -50.15486,11.807844 -73.66573,22.090568 -21.40973,11.076006 -26.87652,12.726756 -46.17757,27.450376 -30.89832,23.57047 -55.37499,54.47435 -77.98183,85.72906 -5.94233,8.64122 -12.053,17.16906 -17.827,25.92366 -28.46011,43.15156 -53.18098,89.1114 -69.9407,138.11369 -2.56451,8.96114 -5.57851,17.80568 -7.69353,26.88342 -8.58968,36.86715 -9.90485,75.71127 1.0617,112.16477 2.2107,5.05642 4.05399,10.28993 6.63209,15.16927 10.7932,20.42729 28.01644,35.63874 50.41943,41.68361 23.21433,4.42942 16.14201,2.19013 -21.36539,3.15085 -4.1495,0.10629 8.31088,0.0334 12.44925,-0.28831 11.50848,-0.89471 22.59116,-3.8585 33.032,-8.77126 3.17348,-1.88256 6.50756,-3.51752 9.52043,-5.64769 16.73817,-11.83428 26.73788,-30.15643 33.20059,-49.15434 7.2356,-26.23544 10.9985,-52.53637 7.60785,-79.76826 -0.611,-3.58988 -0.98756,-7.22765 -1.833,-10.76966 -3.17412,-13.29802 -10.36667,-25.26213 -20.54376,-34.33596 -3.90596,-2.60712 -4.96932,-3.72925 -9.36116,-5.1608 -1.43804,-0.46873 -5.94596,-0.88825 -4.43509,-0.95867 11.84711,-0.55216 23.71717,-0.36896 35.57649,-0.49273 1.35914,-0.0142 -2.73834,-0.0861 -4.07437,0.16395 -1.25083,0.23407 -2.39963,0.84803 -3.59945,1.27204 -7.41347,4.4936 -12.70321,10.90394 -17.48662,18.08678 0,0 -39.16091,-1.81698 -39.16091,-1.81698 z"
             id="path7333"
             style="fill:#000000;fill-opacity:1;fill-rule:nonzero;stroke:none" />
          <path
             transform="matrix(1.3067474,-0.01739309,0.02191998,1.0368789,-35.770233,172.89597)"
             inkscape:connector-curvature="0"
             d="m -271.81813,553.31248 c -11.48844,-2.93475 -21.84138,-9.95402 -29.08135,-19.37872 -1.89518,-2.46706 -3.36864,-5.23114 -5.05296,-7.8467 -11.7684,-26.33224 -6.22418,-51.76326 0.8315,-78.51027 10.69207,-32.11294 31.69632,-58.51069 58.00703,-79.41166 5.39103,-4.28258 11.17241,-8.04935 16.75861,-12.07402 23.26466,-15.20427 48.78456,-26.47668 76.06343,-32.08407 16.31794,-3.35429 21.75404,-3.18619 38.06117,-4.28513 24.516452,1.30784 65.129697,-7.04535 89.607514,10.77658 6.5572,4.7742 14.034112,13.7536 18.0957599,20.59448 2.5136025,4.23356 4.1818479,8.91499 6.2727719,13.37249 8.2937112,25.21677 9.7517993,52.11734 3.6342201,78.02383 -1.20863056,5.11826 -3.0374512,10.06992 -4.5561768,15.10489 -6.7790552,19.69555 -17.4302511,37.6778 -31.3502161,53.16635 -8.221569,9.14803 -12.456694,12.37981 -21.620642,20.39934 -15.840121,12.27212 -32.600453,23.52924 -50.670971,32.25498 -14.56821,5.45387 -13.54642,5.48678 -42.69708,1.9221 -1.8122,-0.2216 0.0215,-3.72999 0.67257,-5.43563 1.40373,-3.67717 9.43256,-5.97435 12.27912,-7.17515 23.82415,-7.90365 49.04378,-10.50129 73.92341,-12.70396 64.0341069,-3.98628 128.237366,-1.02224 192.33805,-1.01247 -9.8506,-0.0415 -19.86086,1.64237 -29.5518,-0.12451 -8.529811,-1.55518 17.33804,-0.31685 26.00604,-0.52196 33.85511,-0.8011 67.67572,-1.98169 101.5424,-2.16712 54.84706,-0.96648 109.67474,0.73691 164.42887,3.69947 13.25711,2.5231 27.32939,0.033 40.36062,3.67629 2.15686,0.86094 1.09754,0.80606 3.16333,0.34634 -12.32997,0.0496 -24.67612,-0.48447 -36.98993,0.14878 -0.5835,0.03 0.18847,1.19514 0.014,1.75277 -0.11939,0.38168 -0.55502,0.57593 -0.83253,0.8639 0,0 38.05976,-2.82341 38.05976,-2.82341 l 0,0 c 4.82392,19.12278 -27.7457,7.26062 -42.56976,5.2177 -16.08569,-1.53835 -32.40168,-0.006 -48.48784,-1.89885 -23.94133,-0.764 -47.87303,-1.42949 -71.82219,-1.89143 -7.32557,-0.1413 -29.29011,-0.0392 -21.97579,-0.46891 10.29415,-0.6047 20.62376,-0.0383 30.93564,-0.0574 -69.26271,0.43165 -138.45497,4.88796 -207.749834,3.01453 -37.961434,-0.25362 -12.896333,0.0275 -50.233884,-0.66657 -7.928099,-0.14737 -31.6758773,0.37501 -23.78494442,-0.40579 9.95124142,-0.98466 20.00202742,-0.45718 29.99878742,-0.20906 14.309176,0.35514 -55.956517,0.35501 -42.927569,1.06377 -27.43231,1.59073 -54.983694,4.00796 -81.769394,10.43302 -2.740858,0.73407 -16.111612,4.96631 -16.118462,4.96284 -1.12223,-0.5674 0.009,-3.46863 -1.24469,-3.56129 -32.52643,-2.4034 -48.50861,7.01614 -35.59811,-0.29349 14.94444,-10.08919 29.2478,-21.15676 43.64682,-31.99637 23.255397,-20.57401 41.821606,-40.87824 51.98754,-70.9492 1.489492,-4.82738 3.309237,-9.56498 4.468477,-14.48213 5.853184,-24.82742 4.623583,-50.7771 -2.645012,-75.11382 -5.820942,-12.44799 -10.69743,-23.4708 -23.185992,-30.79038 -3.769355,-2.20922 -7.922208,-3.78219 -12.12295,-4.98323 -4.698166,-1.34325 -19.231053,-1.72173 -14.425537,-2.60724 10.934542,-2.0149 22.229547,-0.58594 33.34432,-0.87891 -15.198555,0.87324 -20.835451,0.73015 -36.166646,3.6282 -27.03434,5.11028 -52.44024,15.55315 -75.71918,30.15416 -5.56596,3.86708 -11.30776,7.49259 -16.69786,11.60124 -26.35846,20.09197 -47.67708,45.52459 -60.18774,76.40317 -8.74268,24.27743 -17.40532,49.31721 -6.99723,74.49271 1.53029,2.3744 2.86739,4.88509 4.59088,7.12321 6.34285,8.23684 15.13554,14.29616 25.01485,17.37407 0,0 -39.27327,5.23765 -39.27327,5.23765 z"
             id="path7335"
             style="fill:#000000;fill-opacity:1;fill-rule:nonzero;stroke:none" />
          <path
             transform="matrix(1.3067474,-0.01739309,0.02191998,1.0368789,-35.770233,172.89597)"
             inkscape:connector-curvature="0"
             d="m 412.28781,279.10603 c -2.64196,-1.48945 -6.99999,-14.07615 -9.0961,-14.4021 -0.57573,-0.0895 -0.98998,0.61471 -1.48497,0.92207 12.24409,0.0964 24.4998,-0.25272 36.73226,0.28928 0.54595,0.0242 -0.8094,0.78419 -1.0071,1.29367 -0.39583,1.02003 -0.58094,2.11573 -0.73619,3.19881 -0.85906,5.9932 -1.01768,12.2142 -1.3715,18.24636 1.09322,27.48151 2.47334,54.9785 4.22491,82.43013 3.22961,43.0095 7.76588,85.90633 11.76799,128.84706 2.33785,32.22732 4.65839,64.49846 5.31664,96.81548 0.34362,16.87002 -0.0302,32.77499 -0.27297,49.63611 -0.76931,31.22566 -2.10064,62.62504 -8.3848,93.31117 -3.62904,17.72094 -5.84663,23.78119 -10.97643,40.93089 -8.39427,23.6248 -19.24239,47.1732 -35.56277,66.50282 -9.01347,10.67542 -14.44182,14.39509 -25.05771,23.19065 -17.82333,12.06752 -38.61141,20.41971 -60.45137,20.56171 -62.99853,0.4096 -44.75732,4.04453 -78.94421,-5.26274 -21.5067,-7.87403 -41.86483,-19.71089 -58.23367,-35.91374 -11.05668,-10.94456 -14.72031,-17.30908 -23.80913,-30.08364 -20.8372,-34.05232 -33.43626,-72.83811 -39.81112,-112.16747 -1.55129,-9.57062 -2.26868,-19.25788 -3.40302,-28.88681 -5.04328,-55.52346 0.0294,-111.53437 13.41879,-165.6154 3.02075,-12.20115 6.83172,-24.19296 10.24758,-36.28944 21.42749,-66.53718 53.80205,-129.00943 94.16485,-186.0064 8.55367,-12.07879 17.78822,-23.66071 26.68233,-35.49106 44.40995,-55.27878 92.05604,-109.34457 150.47694,-150.32593 10.83191,-7.598412 22.32717,-14.204286 33.49076,-21.306431 44.51208,-25.059216 92.80844,-42.614847 142.87505,-52.668285 29.7733,-5.978515 40.70444,-6.129659 70.68377,-8.782739 61.67171,0.289448 125.60863,-5.992425 184.77505,14.929168 24.12271,8.529932 26.5724,11.659574 47.88809,24.995606 27.97339,21.825643 48.20409,50.680321 60.54248,83.886561 7.68086,20.67147 8.39258,29.70708 12.40397,51.30449 5.05071,45.33414 -2.82494,90.40528 -20.60603,132.28319 -3.79098,8.92848 -8.37685,17.49816 -12.56527,26.24724 -19.20371,35.58765 -42.84904,68.66451 -69.93003,98.68445 -15.66453,17.3645 -23.81269,24.48905 -40.60427,40.41384 -22.76114,20.51386 -47.23765,39.31862 -73.66521,54.90404 -8.82743,5.2059 -20.23921,10.84261 -29.46297,15.52984 -10.94884,5.18077 -22.08773,9.84616 -34.08549,11.74212 0,0 -40.3809,-5.85754 -40.3809,-5.85754 l 0,0 c 9.74265,-0.9041 18.06933,-6.56493 26.53402,-11.05734 6.45099,-3.72652 20.24934,-11.60736 26.19018,-15.43816 24.367,-15.71247 46.80292,-34.32241 67.66793,-54.40325 15.85266,-15.84359 23.54051,-23.08479 38.62373,-40.01227 26.71255,-29.97875 50.50092,-62.45456 70.64934,-97.20499 4.41658,-8.55932 9.23427,-16.92329 13.24973,-25.67796 19.07955,-41.59798 27.01462,-83.52786 21.89645,-129.12281 -4.08294,-22.29837 -4.21361,-28.68431 -12.23589,-49.96465 C 878.16272,115.13308 858.68316,88.62202 829.89085,67.876178 822.11346,63.493331 814.65064,58.498221 806.55868,54.727636 789.51497,46.785834 769.5878,41.027527 751.18832,37.567204 c -10.26887,-1.931227 -27.00249,5.471919 -31.0704,-4.152603 -3.70059,-8.755477 37.0502,1.96135 28.44114,-2.068135 -9.91514,-4.640792 -21.89492,0.0054 -32.84237,0.0081 -29.10324,2.365765 -40.02027,2.45443 -68.92984,8.072524 -49.26581,9.57399 -96.90675,26.485774 -140.85544,50.744323 -10.99293,6.908496 -22.34723,13.272847 -32.97878,20.725487 -57.50102,40.3078 -102.92038,95.00812 -147.14097,148.7999 -9.01222,11.69032 -18.35908,23.13013 -27.03665,35.07096 -41.01569,56.43998 -74.96449,118.084 -98.56249,183.79937 -3.8601,11.93425 -8.15368,23.73689 -11.5803,35.80275 -15.09044,53.13663 -20.89353,108.50257 -18.51953,163.61957 0.75794,9.48184 1.20096,18.99413 2.2738,28.44552 4.3615,38.42339 14.20772,76.58797 34.0003,110.06751 3.51252,5.23056 6.68825,10.70376 10.53756,15.69167 17.30655,22.42571 41.9042,37.68555 68.35236,46.96515 24.12953,5.30942 23.55103,3.87011 -17.66107,4.4728 -5.2318,0.0765 10.4868,-0.19975 15.67061,-0.91087 9.57321,-1.31326 21.11596,-4.75341 29.85151,-8.80707 4.88935,-2.26885 9.39234,-5.29126 14.08851,-7.9369 10.17791,-8.36255 15.38385,-11.89867 24.03288,-22.04542 15.93328,-18.69236 25.62568,-41.74444 33.40408,-64.7594 4.0752,-15.07662 7.05767,-24.83228 9.81506,-40.30754 5.43995,-30.53064 5.76022,-61.62944 6.58747,-92.52831 0.11302,-48.67294 -0.16873,-97.40215 -4.09313,-145.94926 -3.2265,-43.01243 -7.1491,-86.01401 -8.05602,-129.1583 0.17741,-27.71664 0.49518,-55.52138 3.53124,-83.09886 1.41195,-7.599 2.45311,-15.90506 5.61889,-23.04009 0.5378,-1.21209 0.54386,-3.36345 1.86111,-3.51594 13.29547,-1.53909 26.75348,-0.89666 40.13023,-1.345 5.6331,4.06409 8.86876,10.74751 11.39064,17.05987 0,0 -39.16091,1.81699 -39.16091,1.81699 z"
             id="path7337"
             style="fill:#000000;fill-opacity:1;fill-rule:nonzero;stroke:none" />
        </g>
      </g>
    </g>
  </g>
</svg>
