<?xml version="1.0" encoding="UTF-8" standalone="no"?>
<!-- Created with Inkscape (http://www.inkscape.org/) -->

<svg
   xmlns:dc="http://purl.org/dc/elements/1.1/"
   xmlns:cc="http://creativecommons.org/ns#"
   xmlns:rdf="http://www.w3.org/1999/02/22-rdf-syntax-ns#"
   xmlns:svg="http://www.w3.org/2000/svg"
   xmlns="http://www.w3.org/2000/svg"
   xmlns:sodipodi="http://sodipodi.sourceforge.net/DTD/sodipodi-0.dtd"
   xmlns:inkscape="http://www.inkscape.org/namespaces/inkscape"
   width="1000"
   height="1000"
   id="svg3004"
   version="1.1"
   inkscape:version="0.48.3.1 r9886"
   sodipodi:docname="3.svg">
  <defs
     id="defs5498" />
  <sodipodi:namedview
     inkscape:window-height="722"
     inkscape:window-width="1366"
     inkscape:pageshadow="2"
     inkscape:pageopacity="0.0"
     borderopacity="1.0"
     bordercolor="#666666"
     pagecolor="#ffffff"
     id="base"
     showgrid="false"
     showguides="true"
     inkscape:guide-bbox="true"
     inkscape:zoom="0.32102648"
     inkscape:cx="304.93926"
     inkscape:cy="574.37497"
     inkscape:window-x="0"
     inkscape:window-y="24"
     inkscape:current-layer="g3253"
     inkscape:window-maximized="1">
    <sodipodi:guide
       orientation="horizontal"
       position="854.62555,442.73128"
       id="guide5596" />
    <sodipodi:guide
       orientation="0,1"
       position="854.62555,865.63877"
       id="guide3067" />
    <sodipodi:guide
       orientation="-0.70710678,0.70710678"
       position="-814.97797,1143.1718"
       id="guide3247" />
    <sodipodi:guide
       orientation="1,0"
       position="151.98238,832.59912"
       id="guide3249" />
    <sodipodi:guide
       orientation="1,0"
       position="764.31718,731.27753"
       id="guide3251" />
    <sodipodi:guide
       orientation="0,1"
       position="-70.484581,647.57709"
       id="guide3460" />
  </sodipodi:namedview>
  <metadata
     id="metadata5594">
    <rdf:RDF>
      <cc:Work
         rdf:about="">
        <dc:format>image/svg+xml</dc:format>
        <dc:type
           rdf:resource="http://purl.org/dc/dcmitype/StillImage" />
        <dc:title></dc:title>
      </cc:Work>
    </rdf:RDF>
  </metadata>
  <g
     inkscape:label="Layer 1"
     inkscape:groupmode="layer"
     id="layer1">
    <g
       id="g3631"
       transform="matrix(0.78138664,0,0,0.96429713,145.75357,23.895527)">
      <g
         id="g3253"
         transform="matrix(0.97908453,0.01330834,-0.02069819,0.99985934,-147.93123,-197.17586)">
        <path
           style="fill:#000000;fill-opacity:1;fill-rule:nonzero;stroke:none"
           id="path7447"
           d="m 242.2493,404.9216 c 1.04534,-15.26104 8.94734,-28.4987 17.83121,-40.49033 11.5721,-14.15765 26.561,-25.55035 43.99193,-31.4579 3.34535,-1.13378 6.81269,-1.86936 10.21903,-2.80403 27.22653,-3.64936 59.24945,-8.64376 84.22255,5.51875 8.7101,4.93959 10.08459,7.23646 17.17953,14.24817 13.76167,16.58914 21.5993,36.70541 24.22093,58.02181 0.58661,4.7697 0.70562,9.58533 1.05842,14.378 1.35632,25.44171 -1.87097,51.12534 -13.46048,74.10264 -2.28499,4.53022 -5.12196,8.76025 -7.68294,13.14037 -13.74516,20.03501 -32.32427,36.23488 -54.17651,46.93797 -4.21566,2.06481 -8.63928,3.67473 -12.95892,5.5121 -13.27455,4.54053 -27.23945,7.99107 -41.36901,8.13147 -15.10921,0.15013 -50.5398,3.20002 -72.25365,-2.87825 -3.70049,-1.03586 -7.19983,-2.68865 -10.79975,-4.03298 -2.90657,-1.87161 -6.06259,-3.40332 -8.7197,-5.61484 -14.86548,-12.37256 -20.32008,-33.25975 -25.04269,-51.03067 -4.93534,-28.27693 -2.40184,-56.95791 5.70771,-84.40946 1.89914,-6.42878 4.32283,-12.69083 6.48424,-19.03625 14.22633,-35.83731 34.63526,-69.141 58.52764,-99.35313 5.49551,-6.94912 11.38847,-13.57448 17.0827,-20.36173 36.84409,-42.43288 81.0435,-77.27716 126.92707,-109.31552 35.84494,-23.94228 75.24799,-43.20675 117.47595,-52.77096 7.29667,-1.65262 14.72655,-2.64932 22.08983,-3.97399 37.57773,-3.60505 32.1494,-3.74333 88.75988,-1.97338 7.65743,0.23941 21.42301,3.94755 28.5128,7.10503 10.82643,4.8216 12.21428,7.37312 20.74361,15.23283 14.67301,18.20393 19.76304,40.97957 18.44788,64.05665 -0.30497,5.35127 -1.22646,10.64951 -1.83969,15.97426 -5.17374,30.24091 -21.142,56.08694 -41.8229,78.27714 -4.54856,4.88052 -9.50841,9.36087 -14.26261,14.0413 -26.6461,25.15577 -57.69142,44.23224 -89.9508,61.17695 -10.05623,5.06864 -20.06163,10.39115 -30.63733,14.33529 -1.97467,0.73644 -9.41752,3.25581 -12.21199,3.29392 -13.63021,0.1859 -27.26169,-0.2634 -40.89253,-0.3951 0.13762,-1.6479 -0.0323,-3.35111 0.41287,-4.94369 2.7789,-9.9411 21.9443,-15.7793 30.11586,-18.67289 27.55363,-7.92669 56.14175,-10.89229 84.70785,-11.47841 41.79132,-0.96583 83.33897,-0.65872 122.29984,15.57501 4.13621,1.72342 8.10588,3.82207 12.15883,5.73311 17.40903,10.18058 32.06218,24.60697 38.89711,43.95252 1.27545,3.61003 1.96925,7.3999 2.95388,11.09985 4.01688,21.17981 -0.77131,41.38076 -11.47475,59.86016 -2.35515,4.06615 -5.1342,7.87154 -7.7013,11.80731 -15.72242,21.17749 -35.93917,38.33495 -59.35606,50.47718 -4.98819,2.5865 -10.19175,4.73457 -15.28763,7.10185 -20.18296,8.0334 -41.48285,13.24017 -63.1628,14.92698 -25.13226,1.95542 -50.41621,0.39075 -75.62417,0.27465 -17.03808,-2.21762 -36.13469,-5.06685 -50.02199,-16.25307 -1.9537,-1.57371 -3.48736,-3.60726 -5.23104,-5.41089 -5.49351,-7.4105 -9.14502,-17.90955 -1.39213,-25.31536 1.18992,-1.13665 2.70373,-1.87654 4.0556,-2.81481 1.60142,-0.59629 3.20284,-1.19258 4.80426,-1.78888 0,0 40.75651,5.269 40.75651,5.269 l 0,0 c -1.65788,0.35906 -3.31575,0.71812 -4.97363,1.07717 -1.49415,0.44579 -3.0679,0.68141 -4.48244,1.33737 -8.69676,4.0329 0.0353,14.62582 3.94224,18.5776 2.03866,1.48997 3.95484,3.16391 6.11599,4.4699 15.84296,9.57395 35.06305,12.2023 53.1408,13.53981 -11.17174,0.0707 -22.34334,0.25137 -33.51524,0.21206 -4.75445,-0.0167 9.5145,5.6e-4 14.26072,-0.2798 21.23386,-1.25432 42.11734,-6.10023 62.02515,-13.50535 12.38358,-5.39891 18.42028,-7.56759 30.0582,-14.48756 17.77614,-10.56979 33.29641,-24.27061 46.38064,-40.24959 16.18801,-22.80867 25.87945,-38.63136 21.21778,-67.61494 -0.96383,-3.44453 -1.62427,-6.98876 -2.89151,-10.33359 -7.12139,-18.79665 -23.17251,-31.40076 -40.40903,-40.50562 -13.2443,-5.5863 -26.31715,-10.25074 -40.40436,-13.33803 -5.03153,-1.10269 -10.10375,-2.03023 -15.19603,-2.80534 -5.26247,-0.80102 -21.09689,-1.00425 -15.85331,-1.92078 10.70388,-1.87095 21.72203,-0.66896 32.58305,-1.00343 -5.46495,-0.0137 -10.93297,-0.22472 -16.39486,-0.0412 -24.25031,0.81458 -48.38071,4.61042 -72.08386,9.58483 -6.54017,1.78289 -13.63184,3.48933 -19.97211,6.02187 -1.50391,0.60073 -15.31322,8.25943 -16.46483,8.28383 -0.64693,0.0137 -0.49911,-1.19402 -0.74867,-1.79102 -12.51399,0.0661 -25.02898,0.3689 -37.54198,0.19817 -1.16776,-0.0159 2.3239,-0.32029 3.44021,-0.66346 11.43972,-3.51672 21.45856,-10.7606 31.79037,-16.51076 30.31497,-17.69222 60.09514,-36.27549 85.98342,-60.24092 28.75705,-26.97823 50.05596,-49.01493 58.94574,-88.83181 0.87298,-5.11853 2.07524,-10.1917 2.61894,-15.3556 1.79344,-17.03371 0.26407,-35.96085 -9.20785,-50.74176 -2.13525,-3.33207 -4.99566,-6.13931 -7.49349,-9.20897 -3.25456,-2.53132 -6.22649,-5.47545 -9.76368,-7.59396 -7.84029,-4.69573 -17.58528,-7.61367 -26.48084,-9.18334 -5.38633,-0.95045 -21.74646,-1.10778 -16.31491,-1.75126 10.85192,-1.28563 21.92323,-1.41886 32.78282,-0.19971 6.34821,0.71268 -12.72355,1.15831 -19.08533,1.73746 -6.94805,1.22333 -13.95893,2.13192 -20.84416,3.66999 -41.07287,9.17513 -79.35086,28.01603 -114.23714,51.18458 -18.18061,12.72997 -27.26176,18.72371 -44.7841,32.47071 -29.35305,23.02867 -57.23548,48.09156 -82.67913,75.38481 -13.84907,15.48054 -21.62204,23.54124 -34.14759,39.97718 -18.26023,23.96096 -33.83321,50.04042 -46.23532,77.48195 -2.36883,6.20028 -4.9729,12.31572 -7.10648,18.60083 -8.98073,26.45552 -13.25619,54.09531 -9.93842,81.97188 3.34216,17.00231 6.88314,37.13904 22.70151,47.35087 2.95641,1.90856 6.32359,3.08936 9.48539,4.63405 3.77408,1.08091 7.47747,2.44917 11.32224,3.24275 13.19215,2.72292 44.30198,2.83513 -20.76332,2.3107 -4.61613,-0.0372 9.23836,-0.2684 13.82748,-0.76832 11.78747,-1.28409 15.81104,-2.82161 27.34647,-5.86971 4.24351,-1.68125 8.57791,-3.14909 12.73052,-5.04375 21.41923,-9.77269 40.04395,-24.98812 53.37714,-44.40085 2.53474,-4.17595 5.34987,-8.1941 7.60424,-12.52784 11.51872,-22.14334 14.55195,-47.20243 14.03213,-71.8374 -0.21288,-4.63546 -0.19783,-9.28701 -0.63863,-13.90637 -1.93756,-20.30452 -8.75161,-39.56072 -22.17143,-55.12146 -8.17892,-7.58045 -14.68443,-13.14674 -25.72668,-16.2107 -3.18178,-0.88287 -13.04342,-1.42395 -9.75499,-1.72291 7.95589,-0.72327 54.38304,-1.51677 23.96147,0.47046 -8.48147,1.87879 -11.77481,2.1475 -19.72165,5.72072 -13.2461,5.956 -24.87698,15.30143 -35.01726,25.54238 -9.70411,11.42526 -17.35962,23.82036 -22.37461,38.01956 0,0 -39.56794,-0.49208 -39.56794,-0.49208 z"
           inkscape:connector-curvature="0"
           transform="matrix(1.3067474,-0.01739309,0.02191998,1.0368789,-35.770233,172.89597)" />
      </g>
    </g>
  </g>
</svg>
