<?xml version="1.0" encoding="UTF-8" standalone="no"?>
<!-- Created with Inkscape (http://www.inkscape.org/) -->

<svg
   xmlns:dc="http://purl.org/dc/elements/1.1/"
   xmlns:cc="http://creativecommons.org/ns#"
   xmlns:rdf="http://www.w3.org/1999/02/22-rdf-syntax-ns#"
   xmlns:svg="http://www.w3.org/2000/svg"
   xmlns="http://www.w3.org/2000/svg"
   xmlns:sodipodi="http://sodipodi.sourceforge.net/DTD/sodipodi-0.dtd"
   xmlns:inkscape="http://www.inkscape.org/namespaces/inkscape"
   width="1000"
   height="1000"
   id="svg3004"
   version="1.1"
   inkscape:version="0.48.3.1 r9886"
   sodipodi:docname="4.svg">
  <defs
     id="defs5498" />
  <sodipodi:namedview
     inkscape:window-height="722"
     inkscape:window-width="1366"
     inkscape:pageshadow="2"
     inkscape:pageopacity="0.0"
     borderopacity="1.0"
     bordercolor="#666666"
     pagecolor="#ffffff"
     id="base"
     showgrid="false"
     showguides="true"
     inkscape:guide-bbox="true"
     inkscape:zoom="0.32102648"
     inkscape:cx="304.93926"
     inkscape:cy="574.37497"
     inkscape:window-x="0"
     inkscape:window-y="24"
     inkscape:current-layer="g3253"
     inkscape:window-maximized="1">
    <sodipodi:guide
       orientation="horizontal"
       position="854.62555,442.73128"
       id="guide5596" />
    <sodipodi:guide
       orientation="0,1"
       position="854.62555,865.63877"
       id="guide3067" />
    <sodipodi:guide
       orientation="-0.70710678,0.70710678"
       position="-814.97797,1143.1718"
       id="guide3247" />
    <sodipodi:guide
       orientation="1,0"
       position="151.98238,832.59912"
       id="guide3249" />
    <sodipodi:guide
       orientation="1,0"
       position="764.31718,731.27753"
       id="guide3251" />
    <sodipodi:guide
       orientation="0,1"
       position="-70.484581,647.57709"
       id="guide3460" />
  </sodipodi:namedview>
  <metadata
     id="metadata5594">
    <rdf:RDF>
      <cc:Work
         rdf:about="">
        <dc:format>image/svg+xml</dc:format>
        <dc:type
           rdf:resource="http://purl.org/dc/dcmitype/StillImage" />
        <dc:title></dc:title>
      </cc:Work>
    </rdf:RDF>
  </metadata>
  <g
     inkscape:label="Layer 1"
     inkscape:groupmode="layer"
     id="layer1">
    <g
       id="g3631"
       transform="matrix(0.78138664,0,0,0.96429713,145.75357,23.895527)">
      <g
         id="g3253"
         transform="matrix(0.97908453,0.01330834,-0.02069819,0.99985934,-147.93123,-197.17586)">
        <path
           style="fill:#000000;fill-opacity:1;fill-rule:nonzero;stroke:none"
           id="path7447"
           d="m 50.634774,595.8902 c 1.04207,-15.34077 11.087011,-28.76928 22.441455,-40.9638 14.821307,-14.41604 34.166191,-26.1154 56.818621,-32.34996 4.34747,-1.19654 8.86279,-1.9954 13.29418,-2.99309 35.50073,-4.13762 77.24059,-9.70915 110.17473,4.07613 11.48675,4.80802 13.33161,7.09026 22.75174,14.00684 18.33514,16.4167 29.00392,36.47779 32.88219,57.83459 0.86778,4.77875 1.12552,9.61172 1.68826,14.41759 2.31239,25.52076 -1.35971,51.36412 -16.01657,74.63569 -2.88975,4.58824 -6.50716,8.88467 -9.76074,13.327 -17.53621,20.35491 -41.47055,36.94327 -69.79874,48.06962 -5.46497,2.14646 -11.21135,3.83982 -16.81704,5.75974 -17.25009,4.78973 -35.42546,8.49708 -53.88624,8.8838 -19.74074,0.41353 -65.974831,4.09198 -94.478362,-1.63315 -4.857593,-0.97567 -9.465428,-2.57426 -14.198148,-3.8614 -3.837879,-1.82861 -7.994511,-3.31161 -11.513624,-5.48583 C 4.5284434,737.45005 -3.0426847,716.57348 -9.5911415,698.81301 -16.64058,670.50785 -13.938707,641.66712 -3.9242504,613.96377 -1.579009,607.47602 1.4552257,601.14656 4.1449571,594.73795 21.974507,558.50864 47.936932,524.71562 78.516967,493.96605 c 7.033743,-7.07273 14.593726,-13.82731 21.890583,-20.74098 47.24526,-43.24488 104.26313,-78.99849 163.54133,-111.96415 46.33209,-24.66232 97.41302,-44.68985 152.3913,-55.02711 9.49982,-1.7862 19.18764,-2.91614 28.78146,-4.37423 49.02809,-4.27319 41.93169,-4.31761 115.94487,-3.52515 10.0114,0.10719 28.07825,3.59087 37.40983,6.63777 14.24975,4.65274 16.11749,7.19041 27.42999,14.93348 19.56031,18.02216 26.69511,40.80114 25.46636,63.99419 -0.28494,5.37815 -1.37663,10.71379 -2.06495,16.0707 -6.11889,30.45289 -26.43677,56.68091 -52.99049,79.32032 -5.84022,4.97932 -12.22639,9.56403 -18.33958,14.34602 -34.28578,25.72072 -74.44926,45.4141 -116.24446,62.98826 -13.03337,5.264 -25.99493,10.78201 -39.73097,14.926 -2.56477,0.77375 -12.23722,3.43274 -15.88807,3.51961 -17.8073,0.42372 -35.62974,0.2097 -53.4446,0.31456 0.14486,-1.65695 -0.11333,-3.36408 0.43459,-4.97082 3.4203,-10.02954 28.34073,-16.22463 38.95747,-19.27203 35.83738,-8.43791 73.13189,-11.9127 110.44812,-12.99804 54.59021,-1.69661 108.889,-2.11089 160.14559,13.51067 5.44156,1.65844 10.67347,3.69651 16.01021,5.54475 22.96529,9.91886 42.41946,24.14858 51.76162,43.45329 1.74332,3.60241 2.73038,7.3955 4.09558,11.09325 5.6986,21.19538 -0.12958,41.56111 -13.72404,60.30121 -2.99127,4.12352 -6.54202,7.99259 -9.81302,11.98889 -20.09574,21.53639 -46.14974,39.11469 -76.49197,51.71319 -6.46341,2.6837 -13.21756,4.93094 -19.82633,7.3964 -26.20352,8.41685 -53.92657,14.01509 -82.221,16.08578 -32.8,2.40045 -65.87295,1.26924 -98.81585,1.59111 -22.31154,-1.93023 -47.32646,-4.4588 -65.71109,-15.4486 -2.58639,-1.54607 -4.63367,-3.56115 -6.95049,-5.34173 -7.33593,-7.34485 -12.33038,-17.82274 -2.35651,-25.39327 1.53079,-1.16194 3.49326,-1.93114 5.23991,-2.89671 2.07999,-0.62655 4.15998,-1.2531 6.23997,-1.87965 0,0 53.37031,4.58136 53.37031,4.58136 l 0,0 c -2.15882,0.38935 -4.31762,0.7787 -6.47642,1.16802 -1.94301,0.47358 -3.99451,0.73752 -5.82903,1.42074 -11.27886,4.20043 0.35658,14.68421 5.54584,18.58397 2.69564,1.46052 5.23512,3.1079 8.08692,4.38156 20.90597,9.33701 46.07755,11.64166 69.72899,12.67014 -14.59713,0.2653 -29.19175,0.641 -43.79144,0.79585 -6.21322,0.066 12.43306,-0.16492 18.62922,-0.52896 27.72067,-1.6287 54.90724,-6.85739 80.76454,-14.63864 16.06762,-5.63608 23.91003,-7.9185 38.97097,-15.06881 23.00457,-10.92161 42.99484,-24.94764 59.75345,-41.21866 20.66951,-23.18223 32.99795,-39.23732 26.29111,-68.25674 -1.33259,-3.44166 -2.27084,-6.9887 -3.9978,-10.32497 -9.70482,-18.74862 -30.94712,-31.1244 -53.66416,-39.96619 -17.42552,-5.37847 -34.60744,-9.83436 -53.08139,-12.68908 -6.59835,-1.01961 -13.24615,-1.86269 -19.91692,-2.55235 -6.89373,-0.71271 -27.58963,-0.64136 -20.75704,-1.65278 13.94755,-2.06468 28.37101,-1.04948 42.55651,-1.57421 -7.14159,0.0814 -14.2914,-0.0355 -21.42482,0.24379 -31.67173,1.23966 -63.1235,5.47051 -93.99194,10.87726 -8.50851,1.90383 -17.73932,3.74051 -25.97069,6.39354 -1.95248,0.62931 -19.8352,8.55909 -21.33954,8.60362 -0.84508,0.025 -0.67755,-1.19015 -1.01634,-1.78522 -16.35123,0.28401 -32.69872,0.80572 -49.05367,0.85194 -1.52632,0.005 3.02994,-0.362 4.48139,-0.72597 14.87418,-3.72988 27.81252,-11.17724 41.19154,-17.13031 39.23847,-18.29086 77.75919,-37.46706 111.07996,-61.97944 37.00556,-27.58723 64.37012,-50.08329 75.14168,-90.2154 1.03211,-5.15437 2.49549,-10.2689 3.09636,-15.4631 1.98201,-17.13362 -0.41823,-36.11051 -13.10937,-50.7863 -2.86095,-3.30837 -6.65836,-6.07719 -9.98756,-9.11578 -4.30662,-2.48492 -8.25267,-5.38924 -12.91985,-7.45477 -10.34495,-4.57831 -23.14113,-7.33853 -34.79869,-8.7598 -7.05875,-0.86061 -28.44065,-0.73401 -21.35664,-1.47457 14.15343,-1.47956 28.618,-1.80589 42.83463,-0.77071 8.31063,0.60515 -16.60188,1.3843 -24.90282,2.07643 -9.05339,1.34911 -18.19556,2.38331 -27.16017,4.04734 -53.4771,9.92653 -103.09687,29.5092 -148.19266,53.378 -23.48726,13.09753 -35.22681,19.2734 -57.83229,33.38061 -37.86822,23.63212 -73.77154,49.28108 -106.44065,77.12697 -17.76865,15.78387 -27.75486,24.01228 -43.77373,40.73238 -23.35292,24.37521 -43.149319,50.83074 -58.77328,78.59868 -2.963858,6.26649 -6.236916,12.45189 -8.89156,18.79946 -11.174011,26.71844 -16.174286,54.5441 -11.2471,82.47541 4.728243,17.01278 9.782824,37.16915 30.670191,47.14704 3.903791,1.86485 8.328908,2.99184 12.493369,4.48777 4.95471,1.01962 9.82315,2.32899 14.86413,3.05889 17.29661,2.50447 57.95168,2.07602 -27.083361,2.68117 -6.032906,0.0429 12.066506,-0.43017 18.052721,-1.01192 15.37599,-1.49429 20.60114,-3.108 35.61033,-6.36903 5.50951,-1.76184 11.14233,-3.31099 16.52853,-5.28552 27.78208,-10.18465 51.79693,-25.7854 68.80799,-45.50835 3.22363,-4.23689 6.81701,-8.32021 9.67091,-12.71064 14.58206,-22.43302 18.01383,-47.64595 16.81167,-72.37126 -0.37658,-4.65045 -0.45565,-9.32103 -1.12971,-13.95135 -2.96289,-20.35273 -12.27584,-39.5681 -30.14244,-54.95819 -10.84869,-7.46877 -19.4679,-12.94436 -33.96236,-15.82863 -4.17652,-0.83109 -17.07468,-1.20283 -12.78387,-1.56019 10.38097,-0.86456 71.0327,-2.46877 31.32157,0.0556 -11.04326,2.03387 -15.34113,2.36096 -25.6498,6.0868 -17.18288,6.21042 -32.18314,15.79585 -45.21655,26.25448 -12.43831,11.64013 -22.17904,24.21839 -28.43098,38.56209 0,0 -51.715745,0.19415 -51.715745,0.19415 z"
           inkscape:connector-curvature="0" />
        <path
           style="fill:#000000;fill-opacity:1;fill-rule:nonzero;stroke:none"
           id="path7516"
           d="m 785.85957,439.35446 c -8.52382,-15.04413 0.88082,-30.33067 9.6117,-43.81275 15.65006,-21.80122 37.0776,-40.04231 60.44454,-56.70072 21.78815,-14.39089 46.93843,-25.40472 74.98804,-29.67343 5.37999,-0.81876 10.86081,-1.14407 16.29122,-1.7161 36.91267,-1.15392 73.58583,-4.53114 108.91583,4.6696 16.1043,4.19395 29.9859,10.87148 44.1676,18.04305 24.8768,14.27299 42.6506,33.78498 53.9282,56.34466 2.5953,5.19171 4.5187,10.57935 6.7781,15.86902 9.9093,30.38636 11.8312,61.97202 5.3077,92.9511 -1.4235,6.75964 -3.5466,13.4147 -5.32,20.12205 -9.631,27.2824 -22.5859,54.16223 -40.8707,78.59941 -11.443,15.2933 -18.1473,21.37602 -31.7197,35.42145 -26.5716,25.67994 -57.3214,48.74531 -91.92346,67.53984 -6.1174,3.32275 -12.5178,6.30491 -18.7766,9.45737 -22.11162,10.11428 -45.39084,18.9202 -70.14831,24.12823 -11.85891,2.49465 -17.12236,2.80384 -29.02104,4.12285 -35.00405,1.36196 -71.43007,6.20159 -104.13298,-5.14828 0,0 53.48763,-5.87806 53.48763,-5.87806 l 0,0 c 7.30185,1.68886 7.72977,1.96648 15.69882,2.98673 3.42681,0.43871 13.78542,0.85338 10.32529,1.07251 -10.30722,0.65274 -70.91524,1.5481 -33.64489,0.97322 10.99475,-1.06762 15.84745,-1.25067 26.736,-3.52069 23.43,-4.88462 45.36109,-13.47932 66.2084,-23.09603 5.95577,-3.05939 12.03878,-5.9682 17.86729,-9.17818 33.55055,-18.47752 62.90199,-41.27861 88.87855,-66.19951 12.073,-12.44678 21.1516,-21.14192 31.5683,-34.5661 18.5633,-23.92245 31.5371,-50.30945 41.8784,-77.07386 1.9297,-6.56167 4.1856,-13.06826 5.7888,-19.68501 7.2939,-30.10334 6.7577,-60.82132 -2.058,-90.68593 -1.961,-5.12702 -3.602,-10.33811 -5.8832,-15.38107 -9.9732,-22.04825 -26.8889,-40.38565 -51.4546,-53.55655 -14.13,-6.80388 -27.8089,-12.90411 -43.83706,-16.53287 -5.2438,-1.1872 -10.5872,-2.11455 -15.9633,-2.83885 -5.3841,-0.72537 -21.69387,-0.97638 -16.2734,-1.50423 14.4734,-1.40945 29.1475,-0.77913 43.72126,-1.1687 -5.3747,0.39035 -10.78716,0.53267 -16.12396,1.17102 -27.55023,3.29538 -52.74704,13.46273 -74.16865,27.35018 -24.08797,16.17488 -46.0332,34.0207 -63.54426,54.98028 -9.82204,12.32896 -19.66304,25.10522 -16.33993,40.29446 0,0 -51.38763,1.81989 -51.38763,1.81989 z"
           inkscape:connector-curvature="0" />
      </g>
    </g>
  </g>
</svg>
