<?xml version="1.0" encoding="UTF-8" standalone="no"?>
<!-- Created with Inkscape (http://www.inkscape.org/) -->

<svg
   xmlns:dc="http://purl.org/dc/elements/1.1/"
   xmlns:cc="http://creativecommons.org/ns#"
   xmlns:rdf="http://www.w3.org/1999/02/22-rdf-syntax-ns#"
   xmlns:svg="http://www.w3.org/2000/svg"
   xmlns="http://www.w3.org/2000/svg"
   xmlns:sodipodi="http://sodipodi.sourceforge.net/DTD/sodipodi-0.dtd"
   xmlns:inkscape="http://www.inkscape.org/namespaces/inkscape"
   width="1000"
   height="1000"
   id="svg3004"
   version="1.1"
   inkscape:version="0.48.3.1 r9886"
   sodipodi:docname="5.svg">
  <defs
     id="defs5498" />
  <sodipodi:namedview
     inkscape:window-height="722"
     inkscape:window-width="1366"
     inkscape:pageshadow="2"
     inkscape:pageopacity="0.0"
     borderopacity="1.0"
     bordercolor="#666666"
     pagecolor="#ffffff"
     id="base"
     showgrid="false"
     showguides="true"
     inkscape:guide-bbox="true"
     inkscape:zoom="0.32102648"
     inkscape:cx="304.93926"
     inkscape:cy="574.37497"
     inkscape:window-x="0"
     inkscape:window-y="24"
     inkscape:current-layer="g3253"
     inkscape:window-maximized="1">
    <sodipodi:guide
       orientation="horizontal"
       position="854.62555,442.73128"
       id="guide5596" />
    <sodipodi:guide
       orientation="0,1"
       position="854.62555,865.63877"
       id="guide3067" />
    <sodipodi:guide
       orientation="-0.70710678,0.70710678"
       position="-814.97797,1143.1718"
       id="guide3247" />
    <sodipodi:guide
       orientation="1,0"
       position="151.98238,832.59912"
       id="guide3249" />
    <sodipodi:guide
       orientation="1,0"
       position="764.31718,731.27753"
       id="guide3251" />
    <sodipodi:guide
       orientation="0,1"
       position="-70.484581,647.57709"
       id="guide3460" />
  </sodipodi:namedview>
  <metadata
     id="metadata5594">
    <rdf:RDF>
      <cc:Work
         rdf:about="">
        <dc:format>image/svg+xml</dc:format>
        <dc:type
           rdf:resource="http://purl.org/dc/dcmitype/StillImage" />
        <dc:title></dc:title>
      </cc:Work>
    </rdf:RDF>
  </metadata>
  <g
     inkscape:label="Layer 1"
     inkscape:groupmode="layer"
     id="layer1">
    <g
       id="g3631"
       transform="matrix(0.78138664,0,0,0.96429713,145.75357,23.895527)">
      <g
         id="g3253"
         transform="matrix(0.97908453,0.01330834,-0.02069819,0.99985934,-147.93123,-197.17586)">
        <path
           style="fill:#000000;fill-opacity:1;fill-rule:nonzero;stroke:none"
           id="path7447"
           d="m 50.634774,595.8902 c 1.04207,-15.34077 11.087011,-28.76928 22.441455,-40.9638 14.821307,-14.41604 34.166191,-26.1154 56.818621,-32.34996 4.34747,-1.19654 8.86279,-1.9954 13.29418,-2.99309 35.50073,-4.13762 77.24059,-9.70915 110.17473,4.07613 11.48675,4.80802 13.33161,7.09026 22.75174,14.00684 18.33514,16.4167 29.00392,36.47779 32.88219,57.83459 0.86778,4.77875 1.12552,9.61172 1.68826,14.41759 2.31239,25.52076 -1.35971,51.36412 -16.01657,74.63569 -2.88975,4.58824 -6.50716,8.88467 -9.76074,13.327 -17.53621,20.35491 -41.47055,36.94327 -69.79874,48.06962 -5.46497,2.14646 -11.21135,3.83982 -16.81704,5.75974 -17.25009,4.78973 -35.42546,8.49708 -53.88624,8.8838 -19.74074,0.41353 -65.974831,4.09198 -94.478362,-1.63315 -4.857593,-0.97567 -9.465428,-2.57426 -14.198148,-3.8614 -3.837879,-1.82861 -7.994511,-3.31161 -11.513624,-5.48583 C 4.5284434,737.45005 -3.0426847,716.57348 -9.5911415,698.81301 -16.64058,670.50785 -13.938707,641.66712 -3.9242504,613.96377 -1.579009,607.47602 1.4552257,601.14656 4.1449571,594.73795 21.974507,558.50864 47.936932,524.71562 78.516967,493.96605 c 7.033743,-7.07273 14.593726,-13.82731 21.890583,-20.74098 47.24526,-43.24488 104.26313,-78.99849 163.54133,-111.96415 46.33209,-24.66232 97.41302,-44.68985 152.3913,-55.02711 9.49982,-1.7862 19.18764,-2.91614 28.78146,-4.37423 49.02809,-4.27319 41.93169,-4.31761 115.94487,-3.52515 10.0114,0.10719 28.07825,3.59087 37.40983,6.63777 14.24975,4.65274 16.11749,7.19041 27.42999,14.93348 19.56031,18.02216 26.69511,40.80114 25.46636,63.99419 -0.28494,5.37815 -1.37663,10.71379 -2.06495,16.0707 -6.11889,30.45289 -26.43677,56.68091 -52.99049,79.32032 -5.84022,4.97932 -12.22639,9.56403 -18.33958,14.34602 -34.28578,25.72072 -74.44926,45.4141 -116.24446,62.98826 -13.03337,5.264 -25.99493,10.78201 -39.73097,14.926 -2.56477,0.77375 -12.23722,3.43274 -15.88807,3.51961 -17.8073,0.42372 -35.62974,0.2097 -53.4446,0.31456 0.14486,-1.65695 -0.11333,-3.36408 0.43459,-4.97082 3.4203,-10.02954 28.34073,-16.22463 38.95747,-19.27203 35.83738,-8.43791 73.13189,-11.9127 110.44812,-12.99804 54.59021,-1.69661 108.889,-2.11089 160.14559,13.51067 5.44156,1.65844 10.67347,3.69651 16.01021,5.54475 22.96529,9.91886 42.41946,24.14858 51.76162,43.45329 1.74332,3.60241 2.73038,7.3955 4.09558,11.09325 5.6986,21.19538 -0.12958,41.56111 -13.72404,60.30121 -2.99127,4.12352 -6.54202,7.99259 -9.81302,11.98889 -20.09574,21.53639 -46.14974,39.11469 -76.49197,51.71319 -6.46341,2.6837 -13.21756,4.93094 -19.82633,7.3964 -26.20352,8.41685 -53.92657,14.01509 -82.221,16.08578 -32.8,2.40045 -65.87295,1.26924 -98.81585,1.59111 -22.31154,-1.93023 -47.32646,-4.4588 -65.71109,-15.4486 -2.58639,-1.54607 -4.63367,-3.56115 -6.95049,-5.34173 -7.33593,-7.34485 -12.33038,-17.82274 -2.35651,-25.39327 1.53079,-1.16194 3.49326,-1.93114 5.23991,-2.89671 2.07999,-0.62655 4.15998,-1.2531 6.23997,-1.87965 0,0 53.37031,4.58136 53.37031,4.58136 l 0,0 c -2.15882,0.38935 -4.31762,0.7787 -6.47642,1.16802 -1.94301,0.47358 -3.99451,0.73752 -5.82903,1.42074 -11.27886,4.20043 0.35658,14.68421 5.54584,18.58397 2.69564,1.46052 5.23512,3.1079 8.08692,4.38156 20.90597,9.33701 46.07755,11.64166 69.72899,12.67014 -14.59713,0.2653 -29.19175,0.641 -43.79144,0.79585 -6.21322,0.066 12.43306,-0.16492 18.62922,-0.52896 27.72067,-1.6287 54.90724,-6.85739 80.76454,-14.63864 16.06762,-5.63608 23.91003,-7.9185 38.97097,-15.06881 23.00457,-10.92161 42.99484,-24.94764 59.75345,-41.21866 20.66951,-23.18223 32.99795,-39.23732 26.29111,-68.25674 -1.33259,-3.44166 -2.27084,-6.9887 -3.9978,-10.32497 -9.70482,-18.74862 -30.94712,-31.1244 -53.66416,-39.96619 -17.42552,-5.37847 -34.60744,-9.83436 -53.08139,-12.68908 -6.59835,-1.01961 -13.24615,-1.86269 -19.91692,-2.55235 -6.89373,-0.71271 -27.58963,-0.64136 -20.75704,-1.65278 13.94755,-2.06468 28.37101,-1.04948 42.55651,-1.57421 -7.14159,0.0814 -14.2914,-0.0355 -21.42482,0.24379 -31.67173,1.23966 -63.1235,5.47051 -93.99194,10.87726 -8.50851,1.90383 -17.73932,3.74051 -25.97069,6.39354 -1.95248,0.62931 -19.8352,8.55909 -21.33954,8.60362 -0.84508,0.025 -0.67755,-1.19015 -1.01634,-1.78522 -16.35123,0.28401 -32.69872,0.80572 -49.05367,0.85194 -1.52632,0.005 3.02994,-0.362 4.48139,-0.72597 14.87418,-3.72988 27.81252,-11.17724 41.19154,-17.13031 39.23847,-18.29086 77.75919,-37.46706 111.07996,-61.97944 37.00556,-27.58723 64.37012,-50.08329 75.14168,-90.2154 1.03211,-5.15437 2.49549,-10.2689 3.09636,-15.4631 1.98201,-17.13362 -0.41823,-36.11051 -13.10937,-50.7863 -2.86095,-3.30837 -6.65836,-6.07719 -9.98756,-9.11578 -4.30662,-2.48492 -8.25267,-5.38924 -12.91985,-7.45477 -10.34495,-4.57831 -23.14113,-7.33853 -34.79869,-8.7598 -7.05875,-0.86061 -28.44065,-0.73401 -21.35664,-1.47457 14.15343,-1.47956 28.618,-1.80589 42.83463,-0.77071 8.31063,0.60515 -16.60188,1.3843 -24.90282,2.07643 -9.05339,1.34911 -18.19556,2.38331 -27.16017,4.04734 -53.4771,9.92653 -103.09687,29.5092 -148.19266,53.378 -23.48726,13.09753 -35.22681,19.2734 -57.83229,33.38061 -37.86822,23.63212 -73.77154,49.28108 -106.44065,77.12697 -17.76865,15.78387 -27.75486,24.01228 -43.77373,40.73238 -23.35292,24.37521 -43.149319,50.83074 -58.77328,78.59868 -2.963858,6.26649 -6.236916,12.45189 -8.89156,18.79946 -11.174011,26.71844 -16.174286,54.5441 -11.2471,82.47541 4.728243,17.01278 9.782824,37.16915 30.670191,47.14704 3.903791,1.86485 8.328908,2.99184 12.493369,4.48777 4.95471,1.01962 9.82315,2.32899 14.86413,3.05889 17.29661,2.50447 57.95168,2.07602 -27.083361,2.68117 -6.032906,0.0429 12.066506,-0.43017 18.052721,-1.01192 15.37599,-1.49429 20.60114,-3.108 35.61033,-6.36903 5.50951,-1.76184 11.14233,-3.31099 16.52853,-5.28552 27.78208,-10.18465 51.79693,-25.7854 68.80799,-45.50835 3.22363,-4.23689 6.81701,-8.32021 9.67091,-12.71064 14.58206,-22.43302 18.01383,-47.64595 16.81167,-72.37126 -0.37658,-4.65045 -0.45565,-9.32103 -1.12971,-13.95135 -2.96289,-20.35273 -12.27584,-39.5681 -30.14244,-54.95819 -10.84869,-7.46877 -19.4679,-12.94436 -33.96236,-15.82863 -4.17652,-0.83109 -17.07468,-1.20283 -12.78387,-1.56019 10.38097,-0.86456 71.0327,-2.46877 31.32157,0.0556 -11.04326,2.03387 -15.34113,2.36096 -25.6498,6.0868 -17.18288,6.21042 -32.18314,15.79585 -45.21655,26.25448 -12.43831,11.64013 -22.17904,24.21839 -28.43098,38.56209 0,0 -51.715745,0.19415 -51.715745,0.19415 z"
           inkscape:connector-curvature="0" />
        <path
           style="fill:#000000;fill-opacity:1;fill-rule:nonzero;stroke:none"
           id="path7575"
           d="m 677.54311,358.37406 c -4.26999,1.85748 -8.86501,2.59766 -13.51339,2.56252 -32.72099,-0.24741 -40.58593,1.39678 -65.06742,-4.08096 -20.00831,-4.85934 -29.1602,-11.17966 -41.02574,-27.71963 -9.6819,-15.48635 -15.0504,-33.04072 -14.15642,-51.41945 0.21277,-4.37412 1.00683,-8.70053 1.51025,-13.05079 7.46639,-32.12566 26.4455,-57.21534 48.09929,-81.23887 16.77354,-16.6735 35.58945,-32.87558 58.41319,-40.52246 3.43043,-1.14934 7.0087,-1.79815 10.51304,-2.69722 23.85467,-2.51822 49.86771,-7.04166 72.31974,2.81016 11.35785,4.98376 18.42232,12.10795 26.68817,21.01185 17.36509,22.00396 24.31336,49.01586 29.4974,76.00459 4.1519,25.89456 5.11538,52.26722 2.76322,78.37364 -2.45451,10.52977 -1.51314,26.13455 -9.2539,34.6513 -13.3588,-0.12078 -26.80087,1.13169 -40.07641,-0.36234 -1.65148,-0.18586 -1.66399,-2.8855 -2.3264,-4.40969 -4.4931,-10.33863 -3.94848,-21.40816 -3.72015,-32.42965 2.3989,-31.94713 10.62911,-62.98649 21.04875,-93.15151 10.3124,-24.95808 22.78817,-50.59642 43.88008,-68.35291 3.17624,-2.67397 6.7467,-4.84113 10.12005,-7.26169 9.82599,-5.13693 20.5811,-10.4986 31.99671,-10.67274 22.42273,-0.34205 45.42109,-4.64521 66.31781,4.20511 3.68867,1.56225 7.08458,3.74119 10.62687,5.61178 19.66933,13.31933 32.87876,33.15341 40.47765,55.47637 1.77741,5.22143 2.99196,10.61783 4.48793,15.92674 8.44349,37.55971 3.73279,75.61827 -2.78088,113.01235 -7.4807,37.51182 -21.52404,73.38291 -41.81425,105.83211 -4.25773,6.80921 -9.0306,13.28241 -13.5459,19.92362 -22.26149,30.02416 -47.86457,57.75217 -77.54027,80.60001 -4.81533,3.70741 -9.87136,7.09121 -14.80704,10.63681 -17.30355,11.79389 -32.79141,20.77634 -53.65651,23.72269 0,0 -42.05628,-6.16682 -42.05628,-6.16682 l 0,0 c 2.1005,-0.17626 4.23514,-0.11244 6.30149,-0.52878 14.88579,-2.99928 27.40182,-13.14135 39.42222,-21.67415 33.0502,-25.98738 62.69203,-55.9195 87.58914,-89.89949 4.55034,-6.50221 9.33991,-12.84339 13.65102,-19.50663 20.62408,-31.87653 35.16586,-67.11036 44.31987,-103.90854 3.09525,-15.3178 5.08409,-23.51717 6.91507,-38.96683 2.8266,-23.85065 2.61141,-48.08453 -1.17867,-71.81077 -1.25256,-5.13765 -2.23574,-10.34856 -3.75769,-15.41295 -6.39606,-21.28338 -18.68035,-40.14375 -37.58785,-52.19992 -3.36811,-1.60179 -6.59406,-3.54523 -10.10432,-4.80538 -13.7745,-4.94489 -38.39551,-3.57804 23.55758,-3.55032 3.57965,0.002 -7.17792,0.31002 -10.69399,0.98172 -8.2959,1.58483 -12.65937,4.10217 -20.30063,7.54666 -3.07575,2.18119 -6.39029,4.05973 -9.22725,6.54357 -19.39224,16.9785 -29.57778,43.51538 -39.72055,66.40725 -10.60977,30.11241 -20.9198,60.41152 -27.154,91.79226 -1.16142,8.43776 -2.28886,16.60192 -1.71052,25.13559 0.11623,1.71508 0.26554,3.43627 0.60513,5.1214 0.14566,0.72278 1.57343,1.97766 0.83935,2.04649 -12.24633,1.1482 -24.58403,0.88819 -36.87604,1.33229 1.57085,-0.31863 0.64083,0.0449 1.04931,-3.29814 1.14856,-9.40004 0.47403,-18.95952 1.21063,-28.39047 0.53584,-25.80958 -0.91108,-51.73771 -5.25709,-77.20654 -4.99911,-25.84263 -10.3065,-52.39775 -27.19845,-73.45922 -7.49319,-7.81779 -14.60097,-14.92045 -25.01594,-18.77197 -2.91754,-1.07893 -12.14341,-1.88416 -9.05509,-2.25619 8.3486,-1.00571 53.83198,-1.4177 25.22525,-0.2882 -3.16868,0.72141 -6.40646,1.18773 -9.50604,2.16423 -21.58915,6.80149 -38.8198,23.10249 -54.40986,38.74196 -21.03121,23.08624 -41.64775,47.8683 -50.86724,78.26385 -0.72994,4.11778 -1.77937,8.19155 -2.18981,12.35334 -1.69406,17.17792 2.82719,33.95592 11.50395,48.69485 1.61024,2.15338 3.0565,4.43972 4.83072,6.46013 9.27295,10.55967 22.67122,14.9957 35.94377,18.13141 21.56375,4.72062 29.50648,2.08073 -19.32438,3.45497 -0.46801,0.0132 5.20537,0.70008 11.55886,-0.0965 1.48092,-0.18568 2.93244,-0.55787 4.39867,-0.83681 0,0 38.79419,4.87093 38.79419,4.87093 z"
           inkscape:connector-curvature="0"
           transform="matrix(1.3067474,-0.01739309,0.02191998,1.0368789,-35.770233,172.89597)" />
      </g>
    </g>
  </g>
</svg>
