<?xml version="1.0" encoding="UTF-8" standalone="no"?>
<!-- Created with Inkscape (http://www.inkscape.org/) -->

<svg
   xmlns:dc="http://purl.org/dc/elements/1.1/"
   xmlns:cc="http://creativecommons.org/ns#"
   xmlns:rdf="http://www.w3.org/1999/02/22-rdf-syntax-ns#"
   xmlns:svg="http://www.w3.org/2000/svg"
   xmlns="http://www.w3.org/2000/svg"
   xmlns:sodipodi="http://sodipodi.sourceforge.net/DTD/sodipodi-0.dtd"
   xmlns:inkscape="http://www.inkscape.org/namespaces/inkscape"
   width="1000"
   height="1000"
   id="svg3004"
   version="1.1"
   inkscape:version="0.48.3.1 r9886"
   sodipodi:docname="6.svg">
  <defs
     id="defs5498" />
  <sodipodi:namedview
     inkscape:window-height="722"
     inkscape:window-width="1366"
     inkscape:pageshadow="2"
     inkscape:pageopacity="0.0"
     borderopacity="1.0"
     bordercolor="#666666"
     pagecolor="#ffffff"
     id="base"
     showgrid="false"
     showguides="true"
     inkscape:guide-bbox="true"
     inkscape:zoom="0.32102648"
     inkscape:cx="304.93926"
     inkscape:cy="574.37497"
     inkscape:window-x="0"
     inkscape:window-y="24"
     inkscape:current-layer="g3253"
     inkscape:window-maximized="1">
    <sodipodi:guide
       orientation="horizontal"
       position="854.62555,442.73128"
       id="guide5596" />
    <sodipodi:guide
       orientation="0,1"
       position="854.62555,865.63877"
       id="guide3067" />
    <sodipodi:guide
       orientation="-0.70710678,0.70710678"
       position="-814.97797,1143.1718"
       id="guide3247" />
    <sodipodi:guide
       orientation="1,0"
       position="151.98238,832.59912"
       id="guide3249" />
    <sodipodi:guide
       orientation="1,0"
       position="764.31718,731.27753"
       id="guide3251" />
    <sodipodi:guide
       orientation="0,1"
       position="-70.484581,647.57709"
       id="guide3460" />
  </sodipodi:namedview>
  <metadata
     id="metadata5594">
    <rdf:RDF>
      <cc:Work
         rdf:about="">
        <dc:format>image/svg+xml</dc:format>
        <dc:type
           rdf:resource="http://purl.org/dc/dcmitype/StillImage" />
        <dc:title></dc:title>
      </cc:Work>
    </rdf:RDF>
  </metadata>
  <g
     inkscape:label="Layer 1"
     inkscape:groupmode="layer"
     id="layer1">
    <g
       id="g3631"
       transform="matrix(0.78138664,0,0,0.96429713,145.75357,23.895527)">
      <g
         id="g3253"
         transform="matrix(0.97908453,0.01330834,-0.02069819,0.99985934,-147.93123,-197.17586)">
        <path
           style="fill:#000000;fill-opacity:1;fill-rule:nonzero;stroke:none"
           id="path7596"
           d="m 621.01391,407.44791 c -29.83784,5.81419 -63.28226,8.0881 -92.37029,0.24988 -2.3461,-1.07719 -4.96444,-1.91663 -7.03833,-3.23154 -9.12802,-5.78748 -11.97667,-15.96433 -11.5705,-24.12421 0.13579,-2.72713 0.91577,-5.42302 1.37363,-8.13453 6.88765,-20.7883 26.20428,-37.54909 46.48841,-53.08457 12.44986,-8.45593 25.67079,-17.40502 43.22474,-20.39084 3.62141,-0.61596 7.37132,-0.9924 11.09713,-0.96477 21.85367,0.16203 43.67981,1.02189 65.51972,1.53286 3.02673,1.57067 6.3805,2.88095 9.08018,4.71203 12.88283,8.73798 20.21906,24.17767 22.9216,36.16161 0.91669,4.06487 1.04757,8.19796 1.57137,12.29695 -0.13453,29.18047 -19.82262,55.37975 -40.06516,80.28678 -16.43219,18.7271 -34.32985,37.05055 -57.85746,51.91539 -11.42185,9.31309 -77.91446,14.35451 -62.34074,-1.00174 1.11819,-1.10258 2.7205,-1.93082 4.08076,-2.89623 10.72702,-6.55512 23.55662,-11.04001 38.15292,-11.09941 22.52191,-0.0915 45.03961,0.27627 67.55943,0.41439 30.50132,4.8376 51.04148,20.46372 69.43333,36.8003 19.32842,20.57639 27.40725,44.41397 23.3806,68.86565 -0.87928,5.33933 -2.75415,10.58178 -4.1312,15.87265 -12.39025,31.84867 -39.45965,59.53013 -72.32692,83.22047 -7.70321,5.55238 -16.04304,10.66919 -24.06455,16.00378 -32.48683,19.51689 -67.97701,37.30606 -107.99522,48.78556 -25.66275,7.36153 -31.16339,7.32457 -57.97356,11.34215 -57.85824,2.40925 -121.01214,9.32237 -171.77934,-13.49155 -19.69639,-8.85123 -22.8087,-13.0417 -38.0425,-25.1531 -20.4605,-21.00222 -29.93692,-44.68102 -26.91021,-70.01836 2.13225,-17.84912 5.85903,-22.76768 13.56374,-40.04083 22.25674,-38.05496 57.23437,-72.00745 101.47536,-99.54661 9.52631,-5.92995 19.85047,-11.22191 29.77563,-16.83287 41.63758,-20.43572 88.50109,-35.09888 138.51747,-42.45585 28.83127,-4.24082 41.77869,-4.23148 70.83555,-5.71658 56.06967,-1.14138 112.39289,-4.26013 166.27824,7.66009 18.41407,4.07347 36.0762,9.6995 52.5193,16.68515 7.96292,3.38296 15.30791,7.40832 22.96185,11.11246 35.51856,20.34434 62.4645,46.59585 75.23524,77.38567 2.34138,5.64496 3.68512,11.46677 5.52767,17.20016 5.44112,22.60068 2.85705,45.39064 -6.42826,67.39185 -5.60176,13.27315 -10.22209,19.80201 -17.99175,32.50702 -13.566,19.16839 -29.78362,37.70424 -50.52282,53.6611 -9.47771,7.29219 -15.33615,10.52179 -25.71683,16.8471 -14.01246,7.25671 -7.12743,4.10728 -20.48421,9.62359 0,0 -55.43584,-3.10165 -55.43584,-3.10165 l 0,0 c 10.31664,-5.27818 4.86817,-2.27756 16.1674,-9.1532 28.86726,-20.0562 52.0614,-43.25439 69.31494,-68.90209 20.78705,-33.41803 34.57679,-60.15365 24.25856,-96.9937 -1.99125,-5.53885 -3.46768,-11.17921 -5.97375,-16.61659 -13.69844,-29.72104 -41.35312,-55.06428 -76.42357,-74.40934 -7.7611,-3.50033 -15.21205,-7.34862 -23.28328,-10.50102 -16.61889,-6.49087 -35.46342,-11.83477 -53.85964,-15.38225 -9.95535,-1.91977 -20.10112,-3.41583 -30.31732,-4.53106 -10.63748,-1.1612 -40.65165,2.29864 -32.14806,-2.2878 10.311,-5.5613 26.10556,-0.99549 39.15834,-1.49322 -28.09003,1.21384 -40.7138,1.12753 -68.65048,4.94353 -49.41693,6.75012 -95.81647,20.67353 -137.3632,40.29049 -10.00327,5.44569 -20.36119,10.59579 -30.00987,16.33711 -45.06634,26.81604 -81.45167,59.883 -106.61073,97.00747 -9.24962,16.99357 -13.06589,20.76473 -16.11705,38.56676 -4.15408,24.23732 5.42475,46.92768 25.92546,66.58144 5.70391,4.33472 10.82819,9.0673 17.1116,13.00416 13.26053,8.30842 26.3959,13.58042 43.33024,17.64761 8.32061,1.99838 32.96328,1.02992 25.64504,4.44961 -11.32556,5.29224 -27.47851,0.56366 -40.81464,2.63886 -9.10342,1.41656 18.63966,-0.42567 27.95942,-0.63851 26.38181,-3.51901 31.32917,-3.2966 56.60542,-10.26323 39.43092,-10.86798 74.05181,-28.37719 106.02041,-47.34111 8.23796,-5.20474 16.71426,-10.23611 24.71385,-15.61416 34.00914,-22.86415 64.3991,-48.98586 79.08802,-80.48676 1.61659,-5.08242 3.77645,-10.09891 4.84979,-15.24726 4.82925,-23.16382 -2.18783,-46.14212 -19.92181,-65.94269 -17.30355,-16.20624 -34.32269,-30.28605 -64.6269,-33.9319 14.79773,-0.51049 29.61235,-0.81195 44.39317,-1.5315 3.66783,-0.17854 -7.36,-0.29121 -11.02582,-0.0928 -3.18075,0.17216 -6.32948,0.63721 -9.41646,1.19927 -7.71095,1.40402 -14.34094,4.11759 -20.66034,7.39494 -20.1018,8.61803 -21.10324,2.79887 -59.0054,2.34371 -0.37801,-0.004 0.58833,0.47641 0.95664,0.41634 1.20598,-0.19675 2.31001,-0.65017 3.34754,-1.11853 1.76917,-0.79864 3.35435,-1.77597 5.03154,-2.66396 19.73035,-15.3583 33.34669,-33.79424 48.9701,-51.11032 16.69341,-19.99529 34.96537,-42.36189 41.05587,-65.27999 1.09468,-4.11909 1.24444,-8.32792 1.86662,-12.4919 -0.77533,-13.69592 -2.51404,-35.33752 -19.15968,-45.02591 -2.52965,-1.47235 -5.71303,-2.31224 -8.56956,-3.46835 15.22285,-0.7005 30.46383,-1.22417 45.66853,-2.10149 3.47335,-0.20041 -7.00077,-0.26888 -10.45237,0.0695 -16.83305,1.65025 -29.04279,10.36387 -40.2144,18.40439 -13.82186,10.87355 -6.26524,4.58579 -19.49035,16.43086 -11.86502,10.62687 -24.02902,21.23899 -29.61632,34.31975 -3.97691,13.42357 -6.09431,23.83171 14.54532,30.27787 2.60736,0.53264 5.15859,1.2157 7.82202,1.59791 2.49165,0.35755 10.13087,0.5141 7.5866,0.61326 -86.86805,3.38614 -46.45431,2.24937 -27.72309,-1.48539 0,0 50.53347,4.3218 50.53347,4.3218 z"
           inkscape:connector-curvature="0" />
      </g>
    </g>
  </g>
</svg>
