<?xml version="1.0" encoding="UTF-8" standalone="no"?>
<!-- Created with Inkscape (http://www.inkscape.org/) -->

<svg
   xmlns:dc="http://purl.org/dc/elements/1.1/"
   xmlns:cc="http://creativecommons.org/ns#"
   xmlns:rdf="http://www.w3.org/1999/02/22-rdf-syntax-ns#"
   xmlns:svg="http://www.w3.org/2000/svg"
   xmlns="http://www.w3.org/2000/svg"
   xmlns:sodipodi="http://sodipodi.sourceforge.net/DTD/sodipodi-0.dtd"
   xmlns:inkscape="http://www.inkscape.org/namespaces/inkscape"
   width="1000"
   height="1000"
   id="svg3004"
   version="1.1"
   inkscape:version="0.48.3.1 r9886"
   sodipodi:docname="7.svg">
  <defs
     id="defs5498" />
  <sodipodi:namedview
     inkscape:window-height="722"
     inkscape:window-width="1366"
     inkscape:pageshadow="2"
     inkscape:pageopacity="0.0"
     borderopacity="1.0"
     bordercolor="#666666"
     pagecolor="#ffffff"
     id="base"
     showgrid="false"
     showguides="true"
     inkscape:guide-bbox="true"
     inkscape:zoom="0.32102648"
     inkscape:cx="55.738635"
     inkscape:cy="679.93764"
     inkscape:window-x="0"
     inkscape:window-y="24"
     inkscape:current-layer="g3253"
     inkscape:window-maximized="1">
    <sodipodi:guide
       orientation="horizontal"
       position="854.62555,442.73128"
       id="guide5596" />
    <sodipodi:guide
       orientation="0,1"
       position="854.62555,865.63877"
       id="guide3067" />
    <sodipodi:guide
       orientation="-0.70710678,0.70710678"
       position="-814.97797,1143.1718"
       id="guide3247" />
    <sodipodi:guide
       orientation="1,0"
       position="151.98238,832.59912"
       id="guide3249" />
    <sodipodi:guide
       orientation="1,0"
       position="764.31718,731.27753"
       id="guide3251" />
    <sodipodi:guide
       orientation="0,1"
       position="-70.484581,647.57709"
       id="guide3460" />
  </sodipodi:namedview>
  <metadata
     id="metadata5594">
    <rdf:RDF>
      <cc:Work
         rdf:about="">
        <dc:format>image/svg+xml</dc:format>
        <dc:type
           rdf:resource="http://purl.org/dc/dcmitype/StillImage" />
        <dc:title></dc:title>
      </cc:Work>
    </rdf:RDF>
  </metadata>
  <g
     inkscape:label="Layer 1"
     inkscape:groupmode="layer"
     id="layer1">
    <g
       id="g3631"
       transform="matrix(0.78138664,0,0,0.96429713,145.75357,23.895527)">
      <g
         id="g3253"
         transform="matrix(0.97908453,0.01330834,-0.02069819,0.99985934,-147.93123,-197.17586)">
        <path
           style="fill:#000000;fill-opacity:1;fill-rule:nonzero;stroke:none"
           id="path7679"
           d="m 271.87109,613.02795 c -7.59252,-12.82185 -3.60253,-26.5781 0.7642,-39.6145 6.93531,-15.67006 20.18133,-28.48653 38.12605,-37.08024 4.00197,-1.91655 8.31391,-3.39234 12.47087,-5.08852 12.58144,-4.06307 25.92647,-7.55785 39.67172,-7.80694 19.55834,-0.3544 57.13071,-4.33878 82.27001,2.05992 4.15605,1.05784 8.06109,2.65775 12.09162,3.98663 24.18016,10.07034 40.57545,26.61836 47.85952,47.49949 1.55965,4.471 2.33358,9.0916 3.50037,13.63739 2.86732,23.76536 -4.96581,46.84169 -22.35323,66.35489 -3.62661,4.07001 -7.87242,7.76936 -11.80863,11.65405 -23.3952,18.98675 -51.4795,34.34529 -82.72339,44.0388 -6.22596,1.93162 -12.66197,3.40638 -18.99295,5.10958 -6.3928,1.16823 -12.7082,2.64562 -19.17839,3.50467 -6.31234,0.8381 -12.69877,1.4592 -19.09714,1.57719 -22.21747,0.40973 -69.32341,4.5494 -99.02971,-2.69172 -14.08267,-3.43275 -17.87593,-6.38555 -29.95087,-12.69923 -26.82103,-17.88932 -41.17197,-43.07697 -45.74091,-70.35335 -1.14804,-6.85371 -1.35392,-13.78618 -2.0309,-20.67927 -0.0425,-43.52231 20.16334,-83.94062 49.94509,-119.95041 6.75736,-8.1705 14.34586,-15.88864 21.51879,-23.83295 39.63607,-40.36516 85.58304,-77.01921 139.75716,-105.10461 10.92129,-5.66191 22.4091,-10.60403 33.61366,-15.90605 43.36616,-18.25855 90.05868,-31.68154 138.867,-36.91285 41.91087,-4.49204 102.26573,-2.3887 137.08675,-2.45683 36.17421,3.53831 71.61754,12.84383 99.42727,32.25932 15.24787,10.64538 19.12702,17.01942 30.30824,30.1817 21.37101,31.39877 26.45579,66.75544 20.35168,101.81977 -1.33628,7.67603 -3.57703,15.23573 -5.36553,22.85359 -9.98114,32.10424 -24.90111,63.30189 -45.19104,92.22661 -13.12836,18.7154 -19.76085,25.24682 -35.20971,42.70271 -23.42199,24.12417 -49.31206,47.04433 -79.28116,66.20069 -16.22547,10.37139 -21.58259,12.50068 -38.82645,21.08288 -18.58957,8.15803 -37.73847,16.61202 -58.86634,19.80153 -21.45016,3.23816 -43.67489,0.0871 -65.50342,-0.33212 -0.88428,-3.67104 -1.86578,-5.06309 0.33259,-8.91491 5.9642,-10.45008 26.29324,-16.52334 38.20077,-20.8858 42.22878,-12.77797 87.13191,-17.86853 131.79505,-21.79603 48.22761,-2.5903 96.81123,-4.37666 145.09653,-1.91416 24.29355,1.23894 48.17824,4.21281 72.07902,7.71461 41.37732,5.7721 81.64248,15.01579 120.95252,26.63287 12.5101,3.69483 24.2728,8.5177 35.966,13.5431 5.3186,2.28579 11.0486,3.93303 15.7008,7.02147 0.2896,-0.1311 1.2019,-0.40824 0.8689,-0.39329 -16.7014,0.74952 -33.3492,2.53338 -50.0771,2.60164 -1.3577,0.006 -1.9383,-1.521 -2.7475,-2.38608 -5.9078,-6.31515 -10.28397,-13.4578 -14.71465,-20.44404 -11.80576,-19.55429 -24.54599,-38.90008 -34.86495,-58.998 -9.67636,-18.84664 -11.46935,-25.30137 -19.01869,-45.12553 -11.78781,-34.85584 -19.718,-70.59129 -24.38642,-106.48934 -1.77771,-13.66969 -3.6054,-38.37719 -4.72021,-52.20098 -0.99446,-28.88037 -2.26389,-57.89843 2.5343,-86.63061 0.91212,-5.4619 2.33902,-10.86187 3.50854,-16.2928 0,0 63.7924,-0.16537 63.7924,-0.16537 l 0,0 c -1.1139,13.42918 -2.00379,20.64917 -1.85069,34.42008 0.24979,22.48121 2.71469,44.95109 4.49546,67.37085 5.71228,52.90536 13.35925,105.73168 27.91821,157.63634 5.5279,18.32621 7.6883,26.96104 14.6822,44.65788 7.8795,19.93765 17.7223,39.38712 25.6559,59.31484 8.7302,21.08511 29.79,48.67359 -42.5101,28.23251 -20.95863,-5.57333 -40.67563,-13.71587 -61.84365,-18.87022 -40.73798,-10.80652 -82.25594,-19.58293 -124.63809,-25.33351 -24.45149,-3.11014 -48.79289,-5.8201 -73.5656,-6.75515 -8.67484,-0.32743 -34.68781,0.25149 -26.04784,-0.44662 13.51115,-1.09169 27.15718,-1.05451 40.73241,-0.73989 8.66309,0.20078 -17.30968,0.72144 -25.96453,1.08216 -46.59715,3.58273 -93.19194,8.64656 -138.03736,19.72798 -13.75422,4.04807 -27.39786,7.86618 -40.15572,13.68561 -2.29082,1.04495 -4.52275,2.17228 -6.71503,3.34278 -0.85269,0.45525 -2.09422,0.75147 -2.40787,1.52807 -0.17369,0.43008 1.06501,0.31893 1.59752,0.4784 -16.13808,0.38366 -32.27507,0.79705 -48.41422,1.15096 -2.11001,0.0462 4.24745,0.064 6.32593,-0.22802 18.45461,-2.59334 34.20814,-12.15588 50.34442,-18.94201 14.47766,-7.64864 22.3387,-11.35732 35.88293,-20.43453 28.37255,-19.015 52.26206,-41.84284 74.76566,-65.14415 14.89688,-16.81504 22.01087,-24.0176 34.92133,-41.93085 20.52222,-28.47453 36.46046,-58.99908 47.37609,-90.62413 2.02061,-7.44449 4.46998,-14.82376 6.06184,-22.33346 5.69202,-26.85243 5.69167,-55.54273 -6.80458,-81.2846 -2.81726,-5.8035 -6.83448,-11.19384 -10.25173,-16.79075 -12.3305,-13.40744 -14.56833,-17.73832 -31.33711,-28.21004 -29.62954,-18.50294 -66.30779,-26.12913 -103.24242,-28.61925 13.35791,-0.54767 26.70291,-1.93083 40.07372,-1.64304 10.88355,0.23426 -21.77321,0.77631 -32.58339,1.80427 -47.67245,4.53328 -93.31156,17.34773 -135.6719,35.01798 -11.10422,5.14303 -22.47742,9.9367 -33.31264,15.42907 -54.3075,27.52844 -100.94202,63.36134 -141.19717,103.09563 -7.54679,7.76182 -15.51196,15.27849 -22.64037,23.28544 -30.82049,34.61899 -53.27748,73.86094 -56.99947,116.52557 0.0401,6.68126 -0.47775,13.3793 0.12017,20.04375 1.85006,20.62102 10.17064,42.33602 28.25959,57.76413 3.74212,3.19167 8.28752,5.72456 12.43127,8.58684 13.57783,6.0573 15.38505,7.82604 30.95436,10.76234 6.01001,1.13345 24.38702,1.33114 18.31633,2.2384 -14.09662,2.10672 -28.65414,1.18119 -42.99461,1.44974 -12.60274,0.23599 51.35708,-1.64931 37.48327,-3.98812 15.87712,-4.02874 21.92568,-5.11741 37.15827,-10.81202 23.95154,-8.95412 45.70755,-21.28886 65.05913,-35.55302 4.11655,-3.65558 8.56555,-7.09158 12.34967,-10.96674 17.65833,-18.08325 26.02814,-39.88236 22.94944,-62.64246 -0.99442,-4.30526 -1.55523,-8.68802 -2.98326,-12.91578 -6.55732,-19.41314 -22.10747,-34.75408 -44.78259,-43.63601 -3.94366,-1.08217 -7.79028,-2.41991 -11.83099,-3.24651 -17.95001,-3.672 -49.52928,-1.64438 32.99509,-2.94622 4.25586,-0.0671 -8.51551,0.31282 -12.73344,0.76766 -12.85436,1.38614 -13.86275,2.18898 -26.02111,5.51142 -25.92537,8.92403 -41.10255,17.28262 -53.03928,38.24275 -5.46883,12.5388 -9.21752,23.29303 -5.63807,36.62379 0,0 -51.47351,2.34133 -51.47351,2.34133 z"
           inkscape:connector-curvature="0" />
      </g>
    </g>
  </g>
</svg>
