<?xml version="1.0" encoding="UTF-8" standalone="no"?>
<!-- Created with Inkscape (http://www.inkscape.org/) -->

<svg
   xmlns:dc="http://purl.org/dc/elements/1.1/"
   xmlns:cc="http://creativecommons.org/ns#"
   xmlns:rdf="http://www.w3.org/1999/02/22-rdf-syntax-ns#"
   xmlns:svg="http://www.w3.org/2000/svg"
   xmlns="http://www.w3.org/2000/svg"
   xmlns:sodipodi="http://sodipodi.sourceforge.net/DTD/sodipodi-0.dtd"
   xmlns:inkscape="http://www.inkscape.org/namespaces/inkscape"
   width="1000"
   height="1000"
   id="svg3004"
   version="1.1"
   inkscape:version="0.48.3.1 r9886"
   sodipodi:docname="9.svg">
  <defs
     id="defs5498" />
  <sodipodi:namedview
     inkscape:window-height="722"
     inkscape:window-width="1366"
     inkscape:pageshadow="2"
     inkscape:pageopacity="0.0"
     borderopacity="1.0"
     bordercolor="#666666"
     pagecolor="#ffffff"
     id="base"
     showgrid="false"
     showguides="true"
     inkscape:guide-bbox="true"
     inkscape:zoom="0.32102648"
     inkscape:cx="55.738635"
     inkscape:cy="679.93764"
     inkscape:window-x="0"
     inkscape:window-y="24"
     inkscape:current-layer="g3253"
     inkscape:window-maximized="1">
    <sodipodi:guide
       orientation="horizontal"
       position="854.62555,442.73128"
       id="guide5596" />
    <sodipodi:guide
       orientation="0,1"
       position="854.62555,865.63877"
       id="guide3067" />
    <sodipodi:guide
       orientation="-0.70710678,0.70710678"
       position="-814.97797,1143.1718"
       id="guide3247" />
    <sodipodi:guide
       orientation="1,0"
       position="151.98238,832.59912"
       id="guide3249" />
    <sodipodi:guide
       orientation="1,0"
       position="764.31718,731.27753"
       id="guide3251" />
    <sodipodi:guide
       orientation="0,1"
       position="-70.484581,647.57709"
       id="guide3460" />
  </sodipodi:namedview>
  <metadata
     id="metadata5594">
    <rdf:RDF>
      <cc:Work
         rdf:about="">
        <dc:format>image/svg+xml</dc:format>
        <dc:type
           rdf:resource="http://purl.org/dc/dcmitype/StillImage" />
        <dc:title></dc:title>
      </cc:Work>
    </rdf:RDF>
  </metadata>
  <g
     inkscape:label="Layer 1"
     inkscape:groupmode="layer"
     id="layer1">
    <g
       id="g3631"
       transform="matrix(0.78138664,0,0,0.96429713,145.75357,23.895527)">
      <g
         id="g3253"
         transform="matrix(0.97908453,0.01330834,-0.02069819,0.99985934,-147.93123,-197.17586)">
        <path
           style="fill:#000000;fill-opacity:1;fill-rule:nonzero;stroke:none"
           id="path7827"
           d="m 148.77781,571.07496 c -24.12855,0.82086 -26.03967,0.93956 -67.339313,0.5091 -2.947013,-0.0307 -12.075535,-1.76284 -14.857703,-2.69833 -5.220093,-1.75526 -6.735088,-3.27566 -10.825758,-6.16817 -9.022897,-11.69841 -9.01282,-25.90037 -7.531675,-39.17056 4.240092,-21.75688 20.47269,-38.45281 38.245319,-54.28035 11.97984,-9.5731 25.90568,-18.74992 42.60197,-22.28247 3.78314,-0.80044 7.70264,-1.29717 11.61349,-1.3509 22.91841,-0.31474 45.84375,0.16453 68.76562,0.2468 26.70023,5.05709 39.68113,16.3068 52.64716,35.05118 10.78092,21.43979 7.5709,37.51093 -3.6804,58.0769 -8.17468,12.87467 -20.33566,23.26964 -34.48012,31.93854 4.6071,-3.20999 -3.90534,2.97754 -3.99884,1.75441 -0.0683,-0.89685 1.89448,-2.55284 0.78498,-2.61954 -67.08891,-4.03225 -60.7905,1.11033 -39.68971,-1.03079 34.71101,-3.26483 69.84833,-3.66815 104.71507,-1.81973 35.13416,2.89283 70.28558,5.65571 105.55692,7.13635 7.76683,0.17447 15.53236,0.39541 23.30048,0.52344 8.38762,0.13823 16.77658,0.30228 25.16564,0.2753 9.3002,-0.0299 37.1943,-0.35019 27.89478,-0.44596 -13.68112,-0.14086 -27.40525,1.19277 -41.04441,0.31055 -9.55603,-0.61811 19.1555,-0.65282 28.72474,-1.10743 9.72558,-0.46201 19.43727,-1.09484 29.15597,-1.64225 49.10688,-3.83988 98.21494,-7.60585 147.4585,-10.11179 18.10489,-0.82957 36.22691,-1.47187 54.36257,-1.58673 18.99758,0.14679 40.47212,-6.08651 57.38982,-0.59889 2.37859,0.77154 -0.10835,4.13854 -0.13411,6.20812 -51.68963,1.35267 -48.17589,10.04808 -55.36518,-11.02985 -6.16827,-14.87617 -6.58835,-30.89031 -8.11025,-46.4114 -2.9864,-33.50316 -5.43733,-67.02798 -12.36622,-100.17546 -6.36854,-23.80444 -17.75589,-47.02036 -34.53847,-67.35674 -2.97344,-3.60299 -6.36334,-6.9702 -9.54494,-10.4553 -14.83309,-14.12423 -34.3226,-27.90108 -56.42431,-34.01863 -3.63215,-1.00532 -7.46836,-1.44107 -11.20254,-2.16161 -37.58194,-0.10895 28.82644,0.0293 34.75636,0.75997 4.02023,0.49529 -7.78486,1.99573 -11.40884,3.48387 -13.05929,5.36272 -22.42849,13.75221 -31.83657,22.51806 -23.66728,25.75826 -28.11231,58.1603 -35.50986,88.75029 -10.91161,44.0175 -8.14393,88.84606 -5.56448,133.3603 0.70928,28.75528 0.99341,57.56177 4.44616,86.21661 1.11996,9.29449 4.16655,26.97268 5.73765,36.40396 2.76089,13.73685 4.39685,27.78819 9.11096,41.23294 3.05336,8.70839 7.75562,17.05545 12.80595,25.09936 3.02088,3.81537 5.53356,7.72262 7.77572,11.83466 6.00148,11.00681 66.1932,1.60908 -47.45443,1.56296 8.18907,-8.08566 19.2102,-12.09377 31.24893,-15.18357 31.53324,-5.36933 65.2218,-3.31421 96.72773,-3.75419 20.29344,-0.28337 40.56507,0.38357 60.84839,0.81964 56.22003,0.82095 112.42689,1.9971 168.65521,2.40909 -21.91321,1.03664 82.61264,-0.77974 61.98195,0.10893 -13.85472,0.59675 -27.74621,0.60294 -41.62018,0.4695 -9.26212,-0.089 18.51723,-0.44259 27.77772,-0.60265 37.81801,-0.65364 75.64651,-0.84196 113.47014,-1.23718 22.9982,0.71303 46.1927,-0.80623 69.0344,1.88374 20.4391,0.89251 0.3031,-0.0568 -45.3469,0.76825 -0.6563,0.012 1.38,-0.0227 1.9458,0.24695 0.3651,0.17375 0.4878,0.59208 0.5325,0.93239 0.1261,0.96042 -1.4307,1.37921 -2.0821,1.73342 -10.211,-0.15393 -17.7404,-7.65599 -25.0912,-12.53284 -20.04598,-13.79085 -35.42496,-30.73494 -49.35536,-48.61237 -20.56115,-28.305 -33.51378,-59.77729 -39.67338,-92.16896 -1.63933,-8.62074 -2.46682,-17.32911 -3.70022,-25.99365 -4.34026,-46.90139 3.25755,-93.95238 21.28878,-138.63406 3.38529,-8.38883 7.57504,-16.55149 11.36255,-24.82724 18.69798,-37.58836 41.84416,-70.49345 76.59963,-99.74767 3.1082,-2.11769 6.2164,-4.23536 9.3247,-6.35305 0,0 57.7512,3.02487 57.7512,3.02487 l 0,0 c -2.1194,2.0183 -4.2389,4.0366 -6.3583,6.05489 -27.2224,29.95388 -47.8504,63.38051 -63.8702,98.16908 -3.4317,8.13758 -7.2088,16.18516 -10.2946,24.41275 -16.5877,44.22733 -24.13078,90.31803 -22.56968,136.51493 1.39403,19.40089 1.51367,30.00771 5.28618,48.98538 4.6365,23.3228 13.5905,46.03587 26.6105,67.17969 11.5918,17.34627 25.4299,33.41579 42.4173,47.65136 6.2997,5.23673 12.2665,9.5364 21.0401,11.6248 13.1787,19.49051 -43.111,8.60261 -60.0753,8.74384 -26.5304,-1.22855 -53.12522,0.1108 -79.67617,0.0976 14.68376,-0.19113 29.36611,-0.47113 44.05133,-0.57275 7.91624,-0.0547 -15.83111,0.22838 -23.74356,0.43226 -8.72276,0.22476 -17.43515,0.6917 -26.16007,0.85374 -54.09928,1.00467 -108.19694,1.99202 -162.31061,1.34187 -53.97301,-0.6722 -107.9214,-2.0915 -161.87288,-3.46397 -10.31595,-0.32838 -29.01049,-0.97381 -39.61672,-1.125 -5.62521,-0.0802 -22.49952,0.1317 -16.87791,-0.0464 86.92073,-2.75349 38.99142,-1.13495 19.44208,0.52748 -13.48669,2.15854 -26.04858,5.85727 -36.27906,13.58563 -58.26306,1.41184 -44.33384,9.67242 -67.89905,-13.98794 -17.27314,-20.85665 -24.7796,-43.43614 -31.11557,-67.82299 -2.46874,-10.68985 -6.17926,-26.05552 -7.95957,-36.72429 -4.77871,-28.63586 -5.82351,-57.61155 -7.61075,-86.42972 -2.25431,-45.13778 -3.94777,-90.62333 9.9893,-134.81808 9.31834,-31.55769 16.6306,-64.55429 41.12637,-91.2012 10.32691,-9.61646 20.36167,-18.24092 34.27436,-24.62683 27.88286,-12.79815 62.46275,-8.64077 93.49602,-6.2016 3.9896,0.95122 8.07517,1.67093 11.96893,2.85367 23.62221,7.17531 43.29864,20.87758 59.34147,36.27074 3.36402,3.62533 6.93144,7.13321 10.09202,10.87598 17.6012,20.84331 29.87995,44.71816 37.30351,69.12744 1.38558,5.55308 3.04794,11.06587 4.15672,16.65923 5.52028,27.8475 6.16923,56.38119 4.21407,84.47044 -1.06722,15.23067 -3.43642,30.66888 -0.0251,45.81328 1.79204,19.2311 10.18491,6.6048 -47.0492,6.9995 0.11332,1.99065 0.34506,3.97925 0.33975,5.97195 -9e-4,0.31957 -2.63306,0.28294 -2.60252,0.28259 43.4563,-0.49857 65.52671,-0.98286 46.42652,-0.57011 -14.86358,0.64399 -29.71869,1.42642 -44.54865,2.46232 -46.24277,3.22491 -92.34747,7.54659 -138.55189,11.09637 -75.59835,4.58772 -151.62836,6.03466 -227.36549,2.93459 -33.45906,-1.97169 -66.83994,-4.69366 -100.15358,-7.89563 -26.81566,-1.54355 -15.8772,-0.6087 34.03799,-1.61643 3.03392,-0.0613 -6.06823,0.11698 -9.10119,0.20464 -4.76877,0.13793 -8.38734,0.29119 -13.07189,0.61404 -1.77884,0.12259 -3.55337,0.28418 -5.33006,0.42626 -21.79092,1.83174 -38.21759,2.42429 -63.65862,0.90495 -0.96818,-0.0577 -1.99538,-4.883 -1.68927,-5.73167 0.28582,-0.79282 1.18748,-1.34431 1.78122,-2.01648 11.40002,-8.98074 22.23703,-18.36649 29.27958,-30.08721 10.38448,-19.48256 15.52929,-33.32321 3.84243,-53.66168 -13.04,-17.75042 -25.45946,-27.40076 -51.53075,-30.64505 15.42617,-0.51324 30.85693,-0.94287 46.27826,-1.5397 3.74496,-0.14499 -7.54649,-0.30915 -11.2454,0.18383 -16.0386,2.13787 -29.80191,11.3054 -41.05066,20.07013 -17.5677,14.83735 -34.30568,30.74816 -39.94227,51.32051 -1.90606,8.32829 -5.90609,23.60643 0.23178,31.49848 0.88413,1.1369 2.25209,1.97536 3.37814,2.96304 6.13441,2.94515 11.62192,4.64704 18.74328,5.54623 2.4747,0.31247 9.9701,0.5657 7.46879,0.66674 -25.43491,1.0276 -66.210206,0.87805 -39.445464,0.94077 0,0 52.245684,5.97149 52.245684,5.97149 z"
           inkscape:connector-curvature="0" />
      </g>
    </g>
  </g>
</svg>
