<?xml version="1.0" encoding="UTF-8" standalone="no"?>
<!-- Created with Inkscape (http://www.inkscape.org/) -->

<svg
   xmlns:dc="http://purl.org/dc/elements/1.1/"
   xmlns:cc="http://creativecommons.org/ns#"
   xmlns:rdf="http://www.w3.org/1999/02/22-rdf-syntax-ns#"
   xmlns:svg="http://www.w3.org/2000/svg"
   xmlns="http://www.w3.org/2000/svg"
   xmlns:sodipodi="http://sodipodi.sourceforge.net/DTD/sodipodi-0.dtd"
   xmlns:inkscape="http://www.inkscape.org/namespaces/inkscape"
   width="1000"
   height="1000"
   id="svg3004"
   version="1.1"
   inkscape:version="0.48.3.1 r9886"
   sodipodi:docname="aa.svg">
  <defs
     id="defs5498" />
  <sodipodi:namedview
     inkscape:window-height="722"
     inkscape:window-width="1366"
     inkscape:pageshadow="2"
     inkscape:pageopacity="0.0"
     borderopacity="1.0"
     bordercolor="#666666"
     pagecolor="#ffffff"
     id="base"
     showgrid="false"
     showguides="true"
     inkscape:guide-bbox="true"
     inkscape:zoom="0.454"
     inkscape:cx="500"
     inkscape:cy="500"
     inkscape:window-x="0"
     inkscape:window-y="24"
     inkscape:current-layer="g3253"
     inkscape:window-maximized="1">
    <sodipodi:guide
       orientation="horizontal"
       position="854.62555,442.73128"
       id="guide5596" />
    <sodipodi:guide
       orientation="0,1"
       position="854.62555,865.63877"
       id="guide3067" />
    <sodipodi:guide
       orientation="-0.70710678,0.70710678"
       position="-814.97797,1143.1718"
       id="guide3247" />
    <sodipodi:guide
       orientation="1,0"
       position="151.98238,832.59912"
       id="guide3249" />
    <sodipodi:guide
       orientation="1,0"
       position="764.31718,731.27753"
       id="guide3251" />
    <sodipodi:guide
       orientation="0,1"
       position="867.84141,687.22467"
       id="guide3460" />
  </sodipodi:namedview>
  <metadata
     id="metadata5594">
    <rdf:RDF>
      <cc:Work
         rdf:about="">
        <dc:format>image/svg+xml</dc:format>
        <dc:type
           rdf:resource="http://purl.org/dc/dcmitype/StillImage" />
        <dc:title></dc:title>
      </cc:Work>
    </rdf:RDF>
  </metadata>
  <g
     inkscape:label="Layer 1"
     inkscape:groupmode="layer"
     id="layer1">
    <g
       id="g3631"
       transform="matrix(0.78138664,0,0,0.96429713,145.75357,23.895527)">
      <g
         id="g3253"
         transform="matrix(0.97908453,0.01330834,-0.02069819,0.99985934,-147.93123,-197.17586)">
        <g
           id="g3124"
           transform="translate(-29.537564,-36.944997)">
          <g
             id="g3120">
            <g
               id="layer1-1"
               inkscape:label="Layer 1"
               transform="translate(-3.1940629,-25.684135)">
              <g
                 id="g3607">
                <g
                   id="g3585">
                  <g
                     id="g3564">
                    <g
                       id="g3544">
                      <g
                         id="g3525">
                        <g
                           id="g3507">
                          <g
                             id="g3490">
                            <g
                               id="g3474">
                              <g
                                 id="g3459">
                                <g
                                   id="g3445">
                                <g
                                   id="g3432">
                                <g
                                   id="g3420">
                                <g
                                   id="g3409">
                                <g
                                   id="g3399">
                                <g
                                   id="g3390">
                                <g
                                   id="g3382">
                                <g
                                   id="g3375">
                                <g
                                   id="g3369">
                                <g
                                   id="g3364">
                                <g
                                   id="g3360">
                                <g
                                   id="g3357">
                                <path
                                   inkscape:connector-curvature="0"
                                   id="path4732"
                                   style="fill:#000000;fill-opacity:1;fill-rule:nonzero;stroke:none"
                                   d="m 212.20004,815.72411 c -27.64521,3.71272 -55.80141,2.68712 -83.46305,-0.36007 C 110.70633,811.92162 93.423274,804.42585 78.329175,793.03231 74.730687,790.31605 71.37777,787.22885 67.902029,784.3271 47.773476,765.212 32.001367,741.26442 21.912121,714.20428 19.595034,707.98969 17.86531,701.53049 15.841905,695.19357 6.1811287,658.44526 4.8737167,619.70208 11.165546,582.07835 c 1.434068,-8.5754 3.564423,-16.99429 5.346664,-25.49147 12.571907,-49.19312 33.290264,-95.37526 60.399763,-136.91879 6.046956,-9.26659 12.673489,-18.0626 19.010227,-27.09389 33.68675,-43.34218 72.31923,-82.90794 117.50635,-111.54215 8.64463,-5.47793 17.70891,-10.11747 26.56336,-15.1762 34.41504,-16.96506 71.13949,-28.86948 108.89397,-31.96403 28.5108,-2.33689 84.35062,2.52446 101.82508,3.44461 24.87557,5.23367 49.4762,14.57676 68.75781,33.24258 10.62752,10.2881 12.36378,14.78289 20.23957,27.46986 13.44891,29.15283 15.07375,61.58984 7.85878,93.08357 -1.59811,6.97583 -3.9266,13.727 -5.88991,20.59048 -10.1803,29.2101 -25.49507,55.70899 -44.33265,79.1438 -11.70359,14.55985 -17.97143,20.03476 -31.05737,33.00411 -26.9907,24.82768 -57.19663,45.31942 -89.74042,60.09607 -18.52744,6.19978 -32.83209,4.17876 -54.23084,-0.91509 -1.59787,-0.38034 -0.20147,-3.62654 0.16342,-5.37425 1.19461,-5.72127 3.41773,-7.56935 6.76474,-12.17793 16.41558,-19.06842 38.01326,-29.86266 60.23542,-38.26256 12.62057,-3.9127 25.74286,-6.90963 38.93803,-6.68738 41.58775,0.70051 50.41765,-2.03829 81.50618,8.79156 17.68704,8.08046 32.55445,21.68942 40.05863,41.43105 1.56176,4.10862 2.45994,8.4845 3.68991,12.72679 6.15592,35.36585 -2.98799,65.19001 -15.39431,97.40367 -12.72814,28.84173 -30.20154,55.1013 -53.34565,74.96472 -4.78188,4.10402 -9.93414,7.66115 -14.9012,11.49176 -25.72274,17.14063 -54.3542,28.40503 -84.5178,30.53965 -5.63542,0.39882 -11.29285,0.13297 -16.93927,0.19936 -33.59874,-1.99107 -51.99764,2.70197 -78.51605,-8.93204 -14.21968,-6.23837 -27.33957,-15.93607 -37.64702,-28.36595 -3.46611,-4.17981 -6.31547,-8.92744 -9.47319,-13.39116 -16.30517,-27.47607 -21.92858,-59.40465 -20.03694,-91.87787 0.4272,-7.33363 1.55319,-14.59925 2.32975,-21.89889 6.75259,-41.73161 22.05587,-81.15114 43.58346,-116.3169 4.70741,-7.6897 9.95482,-14.9659 14.93225,-22.44885 26.78027,-37.3336 59.29247,-69.30579 95.97274,-94.59632 6.72166,-4.63449 13.7543,-8.70294 20.63145,-13.05442 15.60675,-7.97574 22.9119,-12.49978 39.23806,-17.86874 31.48554,-10.35421 64.04017,-7.5467 96.56216,-4.54663 4.66325,0.43017 8.90314,3.15378 13.35472,4.7307 4.10079,2.42907 8.45428,4.4047 12.30239,7.28722 17.53347,13.13392 30.11417,34.16639 38.73498,55.00419 2.49427,6.02905 4.44354,12.31208 6.6653,18.46814 12.95176,41.12777 18.01158,84.42634 21.59033,127.55993 3.30244,42.6793 1.36909,85.57443 -0.81359,128.26625 -0.98686,25.5258 -4.08246,50.86312 -5.70684,76.33249 -1.21451,21.79758 -3.28745,14.1315 -39.10907,7.20389 -1.42307,-0.2752 -0.65663,-3.08415 -0.9626,-4.63169 -0.42521,-2.15066 -0.82058,-4.30834 -1.23087,-6.46253 -4.40597,-27.77376 -4.74652,-56.07641 -4.68611,-84.19416 1.14382,-26.80362 4.20667,-53.62893 10.78738,-79.54323 3.98709,-15.7008 7.42476,-24.27465 12.80667,-39.4518 15.66917,-42.5449 39.53807,-78.5933 66.08433,-113.61579 22.61204,-27.54907 48.11862,-52.89396 77.97159,-70.73682 5.26724,-3.14817 10.8069,-5.71386 16.21033,-8.57079 20.26642,-9.25578 41.84508,-13.97019 63.80877,-12.88581 63.30358,3.1254 42.69224,-2.18943 76.39402,8.68644 26.31778,11.58801 47.09908,32.8056 62.61218,58.53615 3.33155,5.52585 6.18826,11.37877 9.2824,17.06818 14.46471,30.19372 22.47922,63.31566 25.47974,97.18492 0.61855,6.98158 0.81698,14.00088 1.22552,21.00133 0.70804,28.72586 -1.51753,57.77032 -8.3269,85.61821 -4.39421,17.97067 -6.84631,22.73553 -13.3793,39.70073 -13.26492,29.11033 -31.62967,55.29763 -55.47203,74.95735 -4.15626,3.42713 -8.65838,6.31871 -12.98755,9.47808 -15.27074,8.97461 -32.14319,17.06429 -49.87388,16.712 -53.06398,-1.05431 -37.5439,3.46037 -63.16924,-5.6687 -22.09507,-12.76754 -26.72631,-29.03414 -30.8285,-54.62094 -2.20953,-28.30696 3.07735,-56.56012 14.3524,-82.13161 2.54109,-5.76311 5.63251,-11.21549 8.44877,-16.82324 16.07106,-28.05938 37.94055,-51.39892 64.13268,-67.99686 4.99067,-3.16258 10.24044,-5.80557 15.36066,-8.70836 17.41448,-8.38861 35.80645,-14.83954 54.82066,-16.81473 16.02683,-1.66488 60.09641,1.50982 60.3526,1.5192 2.04088,0.85211 4.08174,1.70416 6.12259,2.55625 0,0 -40.89887,4.86179 -40.89887,4.86179 l 0,0 c -2.30006,-0.52658 -4.60011,-1.05319 -6.90018,-1.57976 11.38472,0.13267 22.77178,0.12184 34.15418,0.39806 2.97042,0.0724 -5.95093,-0.0606 -8.91193,0.21447 -17.55921,1.63213 -34.53819,8.10272 -50.57445,15.77814 -4.97789,2.75589 -10.0798,5.25738 -14.93367,8.26763 -25.76802,15.98074 -47.6086,38.39799 -64.01166,65.37382 -6.96319,13.01832 -10.73181,18.9417 -15.86289,32.94611 -7.25279,19.79526 -10.98165,41.15494 -10.86077,62.44392 2.64101,25.34348 6.18699,38.95624 29.12938,49.14471 19.49691,4.99766 15.93512,3.23128 -23.56034,2.55233 -3.53614,-0.0609 7.09358,0.0231 10.60175,-0.47301 12.81849,-1.81285 24.8409,-7.2074 36.04395,-14.07605 4.03791,-3.00059 8.2402,-5.75105 12.11369,-9.00167 22.84436,-19.17096 40.70527,-44.4499 53.43861,-72.5782 5.82368,-15.78951 8.6744,-22.17112 12.75659,-38.76754 6.73182,-27.36866 8.86782,-55.85443 8.67181,-84.09632 -0.32882,-6.87011 -0.42331,-13.75885 -0.98639,-20.61032 -2.726,-33.16764 -10.66282,-65.48031 -24.85082,-94.99187 -2.97336,-5.52292 -5.70785,-11.20909 -8.92008,-16.56873 -14.93246,-24.91485 -35.02756,-44.94461 -60.85448,-55.1528 -4.86902,-1.39242 -19.46594,-2.72816 -14.60708,-4.17727 10.22752,-3.0503 21.20953,-0.0779 31.77694,-0.94347 4.96124,-0.40647 -9.94614,-0.63365 -14.91774,-0.4378 -16.1292,0.63565 -31.8464,4.62702 -46.78882,11.25161 -5.21281,2.69202 -10.57633,5.0577 -15.63843,8.07608 -29.05754,17.32616 -53.16004,43.0231 -75.60052,69.21695 -26.52387,34.21656 -51.50518,70.04192 -67.63564,111.68616 -5.86553,15.94316 -8.59395,22.17587 -12.94081,38.67315 -6.73345,25.55492 -10.1798,51.95054 -12.28813,78.38528 -1.57293,27.78952 -2.30549,55.62605 -3.15245,83.45127 -0.0581,2.17285 -0.0597,4.34827 -0.17328,6.51857 -0.073,1.39219 0.87365,3.96171 -0.38584,4.1623 -33.43112,5.32377 -35.77239,13.09349 -39.6575,-8.05297 -3.50283,-25.41222 -2.38078,-51.27284 -2.48411,-76.89055 0.47299,-42.52227 2.09193,-85.15237 -0.85861,-127.60233 -3.7022,-42.49661 -8.12827,-85.1823 -19.90841,-126.05933 -8.92362,-26.11218 -19.41112,-54.5702 -42.31802,-69.78973 -3.90117,-2.59198 -8.28192,-4.19859 -12.42288,-6.29788 -14.5193,-3.80523 -40.47535,-9.34709 18.25392,-3.74605 5.13979,0.4902 -10.31346,0.77149 -15.4026,1.71213 -18.80522,3.47573 -36.30265,11.63863 -53.04134,21.43517 -6.52503,4.2553 -13.19577,8.25276 -19.57506,12.7659 -35.86972,25.37657 -68.09459,56.72789 -95.36129,92.70679 -5.1194,7.31257 -10.50317,14.41198 -15.35821,21.93776 -22.1105,34.27334 -38.43237,72.68316 -46.91883,113.64107 -0.98966,7.09656 -2.31609,14.14704 -2.969,21.28978 -2.83479,31.01228 1.2714,61.91858 17.22496,88.18296 3.14703,4.19217 5.99983,8.67196 9.4411,12.57658 10.46664,11.87589 23.60706,20.60548 37.83604,25.95616 4.94639,1.86003 20.21048,2.76721 15.17974,4.34892 -10.1411,3.18849 -21.08744,0.54904 -31.63116,0.82358 5.50548,0.10316 11.01406,0.54867 16.51642,0.30893 29.6617,-1.29227 57.91838,-11.85155 83.50472,-28.01644 5.00791,-3.63982 10.18941,-7.00764 15.02366,-10.91943 23.36078,-18.90317 41.01591,-44.08576 53.86044,-72.46218 12.28527,-29.64052 23.49339,-60.44388 19.06006,-93.64457 -1.09659,-3.93683 -1.84511,-8.01142 -3.28976,-11.81047 -7.31731,-19.24247 -23.12827,-30.79601 -40.4613,-37.51119 -3.90124,-1.14933 -7.75186,-2.52814 -11.70373,-3.448 -14.75663,-3.43478 -37.72609,-3.63899 19.88971,-2.01518 4.28718,0.12011 -8.58475,0.0477 -12.86136,0.40728 -11.70904,0.98431 -14.37689,2.11425 -25.84169,4.92353 -23.0447,8.02623 -44.99841,18.76843 -63.97859,35.53838 -2.03069,1.74953 -4.11602,3.42548 -6.0921,5.24862 -1.29903,1.19848 -2.55771,2.45677 -3.72479,3.80852 -0.30151,0.3492 -0.20911,1.24796 -0.64745,1.25543 -12.17191,0.20751 -24.34199,-0.47186 -36.51413,-0.62194 -1.09284,-0.0148 2.20669,0.47701 3.27289,0.21204 2.02132,-0.5024 3.86496,-1.64429 5.79743,-2.46644 28.97023,-16.87206 56.69044,-36.64956 81.99399,-59.55581 5.31121,-5.15618 10.79622,-10.10504 15.93362,-15.46857 25.51204,-26.63489 46.51889,-58.24813 60.65613,-93.6588 2.14793,-6.63969 4.6416,-13.1575 6.44382,-19.91908 6.31889,-23.70707 8.28629,-49.8514 0.72028,-73.54519 -1.68145,-5.26562 -4.33608,-10.0938 -6.5041,-15.14071 -8.60524,-12.65971 -9.49561,-15.76046 -21.18556,-25.5847 -21.07984,-17.71551 -47.08535,-25.64291 -72.9444,-29.91369 9.95195,-0.31355 19.97615,0.41942 29.85584,-0.94069 7.99821,-1.10114 -16.13452,-0.39872 -24.17885,0.15911 -36.77191,2.54927 -72.62452,14.07823 -106.25191,30.16594 -8.73351,4.88154 -17.689,9.31227 -26.20054,14.64468 -44.68944,27.99754 -82.66182,67.44212 -116.52048,109.47282 -6.49966,8.87493 -13.24698,17.53892 -19.49902,26.62481 -28.03896,40.74807 -50.666823,85.83765 -65.168852,134.39699 -2.0286,8.31158 -4.386472,16.53539 -6.085721,24.9347 -7.383162,36.49451 -7.532016,74.2297 1.361008,110.38034 1.852267,6.15305 3.42055,12.418 5.556809,18.45914 9.189138,25.98596 23.404715,49.36915 42.525536,67.78895 3.27797,2.7547 6.43913,5.68465 9.8339,8.26405 14.36865,10.91747 30.98586,17.69256 48.26707,20.34781 18.40636,1.72808 17.90267,1.45583 -24.1417,0.20928 -2.781,-0.082 5.56418,-0.0527 8.34602,-0.0994 8.4396,-0.14118 6.06685,-0.11014 13.79392,-0.45109 1.76729,-0.078 3.53484,-0.14907 5.30226,-0.22363 0,0 37.51485,6.88954 37.51485,6.88954 z" />
                                </g>
                                </g>
                                </g>
                                </g>
                                </g>
                                </g>
                                </g>
                                </g>
                                </g>
                                </g>
                                </g>
                                </g>
                              </g>
                            </g>
                          </g>
                        </g>
                      </g>
                    </g>
                  </g>
                </g>
              </g>
            </g>
          </g>
        </g>
      </g>
    </g>
  </g>
</svg>
