<?xml version="1.0" encoding="UTF-8" standalone="no"?>
<!-- Created with Inkscape (http://www.inkscape.org/) -->

<svg
   xmlns:dc="http://purl.org/dc/elements/1.1/"
   xmlns:cc="http://creativecommons.org/ns#"
   xmlns:rdf="http://www.w3.org/1999/02/22-rdf-syntax-ns#"
   xmlns:svg="http://www.w3.org/2000/svg"
   xmlns="http://www.w3.org/2000/svg"
   xmlns:sodipodi="http://sodipodi.sourceforge.net/DTD/sodipodi-0.dtd"
   xmlns:inkscape="http://www.inkscape.org/namespaces/inkscape"
   width="1000"
   height="1000"
   id="svg3004"
   version="1.1"
   inkscape:version="0.48.3.1 r9886"
   sodipodi:docname="aa.svg">
  <defs
     id="defs5498" />
  <sodipodi:namedview
     inkscape:window-height="722"
     inkscape:window-width="1366"
     inkscape:pageshadow="2"
     inkscape:pageopacity="0.0"
     borderopacity="1.0"
     bordercolor="#666666"
     pagecolor="#ffffff"
     id="base"
     showgrid="false"
     showguides="true"
     inkscape:guide-bbox="true"
     inkscape:zoom="0.454"
     inkscape:cx="500"
     inkscape:cy="500"
     inkscape:window-x="0"
     inkscape:window-y="24"
     inkscape:current-layer="g3253"
     inkscape:window-maximized="1">
    <sodipodi:guide
       orientation="horizontal"
       position="854.62555,442.73128"
       id="guide5596" />
    <sodipodi:guide
       orientation="0,1"
       position="854.62555,865.63877"
       id="guide3067" />
    <sodipodi:guide
       orientation="-0.70710678,0.70710678"
       position="-814.97797,1143.1718"
       id="guide3247" />
    <sodipodi:guide
       orientation="1,0"
       position="151.98238,832.59912"
       id="guide3249" />
    <sodipodi:guide
       orientation="1,0"
       position="764.31718,731.27753"
       id="guide3251" />
    <sodipodi:guide
       orientation="0,1"
       position="867.84141,687.22467"
       id="guide3460" />
  </sodipodi:namedview>
  <metadata
     id="metadata5594">
    <rdf:RDF>
      <cc:Work
         rdf:about="">
        <dc:format>image/svg+xml</dc:format>
        <dc:type
           rdf:resource="http://purl.org/dc/dcmitype/StillImage" />
        <dc:title></dc:title>
      </cc:Work>
    </rdf:RDF>
  </metadata>
  <g
     inkscape:label="Layer 1"
     inkscape:groupmode="layer"
     id="layer1">
    <g
       id="g3631"
       transform="matrix(0.78138664,0,0,0.96429713,145.75357,23.895527)">
      <g
         id="g3253"
         transform="matrix(0.97908453,0.01330834,-0.02069819,0.99985934,-147.93123,-197.17586)">
        <path
           style="fill:#000000;fill-opacity:1;fill-rule:nonzero;stroke:none"
           id="path3358"
           d="m 178.60161,557.08254 c -2.63134,-10.84356 -0.33374,-22.27335 4.78454,-31.92861 1.37944,-2.60219 3.17702,-4.93549 4.76554,-7.40325 10.13834,-12.41241 23.71183,-21.07599 39.41974,-23.27723 3.05456,-0.42803 6.16086,-0.32418 9.24129,-0.48627 16.54382,0.54176 33.15003,-0.0792 49.63148,1.62531 3.18333,0.32922 5.96054,2.57258 8.64866,4.40207 14.12043,9.61012 20.66916,25.93794 26.65458,41.51161 7.71493,27.74991 8.8978,57.03329 4.61112,85.4261 -0.94629,6.26765 -2.384,12.43912 -3.57602,18.65869 -8.26051,29.68008 -21.7618,58.43108 -42.78352,80.54061 -3.67567,3.86589 -7.80097,7.23705 -11.70144,10.85555 -14.79068,11.42912 -31.54753,17.86936 -50.12102,17.55499 -56.75076,-0.96059 -38.45391,5.57399 -66.18634,-6.9492 C 120.01795,727.15754 108.74344,698.22812 96.68589,662.9465 86.076703,626.38313 82.596386,587.99918 86.381067,550.12597 c 0.842335,-8.42914 2.328007,-16.76864 3.492016,-25.15293 8.226264,-45.76615 24.145937,-89.8107 48.034697,-129.09514 4.79579,-7.88659 10.22196,-15.33289 15.33294,-22.99934 19.98923,-26.38041 43.80663,-49.62541 72.34297,-65.69126 15.58248,-8.77288 19.98716,-9.40115 36.42263,-14.87702 32.58027,-5.97509 25.70555,-5.68586 77.31531,-3.94047 8.23093,0.27836 19.61256,5.44068 26.38594,9.95427 10.29128,6.85778 14.23725,12.63228 22.49366,22.01442 26.01957,35.329 37.62146,78.19784 47.49865,120.6741 10.86166,49.53807 12.68136,100.24568 13.77667,150.73428 0.009,38.87371 -1.96121,77.68352 -4.71263,116.41113 -0.95558,8.22279 -1.15403,16.86197 -3.8525,24.75274 -0.0124,0.0353 -2.23558,5.49655 -3.40634,5.45165 -12.4113,-0.47611 -24.75089,-2.33131 -37.12633,-3.49697 -9.67224,-25.17158 -11.65197,-52.69653 -14.28903,-79.35839 -4.0077,-50.00161 -0.9289,-99.99997 4.23811,-149.66058 4.47385,-36.18205 11.58845,-72.27614 24.38997,-106.27039 7.69933,-20.44546 10.76904,-24.68366 20.87921,-43.46823 14.22615,-22.98633 32.29022,-43.03563 55.30275,-56.558 13.60666,-7.99542 17.33799,-8.39531 32.04557,-13.3118 5.54499,-1.08511 11.03421,-2.52174 16.63495,-3.2554 5.45136,-0.71408 10.95892,-1.07111 16.45932,-1.07967 28.89884,-0.0449 50.96889,-4.43254 76.16468,5.12837 13.58571,5.1553 14.90596,7.37568 26.59745,16.05522 3.93708,4.02517 8.20447,7.72691 11.81121,12.07551 16.67167,20.10088 26.36775,46.12087 33.08928,71.34436 1.93055,7.2446 3.30454,14.63314 4.95679,21.94972 6.38392,30.47274 9.5824,61.63051 8.91264,92.76797 -0.43959,20.43679 -1.56923,26.29698 -3.85701,46.58629 -5.85328,39.68968 -16.36959,78.78147 -33.88939,114.57273 -3.46867,7.08616 -7.49984,13.8532 -11.24976,20.77982 -15.77073,25.79524 -35.37055,48.75958 -59.04172,66.92206 -15.15902,11.63123 -20.82188,14.05224 -37.38516,23.40588 -41.72159,21.14143 -87.59123,29.01227 -133.33281,34.56103 -66.83632,5.47836 -134.0477,4.03063 -201.05672,1.74155 -26.03894,-0.80924 -22.88076,-0.89987 -48.76754,-0.95845 -7.79875,-0.0177 -31.19328,0.10658 -23.39488,0.0869 43.83407,-0.11093 30.6303,-0.70218 5.84167,1.31233 -7.03863,0.57201 -14.05352,1.40216 -21.08029,2.10325 -28.84476,4.27175 -58.299774,8.35157 -85.562074,19.49787 -4.342648,1.7755 -8.516058,3.9649 -12.774086,5.94736 -9.056005,5.25507 -33.332312,17.91532 -33.818467,31.06478 -0.06858,1.85696 0.947915,3.59333 1.421859,5.38999 1.45173,1.67169 2.637152,3.6459 4.355177,5.01508 15.613723,12.44326 45.066881,14.35189 63.653438,15.74344 -10.985704,-0.16395 53.287173,1.68864 40.011603,0.22281 -9.04023,-0.99813 -19.32789,4.35632 -27.24667,-0.35957 -6.785995,-4.0413 15.50885,-1.25122 23.24967,-2.02076 22.04528,-2.19162 30.03484,-3.43094 52.3419,-6.36746 63.68466,-9.67256 127.28871,-19.80299 191.13497,-28.34222 68.99067,-8.84267 138.17218,-16.17002 207.56259,-21.02015 64.00594,-3.14687 128.40961,-6.39048 192.23415,2.08412 11.47586,2.92112 34.17433,6.48102 43.46219,15.22237 0.85115,0.8011 1.36687,1.91971 2.05031,2.87956 1.56289,3.06099 0.86679,5.00284 -0.34661,7.96568 0,0 -35.69776,-2.54131 -35.69776,-2.54131 l 0,0 c 2.90026,0.9523 -0.3874,-0.93344 -0.80579,-1.63389 -16.85091,-9.20792 -36.82338,-10.79649 -55.16106,-14.15844 -17.11699,-1.58663 -20.98066,-2.15432 -38.73602,-2.87512 -7.69907,-0.31255 -30.59431,1.22561 -23.10487,-0.57818 9.1091,-2.19387 18.77318,-1.72069 28.09142,-0.6228 18.2297,2.14785 -76.88739,-0.74597 -54.90243,2.55508 -68.50532,5.21517 -136.78794,12.87227 -204.99512,21.04892 -65.53992,8.33335 -130.83004,18.36992 -196.24209,27.64626 -27.52025,3.39042 -28.17056,3.69259 -55.25379,6.17962 -8.1852,0.75164 -16.35906,1.73493 -24.57458,2.04237 -23.85969,0.89286 -47.74264,1.18086 -71.619554,1.5574 -18.053188,0.28474 -20.011295,-0.13799 -37.541821,-1.15245 -18.247941,-2.23269 -43.9411706,-4.56709 -57.03718,-20.39542 -1.638865,-1.98078 -2.629975,-4.45345 -3.944965,-6.68021 -0.521056,-2.42797 -1.464439,-4.802 -1.563168,-7.28397 -0.657002,-16.51656 17.3741054,-27.65936 28.5693184,-35.2914 11.2455946,-5.98522 13.3800156,-7.61473 25.5456616,-12.0233 21.93028,-7.94708 45.00253,-11.92671 67.880718,-15.71507 12.02603,-1.40939 29.7853,-3.73564 41.81781,-4.12928 48.92922,-1.60067 97.9754,-2.14756 146.94227,-0.48274 11.97818,0.38582 38.20811,1.27346 50.18372,1.48784 8.31427,0.14881 32.75335,-2.68413 24.94355,0.21584 -8.51051,3.1601 -18.13438,1.41687 -27.16863,0.61041 -16.47343,-1.47054 65.44619,0.0853 49.49353,-2.27265 45.99363,-4.98221 92.10673,-12.28617 134.4561,-32.42759 6.56724,-3.46472 13.30813,-6.59637 19.70178,-10.39419 31.37222,-18.63499 56.97673,-45.10769 76.10811,-76.9507 3.67574,-6.78192 7.62681,-13.40746 11.02724,-20.34576 17.30897,-35.31754 28.08716,-73.82503 34.35634,-112.91939 0.91808,-7.65139 2.10485,-15.27031 2.75421,-22.95415 3.23482,-38.27774 -0.10953,-76.87302 -7.03565,-114.60854 -6.49445,-31.58987 -12.98184,-65.32215 -33.91812,-90.6389 -3.38043,-4.0877 -7.42043,-7.52802 -11.13064,-11.29202 -11.43319,-7.7435 -13.22025,-10.12827 -26.4194,-14.34604 -4.88797,-1.56197 -19.80605,-1.67885 -14.98356,-3.36002 9.44805,-3.2937 19.95701,-0.92928 29.90017,-1.84008 10.82832,-0.99189 -44.61326,1.55296 -32.46174,3.21646 -14.312,4.28457 -18.13343,4.56066 -31.35535,12.02595 -22.19609,12.53222 -38.85433,31.95608 -51.86536,54.2243 -3.32252,6.70323 -6.95782,13.24532 -9.96756,20.10971 -17.61254,40.1693 -25.96328,84.18081 -32.41506,127.64371 -5.99919,49.33554 -10.2784,98.90201 -9.18318,148.77305 0.2465,26.01931 0.34964,52.05405 2.16458,78.03478 -11.5325,0.63284 -23.09157,0.90527 -34.59749,1.89849 -0.34495,0.0299 0.0867,1.43564 0.12695,1.07713 0.27713,-2.46939 -0.21455,-5.86994 -0.38414,-8.09868 -1.25572,-16.50209 0.22001,1.09788 -1.52834,-18.98883 -2.13712,-38.69466 -2.47977,-77.41663 -2.8918,-116.14972 -1.39466,-50.12038 -3.86879,-100.32283 -13.74492,-149.63809 -8.73167,-41.0697 -17.42473,-83.48638 -41.35477,-118.4404 -10.88643,-12.70794 -17.40541,-20.89025 -33.88187,-25.72076 -4.57633,-1.34168 -18.72436,-1.44119 -14.06924,-2.34028 10.01254,-1.93386 20.432,-2.01507 30.58059,-0.84876 5.26726,0.60531 -10.44488,1.7084 -15.66733,2.5626 -5.54783,1.81522 -11.23547,3.22664 -16.64354,5.44564 -34.95686,14.34334 -62.76829,41.9807 -85.67558,72.20398 -4.98067,7.5201 -10.25282,14.83742 -14.94199,22.5603 -23.6045,38.87574 -40.40906,82.10587 -50.16066,127.03312 -3.67319,21.23863 -5.38055,27.17822 -6.45359,48.57337 -1.47016,29.3134 2.52131,58.53937 9.74872,86.91054 8.0522,26.73251 16.99878,55.98624 39.09152,74.14793 3.22673,2.6526 6.96626,4.53943 10.44939,6.80915 22.3445,8.35931 11.5308,2.56604 -19.89431,6.35747 -4.01296,0.48417 8.10564,0.45949 12.13256,0.10916 13.24987,-1.15282 24.88175,-6.6175 35.53222,-14.63916 3.62915,-3.44405 7.47399,-6.65612 10.88742,-10.33219 20.08529,-21.63082 32.78161,-49.66248 41.42238,-78.10735 1.2957,-6.08379 2.82412,-12.11652 3.88708,-18.25136 4.75286,-27.43125 4.76406,-55.93697 -1.53007,-83.18504 -4.71059,-14.45595 -9.50841,-30.18874 -23.21076,-38.20317 -2.61521,-1.52963 -11.27393,-2.7775 -8.36139,-3.43831 10.35618,-2.34972 21.19248,-1.25142 31.78875,-1.87714 -2.95803,-0.0618 -5.92464,-0.39408 -8.87408,-0.18542 -15.44897,1.09289 -29.26536,8.64334 -39.95419,20.00248 -1.69025,2.21124 -3.57663,4.27296 -5.07076,6.63372 -5.57206,8.80393 -8.22467,18.94384 -9.0463,29.38231 0,0 -36.04889,1.10138 -36.04889,1.10138 z"
           inkscape:connector-curvature="0" />
      </g>
    </g>
  </g>
</svg>
