<?xml version="1.0" encoding="UTF-8" standalone="no"?>
<!-- Created with Inkscape (http://www.inkscape.org/) -->

<svg
   xmlns:dc="http://purl.org/dc/elements/1.1/"
   xmlns:cc="http://creativecommons.org/ns#"
   xmlns:rdf="http://www.w3.org/1999/02/22-rdf-syntax-ns#"
   xmlns:svg="http://www.w3.org/2000/svg"
   xmlns="http://www.w3.org/2000/svg"
   xmlns:sodipodi="http://sodipodi.sourceforge.net/DTD/sodipodi-0.dtd"
   xmlns:inkscape="http://www.inkscape.org/namespaces/inkscape"
   width="1000"
   height="1000"
   id="svg3004"
   version="1.1"
   inkscape:version="0.48.3.1 r9886"
   sodipodi:docname="e.svg">
  <defs
     id="defs5498" />
  <sodipodi:namedview
     inkscape:window-height="722"
     inkscape:window-width="1366"
     inkscape:pageshadow="2"
     inkscape:pageopacity="0.0"
     borderopacity="1.0"
     bordercolor="#666666"
     pagecolor="#ffffff"
     id="base"
     showgrid="false"
     showguides="true"
     inkscape:guide-bbox="true"
     inkscape:zoom="0.454"
     inkscape:cx="500"
     inkscape:cy="500"
     inkscape:window-x="0"
     inkscape:window-y="24"
     inkscape:current-layer="g3253"
     inkscape:window-maximized="1">
    <sodipodi:guide
       orientation="horizontal"
       position="854.62555,442.73128"
       id="guide5596" />
    <sodipodi:guide
       orientation="0,1"
       position="854.62555,865.63877"
       id="guide3067" />
    <sodipodi:guide
       orientation="-0.70710678,0.70710678"
       position="-814.97797,1143.1718"
       id="guide3247" />
    <sodipodi:guide
       orientation="1,0"
       position="151.98238,832.59912"
       id="guide3249" />
    <sodipodi:guide
       orientation="1,0"
       position="764.31718,731.27753"
       id="guide3251" />
    <sodipodi:guide
       orientation="0,1"
       position="867.84141,687.22467"
       id="guide3460" />
  </sodipodi:namedview>
  <metadata
     id="metadata5594">
    <rdf:RDF>
      <cc:Work
         rdf:about="">
        <dc:format>image/svg+xml</dc:format>
        <dc:type
           rdf:resource="http://purl.org/dc/dcmitype/StillImage" />
        <dc:title></dc:title>
      </cc:Work>
    </rdf:RDF>
  </metadata>
  <g
     inkscape:label="Layer 1"
     inkscape:groupmode="layer"
     id="layer1">
    <g
       id="g3631"
       transform="matrix(0.78138664,0,0,0.96429713,145.75357,23.895527)">
      <g
         id="g3253"
         transform="matrix(0.97908453,0.01330834,-0.02069819,0.99985934,-147.93123,-197.17586)">
        <path
           style="fill:#000000;fill-opacity:1;fill-rule:nonzero;stroke:none"
           id="path3358"
           d="m 178.60161,557.08254 c -2.63134,-10.84356 -0.33374,-22.27335 4.78454,-31.92861 1.37944,-2.60219 3.17702,-4.93549 4.76554,-7.40325 10.13834,-12.41241 23.71183,-21.07599 39.41974,-23.27723 3.05456,-0.42803 6.16086,-0.32418 9.24129,-0.48627 16.54382,0.54176 33.15003,-0.0792 49.63148,1.62531 3.18333,0.32922 5.96054,2.57258 8.64866,4.40207 14.12043,9.61012 20.66916,25.93794 26.65458,41.51161 7.71493,27.74991 8.8978,57.03329 4.61112,85.4261 -0.94629,6.26765 -2.384,12.43912 -3.57602,18.65869 -8.26051,29.68008 -21.7618,58.43108 -42.78352,80.54061 -3.67567,3.86589 -7.80097,7.23705 -11.70144,10.85555 -14.79068,11.42912 -31.54753,17.86936 -50.12102,17.55499 -56.75076,-0.96059 -38.45391,5.57399 -66.18634,-6.9492 C 120.01795,727.15754 108.74344,698.22812 96.68589,662.9465 86.076703,626.38313 82.596386,587.99918 86.381067,550.12597 c 0.842335,-8.42914 2.328007,-16.76864 3.492016,-25.15293 8.226264,-45.76615 24.145937,-89.8107 48.034697,-129.09514 4.79579,-7.88659 10.22196,-15.33289 15.33294,-22.99934 19.98923,-26.38041 43.80663,-49.62541 72.34297,-65.69126 15.58248,-8.77288 19.98716,-9.40115 36.42263,-14.87702 32.58027,-5.97509 25.70555,-5.68586 77.31531,-3.94047 8.23093,0.27836 19.61256,5.44068 26.38594,9.95427 10.29128,6.85778 14.23725,12.63228 22.49366,22.01442 26.01957,35.329 37.62146,78.19784 47.49865,120.6741 10.86166,49.53807 12.68136,100.24568 13.77667,150.73428 0.009,38.87371 -1.96121,77.68352 -4.71263,116.41113 -0.95558,8.22279 -1.15403,16.86197 -3.8525,24.75274 -0.0124,0.0353 -2.23558,5.49655 -3.40634,5.45165 -12.4113,-0.47611 -24.75089,-2.33131 -37.12633,-3.49697 -9.67224,-25.17158 -11.65197,-52.69653 -14.28903,-79.35839 -4.0077,-50.00161 -0.9289,-99.99997 4.23811,-149.66058 4.47385,-36.18205 11.58845,-72.27614 24.38997,-106.27039 7.69933,-20.44546 10.76904,-24.68366 20.87921,-43.46823 14.22615,-22.98633 32.29022,-43.03563 55.30275,-56.558 13.60666,-7.99542 17.33799,-8.39531 32.04557,-13.3118 5.54499,-1.08511 11.03421,-2.52174 16.63495,-3.2554 5.45136,-0.71408 10.95892,-1.07111 16.45932,-1.07967 28.89884,-0.0449 50.96889,-4.43254 76.16468,5.12837 13.58571,5.1553 14.90596,7.37568 26.59745,16.05522 3.93708,4.02517 8.20447,7.72691 11.81121,12.07551 16.67167,20.10088 26.36775,46.12087 33.08928,71.34436 1.93055,7.2446 3.30454,14.63314 4.95679,21.94972 6.38392,30.47274 9.5824,61.63051 8.91264,92.76797 -0.43959,20.43679 -1.56923,26.29698 -3.85701,46.58629 -5.85328,39.68968 -16.36959,78.78147 -33.88939,114.57273 -3.46867,7.08616 -7.49984,13.8532 -11.24976,20.77982 -15.77073,25.79524 -35.37055,48.75958 -59.04172,66.92206 -15.15902,11.63123 -20.82188,14.05224 -37.38516,23.40588 -41.72159,21.14143 -87.59123,29.01227 -133.33281,34.56103 -66.83632,5.47836 -134.0477,4.03063 -201.05672,1.74155 -26.03894,-0.80924 -22.88076,-0.89987 -48.76754,-0.95845 -7.79875,-0.0177 -31.19328,0.10658 -23.39488,0.0869 43.83407,-0.11093 30.6303,-0.70218 5.84167,1.31233 -7.03863,0.57201 -14.05352,1.40216 -21.08029,2.10325 -28.84476,4.27175 -58.299774,8.35157 -85.562074,19.49787 -4.342648,1.7755 -8.516058,3.9649 -12.774086,5.94736 -9.056005,5.25507 -33.332312,17.91532 -33.818467,31.06478 -0.06858,1.85696 0.947915,3.59333 1.421859,5.38999 1.45173,1.67169 2.637152,3.6459 4.355177,5.01508 15.613723,12.44326 45.066881,14.35189 63.653438,15.74344 -10.985704,-0.16395 53.287173,1.68864 40.011603,0.22281 -9.04023,-0.99813 -19.32789,4.35632 -27.24667,-0.35957 -6.785995,-4.0413 15.50885,-1.25122 23.24967,-2.02076 22.04528,-2.19162 30.03484,-3.43094 52.3419,-6.36746 63.68466,-9.67256 127.28871,-19.80299 191.13497,-28.34222 68.99067,-8.84267 138.17218,-16.17002 207.56259,-21.02015 64.00594,-3.14687 128.40961,-6.39048 192.23415,2.08412 11.47586,2.92112 34.17433,6.48102 43.46219,15.22237 0.85115,0.8011 1.36687,1.91971 2.05031,2.87956 1.56289,3.06099 0.86679,5.00284 -0.34661,7.96568 0,0 -35.69776,-2.54131 -35.69776,-2.54131 l 0,0 c 2.90026,0.9523 -0.3874,-0.93344 -0.80579,-1.63389 -16.85091,-9.20792 -36.82338,-10.79649 -55.16106,-14.15844 -17.11699,-1.58663 -20.98066,-2.15432 -38.73602,-2.87512 -7.69907,-0.31255 -30.59431,1.22561 -23.10487,-0.57818 9.1091,-2.19387 18.77318,-1.72069 28.09142,-0.6228 18.2297,2.14785 -76.88739,-0.74597 -54.90243,2.55508 -68.50532,5.21517 -136.78794,12.87227 -204.99512,21.04892 -65.53992,8.33335 -130.83004,18.36992 -196.24209,27.64626 -27.52025,3.39042 -28.17056,3.69259 -55.25379,6.17962 -8.1852,0.75164 -16.35906,1.73493 -24.57458,2.04237 -23.85969,0.89286 -47.74264,1.18086 -71.619554,1.5574 -18.053188,0.28474 -20.011295,-0.13799 -37.541821,-1.15245 -18.247941,-2.23269 -43.9411706,-4.56709 -57.03718,-20.39542 -1.638865,-1.98078 -2.629975,-4.45345 -3.944965,-6.68021 -0.521056,-2.42797 -1.464439,-4.802 -1.563168,-7.28397 -0.657002,-16.51656 17.3741054,-27.65936 28.5693184,-35.2914 11.2455946,-5.98522 13.3800156,-7.61473 25.5456616,-12.0233 21.93028,-7.94708 45.00253,-11.92671 67.880718,-15.71507 12.02603,-1.40939 29.7853,-3.73564 41.81781,-4.12928 48.92922,-1.60067 97.9754,-2.14756 146.94227,-0.48274 11.97818,0.38582 38.20811,1.27346 50.18372,1.48784 8.31427,0.14881 32.75335,-2.68413 24.94355,0.21584 -8.51051,3.1601 -18.13438,1.41687 -27.16863,0.61041 -16.47343,-1.47054 65.44619,0.0853 49.49353,-2.27265 45.99363,-4.98221 92.10673,-12.28617 134.4561,-32.42759 6.56724,-3.46472 13.30813,-6.59637 19.70178,-10.39419 31.37222,-18.63499 56.97673,-45.10769 76.10811,-76.9507 3.67574,-6.78192 7.62681,-13.40746 11.02724,-20.34576 17.30897,-35.31754 28.08716,-73.82503 34.35634,-112.91939 0.91808,-7.65139 2.10485,-15.27031 2.75421,-22.95415 3.23482,-38.27774 -0.10953,-76.87302 -7.03565,-114.60854 -6.49445,-31.58987 -12.98184,-65.32215 -33.91812,-90.6389 -3.38043,-4.0877 -7.42043,-7.52802 -11.13064,-11.29202 -11.43319,-7.7435 -13.22025,-10.12827 -26.4194,-14.34604 -4.88797,-1.56197 -19.80605,-1.67885 -14.98356,-3.36002 9.44805,-3.2937 19.95701,-0.92928 29.90017,-1.84008 10.82832,-0.99189 -44.61326,1.55296 -32.46174,3.21646 -14.312,4.28457 -18.13343,4.56066 -31.35535,12.02595 -22.19609,12.53222 -38.85433,31.95608 -51.86536,54.2243 -3.32252,6.70323 -6.95782,13.24532 -9.96756,20.10971 -17.61254,40.1693 -25.96328,84.18081 -32.41506,127.64371 -5.99919,49.33554 -10.2784,98.90201 -9.18318,148.77305 0.2465,26.01931 0.34964,52.05405 2.16458,78.03478 -11.5325,0.63284 -23.09157,0.90527 -34.59749,1.89849 -0.34495,0.0299 0.0867,1.43564 0.12695,1.07713 0.27713,-2.46939 -0.21455,-5.86994 -0.38414,-8.09868 -1.25572,-16.50209 0.22001,1.09788 -1.52834,-18.98883 -2.13712,-38.69466 -2.47977,-77.41663 -2.8918,-116.14972 -1.39466,-50.12038 -3.86879,-100.32283 -13.74492,-149.63809 -8.73167,-41.0697 -17.42473,-83.48638 -41.35477,-118.4404 -10.88643,-12.70794 -17.40541,-20.89025 -33.88187,-25.72076 -4.57633,-1.34168 -18.72436,-1.44119 -14.06924,-2.34028 10.01254,-1.93386 20.432,-2.01507 30.58059,-0.84876 5.26726,0.60531 -10.44488,1.7084 -15.66733,2.5626 -5.54783,1.81522 -11.23547,3.22664 -16.64354,5.44564 -34.95686,14.34334 -62.76829,41.9807 -85.67558,72.20398 -4.98067,7.5201 -10.25282,14.83742 -14.94199,22.5603 -23.6045,38.87574 -40.40906,82.10587 -50.16066,127.03312 -3.67319,21.23863 -5.38055,27.17822 -6.45359,48.57337 -1.47016,29.3134 2.52131,58.53937 9.74872,86.91054 8.0522,26.73251 16.99878,55.98624 39.09152,74.14793 3.22673,2.6526 6.96626,4.53943 10.44939,6.80915 22.3445,8.35931 11.5308,2.56604 -19.89431,6.35747 -4.01296,0.48417 8.10564,0.45949 12.13256,0.10916 13.24987,-1.15282 24.88175,-6.6175 35.53222,-14.63916 3.62915,-3.44405 7.47399,-6.65612 10.88742,-10.33219 20.08529,-21.63082 32.78161,-49.66248 41.42238,-78.10735 1.2957,-6.08379 2.82412,-12.11652 3.88708,-18.25136 4.75286,-27.43125 4.76406,-55.93697 -1.53007,-83.18504 -4.71059,-14.45595 -9.50841,-30.18874 -23.21076,-38.20317 -2.61521,-1.52963 -11.27393,-2.7775 -8.36139,-3.43831 10.35618,-2.34972 21.19248,-1.25142 31.78875,-1.87714 -2.95803,-0.0618 -5.92464,-0.39408 -8.87408,-0.18542 -15.44897,1.09289 -29.26536,8.64334 -39.95419,20.00248 -1.69025,2.21124 -3.57663,4.27296 -5.07076,6.63372 -5.57206,8.80393 -8.22467,18.94384 -9.0463,29.38231 0,0 -36.04889,1.10138 -36.04889,1.10138 z"
           inkscape:connector-curvature="0" />
        <path
           style="fill:#000000;fill-opacity:1;fill-rule:nonzero;stroke:none"
           id="path3426"
           d="m 708.57027,319.58819 c -5.44162,6.74148 -13.1116,10.95313 -20.86209,14.48566 -5.088,1.98332 -10.46224,3.21788 -15.9525,3.15737 -28.7604,-0.31696 -29.17931,2.74689 -47.47453,-5.20371 -15.29682,-8.43525 -24.7099,-20.82156 -33.86155,-35.28828 -7.91648,-14.35648 -13.61095,-30.19661 -15.44918,-46.55818 -0.35236,-3.1362 -0.41501,-6.2982 -0.62251,-9.44731 0.111,-12.9951 2.3861,-25.95663 6.9166,-38.15814 3.0507,-8.21612 5.19322,-11.64609 9.29382,-19.40245 7.81984,-12.69992 17.67049,-24.05739 29.60917,-33.05055 7.10432,-5.35153 9.83643,-6.52958 17.52018,-10.80133 10.7614,-5.28933 22.47614,-9.67605 34.65447,-9.74764 39.20575,-0.23047 27.22854,-3.20097 46.16276,2.60704 16.02546,7.14758 22.33757,19.22215 29.66646,34.22662 8.20742,18.21319 13.92048,37.33279 18.96619,56.61453 5.38289,20.73887 8.42357,41.98482 10.77454,63.252 0.95903,11.39391 1.50829,22.85125 1.36788,34.28936 -0.76357,9.83844 -0.11656,4.36973 -27.86193,-1.18999 -1.28297,-0.25709 -0.46237,-2.57584 -0.70845,-3.86097 -1.30606,-6.82075 -2.26201,-13.44088 -2.87319,-20.36968 -1.82753,-21.00569 1.02835,-41.8855 4.95911,-62.47322 4.70531,-19.71199 11.93936,-38.98381 22.56639,-56.30992 2.10787,-3.43663 4.49938,-6.69103 6.74908,-10.03654 10.73841,-14.01999 23.47057,-27.04568 39.48588,-34.9766 2.85868,-1.41565 5.87865,-2.47909 8.81798,-3.71864 3.08253,-0.82613 6.11163,-1.88658 9.24759,-2.47839 3.12805,-0.59033 6.30795,-1.02251 9.49103,-1.05795 17.08363,-0.19021 35.41272,-2.36051 52.25902,2.61864 8.61044,2.54493 11.58686,4.57972 19.57848,8.71642 17.49967,10.86185 30.54241,26.46353 39.0393,45.15223 1.86767,4.10791 3.3404,8.38417 5.01061,12.57625 8.59129,25.64622 10.07302,52.87947 8.16988,79.7035 -0.45504,6.41362 -1.29814,12.79379 -1.94721,19.19069 -3.90578,27.45161 -11.35917,54.27404 -22.48323,79.68247 -7.20278,16.45185 -11.08697,22.68469 -19.75188,38.47499 -18.71738,31.22137 -41.01846,60.33778 -66.62074,86.24244 -4.81846,4.87537 -9.89891,9.48464 -14.84836,14.22697 -17.63561,15.81583 -36.78188,29.99699 -57.79655,41.02144 -10.12747,5.31294 -14.70897,6.8707 -25.0958,11.05157 -11.87837,4.47206 -24.20757,7.28514 -36.77382,8.81555 0,0 -30.91344,-4.49594 -30.91344,-4.49594 l 0,0 c 11.10615,-1.48664 21.91331,-4.36555 32.3466,-8.5021 9.85637,-4.21039 13.40544,-5.43672 22.98852,-10.77866 19.75064,-11.00969 37.62442,-25.0353 54.14499,-40.4064 4.75414,-4.68403 9.63468,-9.24314 14.26241,-14.0521 24.96897,-25.94678 47.23169,-54.56512 65.99664,-85.29426 9.51705,-16.4794 12.48817,-20.66233 20.27628,-37.91143 11.30941,-25.04807 18.89666,-51.57514 23.82846,-78.57489 0.93145,-6.31295 2.04454,-12.60175 2.79437,-18.93884 3.09001,-26.11499 2.97301,-52.77021 -4.6769,-78.12711 -1.51444,-4.07568 -2.81638,-8.23676 -4.54333,-12.22704 -7.8108,-18.04768 -20.6199,-32.8757 -37.44441,-43.06628 -7.85639,-3.90593 -10.36334,-5.67133 -18.83883,-7.87502 -3.1113,-0.80896 -12.66394,-1.19288 -9.49123,-1.71104 7.73518,-1.26328 15.66823,-0.56804 23.50588,-0.57779 3.13628,-0.004 -6.28495,0.13405 -9.39214,0.56023 -3.12439,0.42855 -6.16527,1.33097 -9.24791,1.99645 -2.89767,1.09707 -5.8812,1.98977 -8.69302,3.29121 -15.52354,7.18501 -27.61003,19.99898 -37.61206,33.52937 -2.19182,3.25457 -4.51205,6.42624 -6.57544,9.76371 -10.51726,17.01136 -17.86628,35.92062 -22.96238,55.19926 -4.35201,20.31224 -7.69539,40.8116 -7.48541,61.66424 -0.13229,6.76807 0.0825,13.5648 -0.19161,20.32766 -0.0526,1.29751 0.96032,3.56722 -0.29897,3.88425 -25.6076,6.44678 -22.14385,10.3564 -28.4513,1.97407 -5.00675,-10.72729 -4.31562,-23.13126 -6.91562,-34.49253 -3.33798,-21.02566 -6.37625,-42.14209 -11.38722,-62.85211 -4.65731,-19.00218 -9.84111,-37.88272 -17.25042,-56.03002 -6.70783,-14.74692 -12.40386,-25.7034 -28.55854,-31.49613 -14.2229,-2.98367 -11.90138,-1.94364 17.14524,-1.97457 2.57496,-0.003 -5.15431,0.16363 -7.71012,0.47711 -8.94709,1.09742 -17.3592,3.99355 -25.38089,8.06459 -7.4623,4.04344 -10.02186,5.08897 -16.90227,10.2158 -11.66176,8.68957 -21.32883,19.7377 -29.41447,31.7623 -3.97647,7.03045 -6.68977,11.32964 -9.80096,18.7757 -4.86579,11.64536 -7.51952,24.2 -7.47032,36.81989 0.25514,3.04463 0.3629,6.10523 0.76543,9.1339 2.10833,15.86345 7.84564,31.24125 15.35346,45.28303 7.94337,13.31123 17.09851,26.33216 31.32007,33.49325 15.12251,6.00989 20.97114,3.10666 -13.37232,4.16896 -1.8376,0.0568 3.68025,0.1134 5.51543,0.003 5.13448,-0.30792 5.79388,-0.73571 10.6734,-2.02559 8.36501,-3.16148 15.91549,-7.73233 23.03666,-13.13514 0,0 27.70479,2.18041 27.70479,2.18041 z"
           inkscape:connector-curvature="0"
           transform="matrix(1.3067474,-0.01739309,0.02191998,1.0368789,-35.770233,172.89597)" />
      </g>
    </g>
  </g>
</svg>
