<?xml version="1.0" encoding="UTF-8" standalone="no"?>
<!-- Created with Inkscape (http://www.inkscape.org/) -->

<svg
   xmlns:dc="http://purl.org/dc/elements/1.1/"
   xmlns:cc="http://creativecommons.org/ns#"
   xmlns:rdf="http://www.w3.org/1999/02/22-rdf-syntax-ns#"
   xmlns:svg="http://www.w3.org/2000/svg"
   xmlns="http://www.w3.org/2000/svg"
   xmlns:sodipodi="http://sodipodi.sourceforge.net/DTD/sodipodi-0.dtd"
   xmlns:inkscape="http://www.inkscape.org/namespaces/inkscape"
   width="1000"
   height="1000"
   id="svg3004"
   version="1.1"
   inkscape:version="0.48.3.1 r9886"
   sodipodi:docname="iru.svg">
  <defs
     id="defs5498" />
  <sodipodi:namedview
     inkscape:window-height="722"
     inkscape:window-width="1366"
     inkscape:pageshadow="2"
     inkscape:pageopacity="0.0"
     borderopacity="1.0"
     bordercolor="#666666"
     pagecolor="#ffffff"
     id="base"
     showgrid="false"
     showguides="true"
     inkscape:guide-bbox="true"
     inkscape:zoom="0.454"
     inkscape:cx="500"
     inkscape:cy="500"
     inkscape:window-x="0"
     inkscape:window-y="24"
     inkscape:current-layer="g3253"
     inkscape:window-maximized="1">
    <sodipodi:guide
       orientation="horizontal"
       position="854.62555,442.73128"
       id="guide5596" />
    <sodipodi:guide
       orientation="0,1"
       position="854.62555,865.63877"
       id="guide3067" />
    <sodipodi:guide
       orientation="-0.70710678,0.70710678"
       position="-814.97797,1143.1718"
       id="guide3247" />
    <sodipodi:guide
       orientation="1,0"
       position="151.98238,832.59912"
       id="guide3249" />
    <sodipodi:guide
       orientation="1,0"
       position="764.31718,731.27753"
       id="guide3251" />
    <sodipodi:guide
       orientation="0,1"
       position="-70.484581,647.57709"
       id="guide3460" />
  </sodipodi:namedview>
  <metadata
     id="metadata5594">
    <rdf:RDF>
      <cc:Work
         rdf:about="">
        <dc:format>image/svg+xml</dc:format>
        <dc:type
           rdf:resource="http://purl.org/dc/dcmitype/StillImage" />
        <dc:title></dc:title>
      </cc:Work>
    </rdf:RDF>
  </metadata>
  <g
     inkscape:label="Layer 1"
     inkscape:groupmode="layer"
     id="layer1">
    <g
       id="g3631"
       transform="matrix(0.78138664,0,0,0.96429713,145.75357,23.895527)">
      <g
         id="g3253"
         transform="matrix(0.97908453,0.01330834,-0.02069819,0.99985934,-147.93123,-197.17586)">
        <path
           style="fill:#000000;fill-opacity:1;fill-rule:nonzero;stroke:none"
           id="path3993"
           d="m 226.51212,635.35548 c -7.61463,-10.84392 -6.79062,-19.86408 -3.37642,-31.61934 7.30613,-17.83914 21.78406,-31.57703 38.50184,-44.38999 15.4655,-10.39635 32.48833,-20.65429 52.63792,-24.40902 3.45073,-0.64303 7.01014,-0.83781 10.51522,-1.25671 16.14338,-0.0489 43.30756,-4.126 62.12324,2.09795 15.60566,5.16214 23.31171,14.46175 31.79914,25.38383 11.81844,17.67574 17.15321,37.45872 15.40475,57.45598 -0.39774,4.54904 -1.49494,9.04249 -2.24241,13.56374 -6.00291,24.4282 -18.76293,47.48401 -35.93874,68.2565 -3.37822,4.08563 -7.14026,7.96311 -10.71038,11.94467 -17.22654,17.40197 -38.31521,32.70307 -63.76275,42.17775 -4.49995,1.67542 -9.22143,2.94731 -13.83214,4.42096 -4.61334,0.98832 -9.15472,2.21963 -13.84001,2.96498 -4.48221,0.71304 -9.03024,1.30866 -13.60017,1.40028 -26.10878,0.52354 -47.30606,3.94355 -70.3232,-2.78636 -11.7055,-3.42254 -13.43984,-5.18782 -23.56747,-10.86038 -21.55217,-15.19882 -32.66714,-36.10344 -37.35843,-58.35094 -1.12733,-5.34614 -1.61463,-10.76497 -2.42194,-16.14745 -2.08426,-25.41025 0.59051,-50.91973 6.5414,-75.91213 4.31901,-18.13887 7.27465,-25.66507 13.26714,-43.63588 14.26861,-38.0293 33.34061,-74.86188 56.72675,-109.93226 4.57965,-6.86772 9.53208,-13.57483 14.29811,-20.36225 22.04843,-29.61414 46.32396,-58.7865 77.38994,-83.03144 5.08677,-3.96989 10.61457,-7.56755 15.92184,-11.35132 12.34733,-7.25693 17.38659,-11.0197 31.14031,-16.13493 8.39374,-3.12177 20.03788,-6.18124 29.5185,-6.33334 58.00369,-0.9306 41.75449,-4.70374 71.87209,5.08028 34.2167,16.05274 47.99672,41.08728 62.40419,69.05969 17.58792,37.28918 24.6368,76.79191 31.10856,116.05066 6.61239,40.84355 10.06345,81.96773 12.69171,123.07853 1.99865,29.86429 2.06609,59.72413 -0.54863,89.5534 -1.98678,9.7295 -0.6321,24.50372 -12.01681,30.9793 -13.09688,-0.41288 -26.32395,0.28021 -39.29064,-1.23862 -1.82603,-0.21389 -2.07334,-2.42853 -2.96481,-3.71101 -6.60727,-9.50531 -8.56446,-20.26818 -10.86649,-30.81068 -5.8316,-31.73757 -3.84885,-63.92063 -1.29049,-95.7948 4.10155,-38.54033 13.95802,-76.67531 29.26018,-113.40089 3.00651,-7.21572 6.45761,-14.30996 9.68644,-21.46495 12.661,-26.78836 27.50942,-53.09027 47.47756,-77.01098 12.5359,-15.01732 17.50225,-18.88332 32.07707,-32.58362 27.53916,-24.12464 60.11483,-44.95996 98.38835,-57.32284 6.6527,-2.14889 13.58842,-3.69846 20.38262,-5.54771 6.55466,-1.09646 13.03869,-2.50451 19.664,-3.28941 6.17747,-0.73183 12.42589,-1.18565 18.67127,-1.25213 34.02052,-0.36213 53.52981,-3.47361 81.53767,3.52608 14.15207,3.53686 17.58316,5.73238 30.49442,11.42758 25.8286,14.1117 44.97879,34.03023 58.84103,56.18126 3.07225,4.90929 5.61547,10.01605 8.4232,15.02407 13.57763,28.92972 20.41219,59.60476 21.50162,90.43657 0.24299,6.87599 -0.0839,13.75723 -0.12597,20.63583 -1.22149,35.19415 -10.76686,69.89498 -25.72451,102.97546 -2.95333,6.53161 -6.35724,12.92936 -9.53587,19.39405 -16.63545,29.76448 -36.90046,58.76701 -65.05246,82.73185 -5.20439,4.43034 -10.91086,8.47186 -16.36628,12.70778 -25.97294,18.13466 -56.72984,31.47214 -90.94579,36.54955 -6.00752,0.89147 -12.12703,1.21524 -18.19055,1.82286 -34.27714,-0.27421 -72.35134,6.92201 -103.14662,-7.87733 -9.47661,-4.55419 -10.4623,-6.62828 -17.38536,-13.2685 -1.70948,-2.92191 -3.83984,-5.7109 -5.12842,-8.76575 -6.26374,-14.84937 -3.098,-31.49317 2.98747,-45.99892 1.85809,-4.42912 4.31618,-8.68526 6.47429,-13.02788 14.32412,-25.03565 36.20063,-46.5059 61.62477,-64.99698 5.46873,-3.97745 11.23275,-7.69146 16.84913,-11.53716 27.44569,-17.19675 57.3258,-32.64189 90.45309,-42.02336 5.68249,-1.60925 11.54564,-2.78443 17.31846,-4.17663 14.12563,-2.26165 17.12228,-3.34334 31.2537,-3.3685 24.68421,-0.0439 46.72434,-4.53811 68.06747,3.82391 3.19668,1.25243 6.01771,3.03477 9.02655,4.55215 0,0 -42.72404,4.1162 -42.72404,4.1162 l 0,0 c -3.19435,-1.25837 -6.23709,-2.79568 -9.58304,-3.77507 -3.69139,-1.08049 -15.2525,-1.67034 -11.41871,-2.37233 10.38945,-1.90236 21.30448,-0.78109 31.93974,-1.38518 9.66135,-0.54878 -41.21484,0.81433 -28.86116,2.68057 -5.38071,1.30648 -10.84775,2.40714 -16.14212,3.91948 -32.21536,9.20233 -61.13349,24.35594 -87.99401,40.93458 -5.69776,3.75898 -11.54026,7.38398 -17.09331,11.27692 -25.8362,18.11242 -48.49831,39.04472 -64.67074,63.30784 -2.47914,4.19265 -5.25855,8.28158 -7.43743,12.57797 -6.57068,12.95639 -12.34587,29.53904 -6.41132,43.36972 1.19402,2.78268 3.4076,5.22045 5.1114,7.83066 2.61318,2.18614 4.90032,4.65069 7.83955,6.5584 6.60118,4.28452 14.14953,6.84255 22.26882,8.71825 4.58306,1.05879 18.56806,1.32636 13.99426,2.41006 -9.94138,2.35553 -20.76284,0.60829 -31.05731,1.63288 -5.26799,0.52431 10.61798,-0.0846 15.92696,-0.12702 5.81621,-0.47779 11.68173,-0.66657 17.44863,-1.43337 33.1569,-4.40872 63.05221,-16.95129 88.01837,-34.59066 5.28415,-4.11283 10.83862,-8.01784 15.85244,-12.3385 27.37874,-23.59365 47.07148,-52.11282 62.90607,-81.40117 7.3986,-15.23438 11.70158,-23.21879 17.60602,-38.91106 10.02292,-26.63799 16.28412,-54.14798 17.80864,-81.93541 0.22929,-6.79283 0.69956,-13.58323 0.68787,-20.37849 -0.0519,-30.21015 -5.26453,-60.508 -18.03261,-89.04454 -2.61642,-4.9006 -4.96183,-9.89796 -7.84927,-14.70179 -12.94515,-21.53675 -31.0052,-41.02749 -56.48204,-54.11257 -13.07761,-5.36262 -16.12367,-7.3157 -30.46853,-10.37156 -5.47205,-1.1657 -21.99572,-1.00934 -16.68475,-2.57538 9.50076,-2.80147 20.23419,-0.97051 30.35137,-1.45447 12.14293,-0.58086 -50.31446,1.78497 -36.18937,3.73934 -6.44684,1.72528 -13.03537,3.14745 -19.34048,5.17586 -37.19619,11.96636 -68.74947,32.50969 -95.75146,55.68918 -14.60167,13.60846 -19.09714,16.99892 -31.66269,31.92794 -19.79234,23.5151 -33.92031,49.54741 -45.78764,76.11387 -2.99625,7.09429 -6.1608,14.14523 -8.98875,21.2829 -14.55206,36.72917 -24.90447,74.50057 -32.20415,112.54102 -5.22392,31.5197 -9.6479,63.24265 -7.68647,95.095 0.49984,8.36633 0.68149,16.90072 2.86508,25.13781 0.40488,1.52734 0.94036,3.03846 1.63073,4.49994 0.40523,0.85782 2.78192,2.29309 1.63874,2.42126 -11.37852,1.27569 -22.95883,0.83735 -34.43824,1.25601 0.5601,0.18775 1.13279,0.77302 1.68033,0.56323 1.50931,-0.57827 1.71426,-5.0336 1.72655,-5.18384 0.61218,-7.48926 -0.50021,-14.99079 -0.2836,-22.48182 -1.72777,-29.7382 -3.27265,-59.48531 -6.57385,-89.1498 -4.20337,-40.99082 -9.0393,-81.94804 -15.1919,-122.78597 -5.67981,-38.7569 -10.48392,-77.9362 -26.11686,-115.16628 -10.23479,-21.85892 -21.13567,-45.33103 -45.2323,-60.15697 -3.7763,-2.32345 -8.07453,-4.05689 -12.11182,-6.08535 -21.605,-5.88285 -20.3371,-4.0323 18.40782,-5.36524 4.53525,-0.15604 -9.11086,0.40593 -13.53007,1.22973 -16.23432,3.02625 -29.54212,10.98828 -42.06466,19.29949 -4.81208,3.69324 -9.8318,7.22342 -14.43622,11.07974 -29.13455,24.40085 -51.68412,53.18768 -72.64193,82.21063 -4.63143,6.72884 -9.43416,13.38521 -13.89428,20.18652 -22.95041,34.99734 -42.11021,71.51897 -57.31889,109.07552 -14.45277,38.42164 -27.61697,77.53136 -26.13694,118.01614 0.48789,5.26354 0.67259,10.55032 1.46368,15.79061 2.59992,17.2222 8.94323,34.66105 23.33787,48.14937 2.93569,2.75085 6.5303,5.01233 9.79545,7.5185 9.84592,5.06562 11.80446,6.83437 23.12155,9.63164 4.12772,1.02026 16.89418,1.41035 12.67832,2.1706 -10.20385,1.84002 -20.89346,1.04976 -31.35584,1.19746 -4.37968,0.0615 8.76743,-0.36548 13.08762,-0.93957 4.50885,-0.59914 8.88455,-1.71365 13.32681,-2.57047 4.48714,-1.34208 9.0863,-2.46854 13.46136,-4.02623 24.65607,-8.77849 44.83696,-23.85939 61.3398,-40.53527 20.94854,-24.00343 39.31073,-49.65573 47.48826,-78.41908 0.93411,-4.36271 2.21778,-8.6873 2.80236,-13.08815 2.53768,-19.10465 -1.73799,-38.30379 -12.40565,-55.51027 -7.75108,-10.46457 -14.3463,-18.88744 -29.76395,-22.85467 -3.13576,-0.8069 -12.9448,-1.2074 -9.68402,-1.59157 10.58837,-1.24748 21.3908,-0.69849 32.08622,-1.04776 -3.39698,0.22654 -6.83857,0.18892 -10.19097,0.67963 -19.59858,2.86871 -35.74883,13.50739 -50.96477,22.93245 -16.89126,12.1131 -32.47076,25.47268 -41.29937,42.41591 -1.80726,4.44548 -3.55139,7.84703 -4.12405,12.50278 -0.71416,5.80614 1.32306,11.46073 2.95117,17.03888 0,0 -37.13753,1.68924 -37.13753,1.68924 z"
           inkscape:connector-curvature="0" />
      </g>
    </g>
  </g>
</svg>
