<?xml version="1.0" encoding="UTF-8" standalone="no"?>
<!-- Created with Inkscape (http://www.inkscape.org/) -->

<svg
   xmlns:dc="http://purl.org/dc/elements/1.1/"
   xmlns:cc="http://creativecommons.org/ns#"
   xmlns:rdf="http://www.w3.org/1999/02/22-rdf-syntax-ns#"
   xmlns:svg="http://www.w3.org/2000/svg"
   xmlns="http://www.w3.org/2000/svg"
   xmlns:sodipodi="http://sodipodi.sourceforge.net/DTD/sodipodi-0.dtd"
   xmlns:inkscape="http://www.inkscape.org/namespaces/inkscape"
   width="1000"
   height="1000"
   id="svg3004"
   version="1.1"
   inkscape:version="0.48.3.1 r9886"
   sodipodi:docname="u.svg">
  <defs
     id="defs5498" />
  <sodipodi:namedview
     inkscape:window-height="722"
     inkscape:window-width="1366"
     inkscape:pageshadow="2"
     inkscape:pageopacity="0.0"
     borderopacity="1.0"
     bordercolor="#666666"
     pagecolor="#ffffff"
     id="base"
     showgrid="false"
     showguides="true"
     inkscape:guide-bbox="true"
     inkscape:zoom="0.454"
     inkscape:cx="500"
     inkscape:cy="500"
     inkscape:window-x="0"
     inkscape:window-y="24"
     inkscape:current-layer="g3253"
     inkscape:window-maximized="1">
    <sodipodi:guide
       orientation="horizontal"
       position="854.62555,442.73128"
       id="guide5596" />
    <sodipodi:guide
       orientation="0,1"
       position="854.62555,865.63877"
       id="guide3067" />
    <sodipodi:guide
       orientation="-0.70710678,0.70710678"
       position="-814.97797,1143.1718"
       id="guide3247" />
    <sodipodi:guide
       orientation="1,0"
       position="151.98238,832.59912"
       id="guide3249" />
    <sodipodi:guide
       orientation="1,0"
       position="764.31718,731.27753"
       id="guide3251" />
    <sodipodi:guide
       orientation="0,1"
       position="-70.484581,647.57709"
       id="guide3460" />
  </sodipodi:namedview>
  <metadata
     id="metadata5594">
    <rdf:RDF>
      <cc:Work
         rdf:about="">
        <dc:format>image/svg+xml</dc:format>
        <dc:type
           rdf:resource="http://purl.org/dc/dcmitype/StillImage" />
        <dc:title></dc:title>
      </cc:Work>
    </rdf:RDF>
  </metadata>
  <g
     inkscape:label="Layer 1"
     inkscape:groupmode="layer"
     id="layer1">
    <g
       id="g3631"
       transform="matrix(0.78138664,0,0,0.96429713,145.75357,23.895527)">
      <g
         id="g3253"
         transform="matrix(0.97908453,0.01330834,-0.02069819,0.99985934,-147.93123,-197.17586)">
        <g
           id="g3925"
           transform="matrix(0.95909859,-4.6486574e-4,-7.3833277e-4,0.92418289,-32.127872,51.542792)">
          <path
             transform="matrix(1.3067474,-0.01739309,0.02191998,1.0368789,-35.770233,172.89597)"
             inkscape:connector-curvature="0"
             d="m 640.20497,768.54637 c 9.57104,-2.74365 19.48874,-4.07038 29.31868,-5.51893 0,0 32.24964,4.67362 32.24964,4.67362 l 0,0 c -11.29032,1.33714 -22.54209,2.95212 -33.79792,4.54889 0,0 -27.7704,-3.70358 -27.7704,-3.70358 z"
             id="path3919"
             style="fill:#000000;fill-opacity:1;fill-rule:nonzero;stroke:none" />
          <path
             transform="matrix(1.3067474,-0.01739309,0.02191998,1.0368789,-35.770233,172.89597)"
             inkscape:connector-curvature="0"
             d="m 244.77208,422.07544 c 1.28844,0.29983 2.57133,0.62462 3.86533,0.89949 3.30413,0.70187 7.4642,1.49076 10.77986,1.78891 2.37436,0.2135 9.5277,0.34843 7.14377,0.33941 -29.11526,-0.11017 -30.3461,0.45997 -14.96667,-1.4882 20.9554,-4.08796 40.48986,-13.55507 57.98463,-25.64889 4.60391,-3.18259 8.96886,-6.69768 13.45329,-10.04652 31.77339,-25.3832 56.54444,-57.72269 79.86617,-90.6927 14.84296,-21.8655 29.40468,-44.11421 40.72871,-68.06079 6.2673,-13.25328 7.07629,-16.64216 11.81222,-30.14951 4.04368,-16.5528 9.65818,-39.15278 -4.12916,-53.1308 -2.05877,-2.08723 -4.76615,-3.41527 -7.14923,-5.12291 5.53376,-2.92066 -26.64968,-3.88278 -19.89794,-3.79632 7.46165,0.0956 15.4565,-1.77753 22.36214,1.05046 3.95827,1.62098 -8.39965,1.70486 -12.47689,2.99773 -11.02079,3.49463 -16.46443,6.80237 -26.85454,12.05992 -26.35896,15.80781 -50.52152,35.33537 -72.04665,57.26866 -4.79945,4.89046 -9.30547,10.06049 -13.95821,15.09074 -23.50665,27.08057 -41.474,58.40421 -54.15353,91.9007 -2.48566,6.56654 -4.51755,13.296 -6.77633,19.944 -7.19891,24.62728 -11.33184,50.30449 -9.9248,76.02971 0.84239,15.40149 2.4488,20.08614 5.6473,35.06262 6.44713,22.86592 17.09346,44.38649 32.45653,62.61069 10.37398,12.30596 14.30282,14.76854 26.52431,25.15348 25.1494,19.1007 54.69723,31.31353 86.00314,35.63162 6.60375,0.91087 13.28184,1.16158 19.92275,1.74237 6.9908,-0.082 17.30734,5.70744 20.9724,-0.24617 3.4721,-5.64017 -22.30381,4.47428 -19.80042,-1.65762 2.80493,-6.87048 14.69446,-2.14552 21.96335,-3.64033 14.68494,-3.01989 31.41077,-7.70192 45.46243,-12.86619 7.73179,-2.84159 15.22157,-6.30274 22.83235,-9.45411 40.08528,-18.63571 75.84558,-44.95003 108.50663,-74.52216 6.90118,-6.2485 13.52609,-12.7955 20.28914,-19.19325 26.91222,-27.0676 50.75229,-57.01427 71.05672,-89.33454 12.3371,-19.638 16.80239,-28.87111 27.6559,-49.22523 17.39518,-35.11052 33.92712,-71.57487 40.75603,-110.45825 1.08428,-6.17386 1.5631,-12.43887 2.34465,-18.65831 1.05909,-19.62516 0.55663,-40.48904 -9.73341,-57.97514 -5.21045,-8.85425 -8.04055,-10.05985 -15.77239,-16.42752 -9.15543,-4.75254 -10.41015,-6.36824 -20.93087,-7.84725 -3.98179,-0.55977 -16.06527,-0.7522 -12.05284,-0.49079 7.48649,0.48774 15.53801,-1.683293 22.47665,1.16989 3.98628,1.63916 -8.46824,1.6741 -12.60331,2.89004 -4.35864,1.28167 -8.55565,3.05982 -12.83348,4.58974 -23.29895,9.99211 -42.98398,26.27046 -59.94577,44.89362 -3.53972,3.88642 -6.82688,7.99558 -10.24032,11.99337 -16.03294,20.04149 -29.45409,42.0372 -38.8162,65.97504 -1.90429,4.86904 -3.47758,9.86114 -5.21637,14.79171 -10.36886,31.78892 -13.11005,65.14142 -13.70609,98.35981 0.18112,33.05821 4.50263,65.85467 9.80853,98.42059 3.90872,24.83546 8.88118,49.53754 18.57334,72.80773 0,0 -33.3944,1.45709 -33.3944,1.45709 l 0,0 c -4.21542,-8.1968 -5.4888,-10.16662 -8.91405,-19.04558 -6.78642,-17.59182 -10.95053,-36.0867 -14.42871,-54.57018 -5.90624,-32.73185 -10.05635,-65.80803 -10.30379,-99.12036 0.0469,-5.61961 -0.0514,-11.24231 0.14077,-16.85882 0.96052,-28.06696 5.53351,-56.04578 14.2657,-82.75513 1.81793,-5.00958 3.48384,-10.07697 5.45381,-15.02874 9.58745,-24.09921 22.77761,-46.59427 38.634,-67.09213 3.39985,-4.08522 6.65432,-8.29594 10.19954,-12.25566 17.30557,-19.3289 37.74634,-35.86434 61.56053,-46.43623 6.294,-2.31704 19.57351,-7.737383 26.55259,-8.25591 15.7989,-1.173816 31.67026,-1.196924 47.5127,-1.179814 12.10579,0.01307 23.06316,3.902554 33.04862,10.559364 8.10702,7.07597 10.9279,8.53757 16.84898,17.83654 11.40668,17.91402 14.21983,39.16792 14.06919,59.96809 -0.38874,6.36183 -0.42506,12.75503 -1.16622,19.08548 -4.57679,39.09144 -19.21592,76.399 -35.46659,111.89716 -4.19354,8.29593 -8.14412,16.71921 -12.58064,24.88779 C 751.05169,382.873 722.1,421.66026 687.9725,455.74209 c -6.84356,6.46263 -13.53624,13.08887 -20.53069,19.38789 -33.35212,30.036 -69.95245,56.55936 -110.65007,75.76165 -7.79492,3.25074 -15.46557,6.81719 -23.38477,9.75223 -14.79312,5.48266 -31.29695,10.10279 -46.74337,13.3328 -7.52717,1.574 -15.06652,3.37566 -22.73906,3.89324 -20.95604,1.41368 -41.98305,1.47702 -62.98266,1.88948 -6.80977,0.13375 -13.62114,-0.16742 -20.4317,-0.25113 -6.53755,-0.73461 -13.12016,-1.14224 -19.61263,-2.20383 -31.33301,-5.1233 -60.68851,-18.12338 -85.59882,-37.75435 -12.31195,-10.88136 -16.01273,-13.22457 -26.35784,-26.0624 -15.22335,-18.89153 -25.80783,-40.98909 -32.31793,-64.27643 -1.28753,-5.88797 -2.86138,-11.72056 -3.86258,-17.66392 -5.37321,-31.89668 -2.37969,-64.45859 5.75959,-95.6012 5.43126,-16.99078 7.16877,-23.98755 14.44061,-40.39666 11.81004,-26.64967 27.82992,-51.19163 46.86023,-73.23119 4.7888,-5.10507 9.41986,-10.36283 14.36638,-15.31522 22.46938,-22.49601 47.83026,-42.28137 75.39334,-58.12471 10.86669,-5.34556 17.18593,-8.96604 28.65304,-12.66491 21.1322,-6.81647 33.41383,-4.66702 59.86002,-4.16406 3.45475,0.0657 6.89855,0.80801 10.20889,1.79859 3.08669,0.92365 5.89531,2.60161 8.84296,3.90242 6.82503,5.69246 8.66446,6.10433 12.91456,14.23553 7.79807,14.91907 6.16187,32.29077 3.08856,48.17498 -3.80365,13.77178 -4.34464,17.23942 -9.86301,30.78714 -9.93886,24.40011 -23.7999,46.96429 -38.29773,68.86465 -4.14444,5.91073 -8.14359,11.92604 -12.4333,17.7322 -20.33224,27.51981 -43.51536,53.14478 -70.71146,74.03247 -4.77837,3.42078 -9.42828,7.02854 -14.33511,10.26236 -19.20499,12.65695 -40.51633,22.2147 -63.1646,26.53169 -21.30182,2.80175 -11.28809,1.89525 -48.81016,1.3906 -6.29777,-0.0847 -12.76735,-1.87142 -18.46686,-4.44162 0,0 27.70575,-3.24494 27.70575,-3.24494 z"
             id="path3921"
             style="fill:#000000;fill-opacity:1;fill-rule:nonzero;stroke:none" />
          <path
             transform="matrix(1.3067474,-0.01739309,0.02191998,1.0368789,-35.770233,172.89597)"
             inkscape:connector-curvature="0"
             d="m 374.11035,603.93893 c -1.17443,-0.43178 -2.33352,-0.90781 -3.52329,-1.29534 -3.59483,-1.17091 -5.75025,-1.74958 -9.58779,-2.12191 -1.8912,-0.1835 -7.59553,-0.254 -5.69561,-0.2296 27.3568,0.35128 32.07238,-0.98551 17.90483,1.67542 -18.68142,5.54892 -34.80475,17.16748 -50.04163,28.95566 -13.49762,11.55001 -25.22783,25.05159 -35.27979,39.68265 -6.79999,9.89767 -9.18698,14.56827 -15.1592,25.00208 -11.17212,21.74017 -19.42006,44.95645 -23.6633,69.06055 -0.82517,4.68748 -1.33512,9.42502 -2.00268,14.13753 -1.35644,19.48843 -0.36163,39.10041 4.261,58.13254 3.03274,12.48626 4.84849,16.01404 9.46856,27.93649 11.00167,23.17742 28.16322,42.65819 50.12825,56.05107 4.61244,2.81238 9.54218,5.06787 14.31327,7.6018 20.74366,9.3 42.98594,14.95051 65.71155,16.20562 6.15503,0.33993 24.01232,2.94211 18.49217,0.19841 -6.12093,-3.04231 -13.64788,-0.78824 -20.47181,-1.18236 36.00624,-3.82125 71.19791,-14.20664 104.09883,-29.25382 7.21929,-3.30173 14.21962,-7.06262 21.32944,-10.59393 35.42627,-19.43162 67.49901,-44.51176 96.26124,-72.82078 5.64561,-5.55666 10.98626,-11.41487 16.47939,-17.12231 25.55633,-28.25717 48.21324,-59.69494 62.45887,-95.268 2.62929,-6.56567 4.60295,-13.37527 6.90443,-20.0629 6.79078,-24.18531 10.10428,-49.53111 4.94537,-74.39682 -3.14272,-15.14774 -4.98622,-16.81882 -11.63328,-30.53976 -13.15136,-21.39139 -32.33881,-38.34384 -56.4192,-46.34857 -4.29417,-1.42745 -8.78818,-2.16292 -13.18227,-3.24438 -4.45756,-0.5043 -17.82214,-0.94151 -13.37268,-1.51291 7.40683,-0.95119 15.06515,-1.04755 22.40018,0.3536 4.36509,0.83383 -8.86945,0.69967 -13.25912,1.39255 -12.89603,2.03554 -24.84091,6.42921 -36.96553,11.06113 -14.04017,6.22147 -7.28655,2.92599 -20.29035,9.82578 0,0 -33.97129,-3.59403 -33.97129,-3.59403 l 0,0 c 12.11396,-7.37392 5.77784,-3.8714 19.04773,-10.43601 9.76781,-4.13559 13.29077,-5.95422 23.64331,-8.96327 28.68916,-8.33873 59.69652,-7.50766 88.97675,-2.91665 4.53191,1.25112 9.1697,2.16786 13.59573,3.75337 24.81907,8.89076 44.58535,26.65005 58.27741,48.89597 6.6553,13.80455 8.90795,16.57797 12.47445,31.6853 5.96108,25.25052 3.89039,51.34648 -2.28897,76.31469 -2.13064,6.8349 -3.90772,13.7902 -6.39191,20.50468 -13.3874,36.18463 -35.82676,68.17312 -61.29771,96.81593 -5.41941,5.7963 -10.66794,11.75724 -16.25823,17.38892 -28.65507,28.86724 -60.86451,54.32092 -96.45206,74.09592 -7.22326,3.6137 -14.33359,7.46253 -21.66977,10.84111 -33.94494,15.63289 -70.3364,26.07676 -107.48256,30.21558 -10.28168,0.21658 -55.84712,2.28763 -76.72593,0.59545 -22.59773,-1.8315 -44.64276,-7.91773 -65.02573,-17.81058 -4.71359,-2.69354 -9.59656,-5.11022 -14.14078,-8.08061 -21.84885,-14.2818 -38.63436,-34.65314 -49.49155,-58.27592 -1.8003,-4.6793 -3.8193,-9.28022 -5.40088,-14.0379 -7.91059,-23.79637 -10.02724,-48.99436 -8.00689,-73.90014 0.61715,-4.80119 1.05176,-9.62938 1.85145,-14.40356 4.10172,-24.48722 12.3064,-48.13472 23.54475,-70.23249 2.47104,-4.32759 4.80458,-8.73665 7.41313,-12.98278 12.22496,-19.89949 27.21067,-38.097 45.2529,-52.98856 16.42711,-12.40901 33.95445,-24.01191 53.83169,-30.04946 18.35554,-3.82315 7.87594,-2.1213 43.42412,-1.88534 5.83989,0.0388 11.64251,2.08849 16.48733,5.2337 0,0 -27.82634,2.93719 -27.82634,2.93719 z"
             id="path3923"
             style="fill:#000000;fill-opacity:1;fill-rule:nonzero;stroke:none" />
        </g>
      </g>
    </g>
  </g>
</svg>
