<?xml version="1.0" encoding="UTF-8" standalone="no"?>
<!-- Created with Inkscape (http://www.inkscape.org/) -->

<svg
   xmlns:dc="http://purl.org/dc/elements/1.1/"
   xmlns:cc="http://creativecommons.org/ns#"
   xmlns:rdf="http://www.w3.org/1999/02/22-rdf-syntax-ns#"
   xmlns:svg="http://www.w3.org/2000/svg"
   xmlns="http://www.w3.org/2000/svg"
   xmlns:sodipodi="http://sodipodi.sourceforge.net/DTD/sodipodi-0.dtd"
   xmlns:inkscape="http://www.inkscape.org/namespaces/inkscape"
   width="1000"
   height="1000"
   id="svg3004"
   version="1.1"
   inkscape:version="0.48.3.1 r9886"
   sodipodi:docname="uu.svg">
  <defs
     id="defs5498" />
  <sodipodi:namedview
     inkscape:window-height="722"
     inkscape:window-width="1366"
     inkscape:pageshadow="2"
     inkscape:pageopacity="0.0"
     borderopacity="1.0"
     bordercolor="#666666"
     pagecolor="#ffffff"
     id="base"
     showgrid="false"
     showguides="true"
     inkscape:guide-bbox="true"
     inkscape:zoom="0.454"
     inkscape:cx="500"
     inkscape:cy="500"
     inkscape:window-x="0"
     inkscape:window-y="24"
     inkscape:current-layer="g3253"
     inkscape:window-maximized="1">
    <sodipodi:guide
       orientation="horizontal"
       position="854.62555,442.73128"
       id="guide5596" />
    <sodipodi:guide
       orientation="0,1"
       position="854.62555,865.63877"
       id="guide3067" />
    <sodipodi:guide
       orientation="-0.70710678,0.70710678"
       position="-814.97797,1143.1718"
       id="guide3247" />
    <sodipodi:guide
       orientation="1,0"
       position="151.98238,832.59912"
       id="guide3249" />
    <sodipodi:guide
       orientation="1,0"
       position="764.31718,731.27753"
       id="guide3251" />
    <sodipodi:guide
       orientation="0,1"
       position="867.84141,687.22467"
       id="guide3460" />
  </sodipodi:namedview>
  <metadata
     id="metadata5594">
    <rdf:RDF>
      <cc:Work
         rdf:about="">
        <dc:format>image/svg+xml</dc:format>
        <dc:type
           rdf:resource="http://purl.org/dc/dcmitype/StillImage" />
        <dc:title></dc:title>
      </cc:Work>
    </rdf:RDF>
  </metadata>
  <g
     inkscape:label="Layer 1"
     inkscape:groupmode="layer"
     id="layer1">
    <g
       id="g3631"
       transform="matrix(0.78138664,0,0,0.96429713,145.75357,23.895527)">
      <g
         id="g3253"
         transform="matrix(0.97908453,0.01330834,-0.02069819,0.99985934,-147.93123,-197.17586)">
        <path
           style="fill:#000000;fill-opacity:1;fill-rule:nonzero;stroke:none"
           id="path3483"
           d="m 353.36452,559.82602 c 24.79561,-6.38039 54.75817,-8.4667 78.78468,0.39665 7.72285,2.84896 10.6679,5.08857 17.54135,9.1982 23.44539,15.03884 31.69271,34.89881 37.88568,57.42909 5.2372,24.65653 0.34339,46.85751 -10.66731,69.9452 -8.04996,12.7256 -18.49495,27.16776 -36.92117,31.65358 -2.83454,0.69007 -5.85217,0.75939 -8.77825,1.13908 -21.07056,-0.4451 -42.23099,0.27022 -63.21167,-1.33532 -4.79178,-0.36669 -15.29025,-8.29701 -17.96166,-10.49505 -10.31786,-8.48951 -17.74612,-18.25775 -25.12973,-28.39469 -20.15315,-30.38833 -27.07612,-60.47209 -31.19826,-94.24724 -2.55831,-36.54182 5.07403,-73.27187 19.78012,-107.90776 3.22393,-7.593 7.21534,-14.96702 10.82302,-22.45053 16.46194,-29.5153 37.21854,-57.77029 63.98347,-82.20713 16.70119,-15.24848 23.78595,-19.38443 42.6858,-32.70445 34.7963,-22.3601 74.24881,-41.38088 118.27098,-49.62876 7.56305,-1.41699 15.31985,-2.07776 22.97979,-3.11665 41.83475,-0.83595 85.59496,-6.93727 125.40369,5.38947 12.15079,3.76249 25.32897,9.51838 35.81154,15.67977 5.49852,3.2319 10.40056,7.05807 15.60086,10.58712 21.19507,16.57373 37.5839,36.72564 48.96515,58.52883 7.29598,13.97699 10.00508,23.25881 15.20209,37.84825 10.9529,34.03279 16.70032,69.19977 16.18806,104.3534 -0.0982,6.74403 -0.70316,13.47744 -1.05475,20.21616 -2.93305,32.41978 -11.87943,64.42449 -29.76941,93.79451 -3.58784,5.89014 -7.79205,11.53112 -11.68811,17.29667 -23.60541,30.23207 -55.70195,55.29988 -93.16192,74.70788 -7.93734,4.11234 -16.26942,7.72377 -24.40414,11.58565 -51.6494,22.51722 -106.34649,30.91521 -164.07844,36.6058 -53.64238,4.43304 -107.61487,4.5465 -161.4625,5.87082 -33.00644,1.5055 -66.86444,2.66837 -98.50723,11.08465 -4.36475,1.16093 -8.55758,2.69483 -12.83638,4.04224 -9.14155,3.55421 -29.10772,11.51775 -25.11707,22.35542 0.62124,1.68717 2.10811,3.09194 3.16217,4.63794 17.6766,16.11077 45.31879,21.18937 70.5164,25.66382 29.56687,3.78366 59.60191,5.21342 89.53285,5.40267 8.44648,0.0534 33.78298,-0.0826 25.33848,-0.23772 -13.35766,-0.24535 -26.72247,-0.0221 -40.08371,-0.0332 60.47765,-3.28616 120.75509,-8.46724 181.06763,-13.22828 61.83399,-4.90342 123.89683,-7.84769 186.02259,-8.77021 63.17176,-1.71636 126.34671,-0.53094 189.51912,-0.0264 22.31739,0.79002 89.90967,-0.48026 -9.98441,1.30847 0,0 49.51833,4.49455 49.51833,4.49455 l 0,0 c -32.88685,1.04787 -65.76468,2.34047 -98.68662,2.3525 -26.26884,0.1356 -52.53645,0.11185 -78.80565,0.14169 -8.2571,0.01 -33.01795,0.38321 -24.77126,0.0542 13.73179,-0.54777 27.49173,-0.47406 41.23758,-0.71115 -60.91636,0.88484 -121.7422,4.23249 -182.39872,8.71165 -61.7975,4.82783 -123.59022,9.79145 -185.55804,13.05981 -67.22325,1.26347 -136.00834,5.51883 -202.469,-5.39599 -24.17202,-5.51738 -50.65541,-11.97007 -63.86445,-30.41841 -0.88303,-2.06393 -2.12293,-4.05252 -2.64912,-6.19176 -3.05632,-12.42557 8.29528,-21.72564 20.47868,-27.7629 3.83259,-1.5657 7.53813,-3.34506 11.49783,-4.69707 28.88628,-9.86309 61.10126,-11.3168 91.99933,-13.10911 52.87255,-1.79226 105.89192,-1.58747 158.60983,-5.73381 57.07752,-5.12749 112.30048,-12.88942 163.77107,-34.36684 8.23796,-3.7136 16.65513,-7.18735 24.71387,-11.1408 37.82894,-18.55806 70.77254,-42.66331 95.44282,-72.12311 4.02538,-5.60275 8.39478,-11.05846 12.07615,-16.80824 18.2888,-28.56416 26.17958,-60.02752 28.81921,-91.79439 0.2204,-6.62463 0.7265,-13.24717 0.66126,-19.87391 -0.34161,-34.69169 -6.18602,-69.31716 -15.71421,-103.12641 -4.64919,-14.60562 -6.70688,-23.02443 -13.55264,-37.00656 -10.40207,-21.24557 -26.08458,-40.49135 -46.6706,-56.40087 -17.06118,-10.86619 -29.92879,-18.54803 -51.11513,-24.18017 -6.41059,-1.70417 -26.05444,-2.1484 -19.67214,-3.91815 13.39709,-3.71486 28.39261,-0.95808 42.46694,-2.4026 6.91949,-0.71017 -13.95334,0.12816 -20.93,0.19217 -7.3217,0.84603 -14.73574,1.28836 -21.96509,2.53811 -42.64186,7.37157 -80.62416,26.30144 -114.33294,47.54496 -18.89979,13.21246 -25.06385,16.69361 -41.84969,31.78769 -26.61327,23.93103 -47.03061,51.67909 -63.90923,80.52994 -3.73967,7.33651 -7.82292,14.56856 -11.21903,22.00953 -15.4697,33.89457 -24.46218,69.82009 -24.35376,105.90512 0.45737,6.0861 0.64801,12.18854 1.3721,18.25831 3.04239,25.50375 10.8904,50.67762 24.05524,74.08355 6.17765,9.47563 12.30342,19.19511 21.69734,27.01734 2.36325,1.96787 4.94553,3.80757 7.80261,5.30735 2.57862,1.3536 11.4109,2.75761 8.36518,3.17965 -15.01499,2.08052 -30.43863,1.32518 -45.65794,1.98777 2.82298,0.031 5.67284,0.40329 8.46893,0.0933 17.61153,-1.95248 26.26673,-16.81411 33.01344,-28.00547 10.26708,-22.43268 14.48104,-43.46159 9.76882,-67.31454 -5.30435,-21.2863 -12.5603,-39.8594 -34.29687,-54.31713 -6.28214,-3.74311 -8.50122,-5.61423 -15.70239,-7.90504 -2.40589,-0.76533 -10.06373,-1.471 -7.48438,-1.67412 15.16074,-1.19395 30.45516,-0.78627 45.67476,-1.33346 2.2516,-0.0809 -4.51602,-0.2229 -6.76119,-0.0656 -1.93069,0.13533 -3.79541,0.62546 -5.69313,0.93818 0,0 -50.4775,-4.34796 -50.4775,-4.34796 z"
           inkscape:connector-curvature="0" />
      </g>
    </g>
  </g>
</svg>
