<?xml version="1.0" encoding="UTF-8" standalone="no"?>
<!-- Created with Inkscape (http://www.inkscape.org/) -->

<svg
   xmlns:dc="http://purl.org/dc/elements/1.1/"
   xmlns:cc="http://creativecommons.org/ns#"
   xmlns:rdf="http://www.w3.org/1999/02/22-rdf-syntax-ns#"
   xmlns:svg="http://www.w3.org/2000/svg"
   xmlns="http://www.w3.org/2000/svg"
   xmlns:sodipodi="http://sodipodi.sourceforge.net/DTD/sodipodi-0.dtd"
   xmlns:inkscape="http://www.inkscape.org/namespaces/inkscape"
   width="1000"
   height="1000"
   id="svg3004"
   version="1.1"
   inkscape:version="0.48.3.1 r9886"
   sodipodi:docname="ee.svg">
  <defs
     id="defs5498" />
  <sodipodi:namedview
     inkscape:window-height="722"
     inkscape:window-width="1366"
     inkscape:pageshadow="2"
     inkscape:pageopacity="0.0"
     borderopacity="1.0"
     bordercolor="#666666"
     pagecolor="#ffffff"
     id="base"
     showgrid="false"
     showguides="true"
     inkscape:guide-bbox="true"
     inkscape:zoom="0.454"
     inkscape:cx="500"
     inkscape:cy="500"
     inkscape:window-x="0"
     inkscape:window-y="24"
     inkscape:current-layer="g3253"
     inkscape:window-maximized="1">
    <sodipodi:guide
       orientation="horizontal"
       position="854.62555,442.73128"
       id="guide5596" />
    <sodipodi:guide
       orientation="0,1"
       position="854.62555,865.63877"
       id="guide3067" />
    <sodipodi:guide
       orientation="-0.70710678,0.70710678"
       position="-814.97797,1143.1718"
       id="guide3247" />
    <sodipodi:guide
       orientation="1,0"
       position="151.98238,832.59912"
       id="guide3249" />
    <sodipodi:guide
       orientation="1,0"
       position="764.31718,731.27753"
       id="guide3251" />
    <sodipodi:guide
       orientation="0,1"
       position="867.84141,687.22467"
       id="guide3460" />
  </sodipodi:namedview>
  <metadata
     id="metadata5594">
    <rdf:RDF>
      <cc:Work
         rdf:about="">
        <dc:format>image/svg+xml</dc:format>
        <dc:type
           rdf:resource="http://purl.org/dc/dcmitype/StillImage" />
        <dc:title></dc:title>
      </cc:Work>
    </rdf:RDF>
  </metadata>
  <g
     inkscape:label="Layer 1"
     inkscape:groupmode="layer"
     id="layer1">
    <g
       id="g3631"
       transform="matrix(0.78138664,0,0,0.96429713,145.75357,23.895527)">
      <g
         id="g3253"
         transform="matrix(0.97908453,0.01330834,-0.02069819,0.99985934,-147.93123,-197.17586)">
        <path
           style="fill:#000000;fill-opacity:1;fill-rule:nonzero;stroke:none"
           id="path3426"
           d="m 708.57027,319.58819 c -5.44162,6.74148 -13.1116,10.95313 -20.86209,14.48566 -5.088,1.98332 -10.46224,3.21788 -15.9525,3.15737 -28.7604,-0.31696 -29.17931,2.74689 -47.47453,-5.20371 -15.29682,-8.43525 -24.7099,-20.82156 -33.86155,-35.28828 -7.91648,-14.35648 -13.61095,-30.19661 -15.44918,-46.55818 -0.35236,-3.1362 -0.41501,-6.2982 -0.62251,-9.44731 0.111,-12.9951 2.3861,-25.95663 6.9166,-38.15814 3.0507,-8.21612 5.19322,-11.64609 9.29382,-19.40245 7.81984,-12.69992 17.67049,-24.05739 29.60917,-33.05055 7.10432,-5.35153 9.83643,-6.52958 17.52018,-10.80133 10.7614,-5.28933 22.47614,-9.67605 34.65447,-9.74764 39.20575,-0.23047 27.22854,-3.20097 46.16276,2.60704 16.02546,7.14758 22.33757,19.22215 29.66646,34.22662 8.20742,18.21319 13.92048,37.33279 18.96619,56.61453 5.38289,20.73887 8.42357,41.98482 10.77454,63.252 0.95903,11.39391 1.50829,22.85125 1.36788,34.28936 -0.76357,9.83844 -0.11656,4.36973 -27.86193,-1.18999 -1.28297,-0.25709 -0.46237,-2.57584 -0.70845,-3.86097 -1.30606,-6.82075 -2.26201,-13.44088 -2.87319,-20.36968 -1.82753,-21.00569 1.02835,-41.8855 4.95911,-62.47322 4.70531,-19.71199 11.93936,-38.98381 22.56639,-56.30992 2.10787,-3.43663 4.49938,-6.69103 6.74908,-10.03654 10.73841,-14.01999 23.47057,-27.04568 39.48588,-34.9766 2.85868,-1.41565 5.87865,-2.47909 8.81798,-3.71864 3.08253,-0.82613 6.11163,-1.88658 9.24759,-2.47839 3.12805,-0.59033 6.30795,-1.02251 9.49103,-1.05795 17.08363,-0.19021 35.41272,-2.36051 52.25902,2.61864 8.61044,2.54493 11.58686,4.57972 19.57848,8.71642 17.49967,10.86185 30.54241,26.46353 39.0393,45.15223 1.86767,4.10791 3.3404,8.38417 5.01061,12.57625 8.59129,25.64622 10.07302,52.87947 8.16988,79.7035 -0.45504,6.41362 -1.29814,12.79379 -1.94721,19.19069 -3.90578,27.45161 -11.35917,54.27404 -22.48323,79.68247 -7.20278,16.45185 -11.08697,22.68469 -19.75188,38.47499 -18.71738,31.22137 -41.01846,60.33778 -66.62074,86.24244 -4.81846,4.87537 -9.89891,9.48464 -14.84836,14.22697 -17.63561,15.81583 -36.78188,29.99699 -57.79655,41.02144 -10.12747,5.31294 -14.70897,6.8707 -25.0958,11.05157 -11.87837,4.47206 -24.20757,7.28514 -36.77382,8.81555 0,0 -30.91344,-4.49594 -30.91344,-4.49594 l 0,0 c 11.10615,-1.48664 21.91331,-4.36555 32.3466,-8.5021 9.85637,-4.21039 13.40544,-5.43672 22.98852,-10.77866 19.75064,-11.00969 37.62442,-25.0353 54.14499,-40.4064 4.75414,-4.68403 9.63468,-9.24314 14.26241,-14.0521 24.96897,-25.94678 47.23169,-54.56512 65.99664,-85.29426 9.51705,-16.4794 12.48817,-20.66233 20.27628,-37.91143 11.30941,-25.04807 18.89666,-51.57514 23.82846,-78.57489 0.93145,-6.31295 2.04454,-12.60175 2.79437,-18.93884 3.09001,-26.11499 2.97301,-52.77021 -4.6769,-78.12711 -1.51444,-4.07568 -2.81638,-8.23676 -4.54333,-12.22704 -7.8108,-18.04768 -20.6199,-32.8757 -37.44441,-43.06628 -7.85639,-3.90593 -10.36334,-5.67133 -18.83883,-7.87502 -3.1113,-0.80896 -12.66394,-1.19288 -9.49123,-1.71104 7.73518,-1.26328 15.66823,-0.56804 23.50588,-0.57779 3.13628,-0.004 -6.28495,0.13405 -9.39214,0.56023 -3.12439,0.42855 -6.16527,1.33097 -9.24791,1.99645 -2.89767,1.09707 -5.8812,1.98977 -8.69302,3.29121 -15.52354,7.18501 -27.61003,19.99898 -37.61206,33.52937 -2.19182,3.25457 -4.51205,6.42624 -6.57544,9.76371 -10.51726,17.01136 -17.86628,35.92062 -22.96238,55.19926 -4.35201,20.31224 -7.69539,40.8116 -7.48541,61.66424 -0.13229,6.76807 0.0825,13.5648 -0.19161,20.32766 -0.0526,1.29751 0.96032,3.56722 -0.29897,3.88425 -25.6076,6.44678 -22.14385,10.3564 -28.4513,1.97407 -5.00675,-10.72729 -4.31562,-23.13126 -6.91562,-34.49253 -3.33798,-21.02566 -6.37625,-42.14209 -11.38722,-62.85211 -4.65731,-19.00218 -9.84111,-37.88272 -17.25042,-56.03002 -6.70783,-14.74692 -12.40386,-25.7034 -28.55854,-31.49613 -14.2229,-2.98367 -11.90138,-1.94364 17.14524,-1.97457 2.57496,-0.003 -5.15431,0.16363 -7.71012,0.47711 -8.94709,1.09742 -17.3592,3.99355 -25.38089,8.06459 -7.4623,4.04344 -10.02186,5.08897 -16.90227,10.2158 -11.66176,8.68957 -21.32883,19.7377 -29.41447,31.7623 -3.97647,7.03045 -6.68977,11.32964 -9.80096,18.7757 -4.86579,11.64536 -7.51952,24.2 -7.47032,36.81989 0.25514,3.04463 0.3629,6.10523 0.76543,9.1339 2.10833,15.86345 7.84564,31.24125 15.35346,45.28303 7.94337,13.31123 17.09851,26.33216 31.32007,33.49325 15.12251,6.00989 20.97114,3.10666 -13.37232,4.16896 -1.8376,0.0568 3.68025,0.1134 5.51543,0.003 5.13448,-0.30792 5.79388,-0.73571 10.6734,-2.02559 8.36501,-3.16148 15.91549,-7.73233 23.03666,-13.13514 0,0 27.70479,2.18041 27.70479,2.18041 z"
           inkscape:connector-curvature="0"
           transform="matrix(1.3067474,-0.01739309,0.02191998,1.0368789,-35.770233,172.89597)" />
        <path
           style="fill:#000000;fill-opacity:1;fill-rule:nonzero;stroke:none"
           id="path3483"
           d="m 209.5646,567.18092 c 24.79561,-6.38039 54.75817,-8.4667 78.78468,0.39665 7.72285,2.84896 10.6679,5.08857 17.54135,9.1982 23.44539,15.03884 31.69271,34.89881 37.88568,57.42909 5.2372,24.65653 0.34339,46.85751 -10.66731,69.9452 -8.04996,12.7256 -18.49495,27.16776 -36.92117,31.65358 -2.83454,0.69007 -5.85217,0.75939 -8.77825,1.13908 -21.07056,-0.4451 -42.23099,0.27022 -63.21167,-1.33532 -4.79178,-0.36669 -15.29025,-8.29701 -17.96166,-10.49505 -10.31786,-8.48951 -17.74612,-18.25775 -25.12973,-28.39469 -20.15315,-30.38833 -27.07612,-60.47209 -31.19826,-94.24724 -2.55831,-36.54182 5.07403,-73.27187 19.78012,-107.90776 3.22393,-7.593 7.21534,-14.96702 10.82302,-22.45053 16.46194,-29.5153 37.21854,-57.77029 63.98347,-82.20713 16.70119,-15.24848 23.78595,-19.38443 42.6858,-32.70445 34.7963,-22.3601 74.24881,-41.38088 118.27098,-49.62876 7.56305,-1.41699 15.31985,-2.07776 22.97979,-3.11665 41.83475,-0.83595 85.59496,-6.93727 125.40369,5.38947 12.15079,3.76249 25.32897,9.51838 35.81154,15.67977 5.49852,3.2319 10.40056,7.05807 15.60086,10.58712 21.19507,16.57373 37.5839,36.72564 48.96515,58.52883 7.29598,13.97699 10.00508,23.25881 15.20209,37.84825 10.9529,34.03279 16.70032,69.19977 16.18806,104.3534 -0.0982,6.74403 -0.70316,13.47744 -1.05475,20.21616 -2.93305,32.41978 -11.87943,64.42449 -29.76941,93.79451 -3.58784,5.89014 -7.79205,11.53112 -11.68811,17.29667 -23.60541,30.23207 -55.70195,55.29988 -93.16192,74.70788 -7.93734,4.11234 -16.26942,7.72377 -24.40414,11.58565 -51.6494,22.51722 -106.34649,30.91521 -164.07844,36.6058 -53.64238,4.43304 -107.61487,4.5465 -161.4625,5.87082 -33.00644,1.5055 -66.86444,2.66837 -98.50723,11.08465 -4.364753,1.16093 -8.557583,2.69483 -12.836383,4.04224 -9.14155,3.55421 -29.107722,11.51775 -25.11707,22.35542 0.621243,1.68717 2.108109,3.09194 3.16217,4.63794 17.6766,16.11077 45.318793,21.18937 70.516403,25.66382 29.56687,3.78366 59.60191,5.21342 89.53285,5.40267 8.44648,0.0534 33.78298,-0.0826 25.33848,-0.23772 -13.35766,-0.24535 -26.72247,-0.0221 -40.08371,-0.0332 60.47765,-3.28616 120.75509,-8.46724 181.06763,-13.22828 61.83399,-4.90342 123.89683,-7.84769 186.02259,-8.77021 63.17176,-1.71636 126.34671,-0.53094 189.51912,-0.0264 22.31739,0.79002 89.90967,-0.48026 -9.98441,1.30847 0,0 49.51833,4.49455 49.51833,4.49455 l 0,0 c -32.88685,1.04787 -65.76468,2.34047 -98.68662,2.3525 -26.26884,0.1356 -52.53645,0.11185 -78.80565,0.14169 -8.2571,0.01 -33.01795,0.38321 -24.77126,0.0542 13.73179,-0.54777 27.49173,-0.47406 41.23758,-0.71115 -60.91636,0.88484 -121.7422,4.23249 -182.39872,8.71165 -61.7975,4.82783 -123.59022,9.79145 -185.55804,13.05981 -67.22325,1.26347 -136.00834,5.51883 -202.469003,-5.39599 -24.172019,-5.51738 -50.655412,-11.97007 -63.864444,-30.41841 -0.883033,-2.06393 -2.122933,-4.05252 -2.649128,-6.19176 -3.0563153,-12.42557 8.295285,-21.72564 20.478683,-27.7629 3.832595,-1.5657 7.53813,-3.34506 11.497826,-4.69707 28.886286,-9.86309 61.101266,-11.3168 91.999336,-13.10911 52.87255,-1.79226 105.89192,-1.58747 158.60983,-5.73381 57.07752,-5.12749 112.30048,-12.88942 163.77107,-34.36684 8.23796,-3.7136 16.65513,-7.18735 24.71387,-11.1408 37.82894,-18.55806 70.77254,-42.66331 95.44282,-72.12311 4.02538,-5.60275 8.39478,-11.05846 12.07615,-16.80824 18.2888,-28.56416 26.17958,-60.02752 28.81921,-91.79439 0.2204,-6.62463 0.7265,-13.24717 0.66126,-19.87391 -0.34161,-34.69169 -6.18602,-69.31716 -15.71421,-103.12641 -4.64919,-14.60562 -6.70688,-23.02443 -13.55264,-37.00656 -10.40207,-21.24557 -26.08458,-40.49135 -46.6706,-56.40087 -17.06118,-10.86619 -29.92879,-18.54803 -51.11513,-24.18017 -6.41059,-1.70417 -26.05444,-2.1484 -19.67214,-3.91815 13.39709,-3.71486 28.39261,-0.95808 42.46694,-2.4026 6.91949,-0.71017 -13.95334,0.12816 -20.93,0.19217 -7.3217,0.84603 -14.73574,1.28836 -21.96509,2.53811 -42.64186,7.37157 -80.62416,26.30144 -114.33294,47.54496 -18.89979,13.21246 -25.06385,16.69361 -41.84969,31.78769 -26.61327,23.93103 -47.03061,51.67909 -63.90923,80.52994 -3.73967,7.33651 -7.82292,14.56856 -11.21903,22.00953 -15.4697,33.89457 -24.46218,69.82009 -24.35376,105.90512 0.45737,6.0861 0.64801,12.18854 1.3721,18.25831 3.04239,25.50375 10.8904,50.67762 24.05524,74.08355 6.17765,9.47563 12.30342,19.19511 21.69734,27.01734 2.36325,1.96787 4.94553,3.80757 7.80261,5.30735 2.57862,1.3536 11.4109,2.75761 8.36518,3.17965 -15.01499,2.08052 -30.43863,1.32518 -45.65794,1.98777 2.82298,0.031 5.67284,0.40329 8.46893,0.0933 17.61153,-1.95248 26.26673,-16.81411 33.01344,-28.00547 10.26708,-22.43268 14.48104,-43.46159 9.76882,-67.31454 -5.30435,-21.2863 -12.5603,-39.8594 -34.29687,-54.31713 -6.28214,-3.74311 -8.50122,-5.61423 -15.70239,-7.90504 -2.40589,-0.76533 -10.06373,-1.471 -7.48438,-1.67412 15.16074,-1.19395 30.45516,-0.78627 45.67476,-1.33346 2.2516,-0.0809 -4.51602,-0.2229 -6.76119,-0.0656 -1.93069,0.13533 -3.79541,0.62546 -5.69313,0.93818 0,0 -50.4775,-4.34796 -50.4775,-4.34796 z"
           inkscape:connector-curvature="0" />
      </g>
    </g>
  </g>
</svg>
